<?xml version="1.0" encoding="utf-8"?>
<!-- Generator: Adobe Illustrator 26.1.0, SVG Export Plug-In . SVG Version: 6.00 Build 0)  -->
<svg version="1.1" id="Layer_1" xmlns="http://www.w3.org/2000/svg" xmlns:xlink="http://www.w3.org/1999/xlink" x="0px" y="0px"
	 viewBox="0 0 189 100" style="enable-background:new 0 0 189 100;" xml:space="preserve">
<style type="text/css">
	.st0{fill:#F9FBFB;}
	.st1{fill:none;stroke:#333638;stroke-width:2;stroke-linecap:round;}
</style>
<path class="st0" d="M11,1h167c5.522842,0,10,4.477152,10,10v78c0,5.52285-4.477158,10-10,10H11C5.477152,99,1,94.52285,1,89V11
	C1,5.477152,5.477152,1,11,1z"/>
<path class="st1" d="M11.006173,1.864197h167c4.970566,0,9,4.029437,9,9v78c0,4.970566-4.029434,9-9,9h-167
	c-4.970563,0-9-4.029434-9-9v-78C2.006173,5.893635,6.03561,1.864197,11.006173,1.864197z"/>
</svg>
