<svg xmlns="http://www.w3.org/2000/svg" version="1.1" xmlns:xlink="http://www.w3.org/1999/xlink" xmlns:svgjs="http://svgjs.dev/svgjs" width="1000" height="1000" viewBox="0 0 1000 1000"><rect width="1000" height="1000" fill="#89b3c1"></rect><g transform="matrix(0.7,0,0,0.7,149.57575757575756,383.1212916913144)"><svg viewBox="0 0 396 133" data-background-color="#89b3c1" preserveAspectRatio="xMidYMid meet" height="335" width="1000" xmlns="http://www.w3.org/2000/svg" xmlns:xlink="http://www.w3.org/1999/xlink"><g id="tight-bounds" transform="matrix(1,0,0,1,0.2400000000000091,-0.2105833473126495)"><svg viewBox="0 0 395.52 133.4211666946253" height="133.4211666946253" width="395.52"><g><svg viewBox="0 0 635.8398813266069 214.48851839999998" height="133.4211666946253" width="395.52"><g transform="matrix(1,0,0,1,0,18.455308252917362)"><svg viewBox="0 0 395.52 177.57790189416525" height="177.57790189416525" width="395.52"><g id="textblocktransform"><svg viewBox="0 0 395.52 177.57790189416525" height="177.57790189416525" width="395.52" id="textblock"><g><svg viewBox="0 0 395.52 109.41969080553294" height="109.41969080553294" width="395.52"><g transform="matrix(1,0,0,1,0,0)"><svg width="395.52" viewBox="5 -33.400001525878906 122.88999938964844 34" height="109.41969080553294" data-palette-color="#f6f6f6"><path d="M6.6 0L5 0 5-33 6.6-33 6.6-14 6.7-14 23.5-33 25.5-33 14.9-20.9 26.9 0 25 0 13.7-19.7 6.6-11.7 6.6 0ZM33.8 0L32.3 0 32.3-23.9 33.6-23.9 33.8-19.4 33.9-19.4Q35.1-21.6 36.8-23.05 38.5-24.5 40.7-24.5L40.7-24.5Q41.3-24.5 41.85-24.4 42.4-24.3 43-24L43-24 42.6-22.6Q42-22.85 41.6-22.93 41.2-23 40.5-23L40.5-23Q38.85-23 37.05-21.58 35.25-20.15 33.8-16.6L33.8-16.6 33.8 0ZM49.09 0L47.59 0 47.59-23.9 49.09-23.9 49.09 0ZM48.4-30L48.4-30Q47.7-30 47.2-30.48 46.7-30.95 46.7-31.7L46.7-31.7Q46.7-32.55 47.2-32.98 47.7-33.4 48.4-33.4L48.4-33.4Q49.09-33.4 49.59-32.98 50.09-32.55 50.09-31.7L50.09-31.7Q50.09-30.95 49.59-30.48 49.09-30 48.4-30ZM60.19 0L58.69 0 58.69-23.9 59.99-23.9 60.19-20.1 60.29-20.1Q62.19-22 64.14-23.25 66.09-24.5 68.59-24.5L68.59-24.5Q72.29-24.5 74.04-22.3 75.79-20.1 75.79-15.4L75.79-15.4 75.79 0 74.29 0 74.29-15.2Q74.29-19.2 72.94-21.15 71.59-23.1 68.49-23.1L68.49-23.1Q66.24-23.1 64.37-21.9 62.49-20.7 60.19-18.3L60.19-18.3 60.19 0ZM86.49 0L84.99 0 84.99-23.9 86.49-23.9 86.49 0ZM85.79-30L85.79-30Q85.09-30 84.59-30.48 84.09-30.95 84.09-31.7L84.09-31.7Q84.09-32.55 84.59-32.98 85.09-33.4 85.79-33.4L85.79-33.4Q86.49-33.4 86.99-32.98 87.49-32.55 87.49-31.7L87.49-31.7Q87.49-30.95 86.99-30.48 86.49-30 85.79-30ZM102.19 0.6L102.19 0.6Q100.54 0.6 99.46 0.1 98.39-0.4 97.74-1.3 97.09-2.2 96.84-3.48 96.59-4.75 96.59-6.3L96.59-6.3 96.59-22.5 92.79-22.5 92.79-23.7 96.59-23.9 96.79-30.9 98.09-30.9 98.09-23.9 105.19-23.9 105.19-22.5 98.09-22.5 98.09-6.1Q98.09-4.95 98.26-3.98 98.44-3 98.89-2.3 99.34-1.6 100.16-1.2 100.99-0.8 102.29-0.8L102.29-0.8Q102.99-0.8 103.84-1.05 104.69-1.3 105.39-1.6L105.39-1.6 105.89-0.3Q104.84 0.1 103.81 0.35 102.79 0.6 102.19 0.6ZM119.49 0.6L119.49 0.6Q117.24 0.6 115.26-0.25 113.29-1.1 111.79-2.73 110.29-4.35 109.44-6.65 108.59-8.95 108.59-11.9L108.59-11.9Q108.59-14.8 109.46-17.15 110.34-19.5 111.76-21.13 113.19-22.75 115.04-23.63 116.89-24.5 118.89-24.5L118.89-24.5Q123.04-24.5 125.46-21.68 127.89-18.85 127.89-13.5L127.89-13.5Q127.89-13.1 127.89-12.73 127.89-12.35 127.79-11.9L127.79-11.9 110.19-11.9Q110.19-9.5 110.86-7.48 111.54-5.45 112.76-3.95 113.99-2.45 115.71-1.63 117.44-0.8 119.59-0.8L119.59-0.8Q121.64-0.8 123.24-1.4 124.84-2 126.19-3L126.19-3 126.89-1.7Q125.54-0.85 123.86-0.13 122.19 0.6 119.49 0.6ZM110.19-13.3L110.19-13.3 126.39-13.3Q126.39-18.3 124.34-20.7 122.29-23.1 118.89-23.1L118.89-23.1Q117.29-23.1 115.79-22.43 114.29-21.75 113.11-20.48 111.94-19.2 111.16-17.4 110.39-15.6 110.19-13.3Z" opacity="1" transform="matrix(1,0,0,1,0,0)" fill="#f6f6f6" class="wordmark-text-0" data-fill-palette-color="primary" id="text-0"></path></svg></g></svg></g><g transform="matrix(1,0,0,1,163.310208,135.25105373213992)"><svg viewBox="0 0 232.209792 42.32684816202532" height="42.32684816202532" width="232.209792"><g transform="matrix(1,0,0,1,0,0)"><svg width="232.209792" viewBox="0.800000011920929 -37.099998474121094 256.7400207519531 46.79999923706055" height="42.32684816202532" data-palette-color="#ffffff"><path d="M48.95-35L58.4-35 47.05 0 36.45 0 29.75-21.3 22.75 0 12.15 0 0.8-35 11-35 18.05-12.65 25.45-35 34.55-35 41.6-12.45 48.95-35ZM87.2-13.5Q87.2-13.4 87.05-11.15L87.05-11.15 67.35-11.15Q67.95-9.05 69.67-7.93 71.4-6.8 74-6.8L74-6.8Q75.95-6.8 77.37-7.35 78.8-7.9 80.25-9.15L80.25-9.15 85.25-3.95Q81.3 0.45 73.7 0.45L73.7 0.45Q68.95 0.45 65.35-1.35 61.75-3.15 59.77-6.35 57.8-9.55 57.8-13.6L57.8-13.6Q57.8-17.6 59.72-20.78 61.65-23.95 65.05-25.75 68.45-27.55 72.7-27.55L72.7-27.55Q76.75-27.55 80.05-25.88 83.35-24.2 85.27-21.03 87.2-17.85 87.2-13.5L87.2-13.5ZM72.75-20.8Q70.55-20.8 69.07-19.55 67.6-18.3 67.2-16.15L67.2-16.15 78.3-16.15Q77.9-18.3 76.42-19.55 74.95-20.8 72.75-20.8L72.75-20.8ZM108.65-27.55Q112.35-27.55 115.37-25.85 118.4-24.15 120.17-20.98 121.95-17.8 121.95-13.6L121.95-13.6Q121.95-9.4 120.17-6.2 118.4-3 115.37-1.28 112.35 0.45 108.65 0.45L108.65 0.45Q103.3 0.45 100.65-2.7L100.65-2.7 100.65 0 91.6 0 91.6-37.1 101.1-37.1 101.1-24.75Q103.85-27.55 108.65-27.55L108.65-27.55ZM106.65-7.1Q109.15-7.1 110.75-8.83 112.35-10.55 112.35-13.6L112.35-13.6Q112.35-16.6 110.75-18.3 109.15-20 106.65-20L106.65-20Q104.15-20 102.55-18.3 100.95-16.6 100.95-13.6L100.95-13.6Q100.95-10.55 102.55-8.83 104.15-7.1 106.65-7.1L106.65-7.1ZM139.09 0.7Q134.84 0.7 130.84-0.35 126.84-1.4 124.34-3.15L124.34-3.15 127.59-10.45Q129.94-8.9 133.04-7.95 136.14-7 139.14-7L139.14-7Q144.84-7 144.84-9.85L144.84-9.85Q144.84-11.35 143.22-12.08 141.59-12.8 137.99-13.6L137.99-13.6Q134.04-14.45 131.39-15.43 128.74-16.4 126.84-18.55 124.94-20.7 124.94-24.35L124.94-24.35Q124.94-27.55 126.69-30.13 128.44-32.7 131.92-34.2 135.39-35.7 140.44-35.7L140.44-35.7Q143.89-35.7 147.24-34.93 150.59-34.15 153.14-32.65L153.14-32.65 150.09-25.3Q145.09-28 140.39-28L140.39-28Q137.44-28 136.09-27.13 134.74-26.25 134.74-24.85L134.74-24.85Q134.74-23.45 136.34-22.75 137.94-22.05 141.49-21.3L141.49-21.3Q145.49-20.45 148.12-19.48 150.74-18.5 152.67-16.38 154.59-14.25 154.59-10.6L154.59-10.6Q154.59-7.45 152.84-4.9 151.09-2.35 147.59-0.83 144.09 0.7 139.09 0.7L139.09 0.7ZM176.34-27.55Q181.39-27.55 184.47-24.55 187.54-21.55 187.54-15.5L187.54-15.5 187.54 0 178.04 0 178.04-13.95Q178.04-19.5 173.59-19.5L173.59-19.5Q171.14-19.5 169.67-17.9 168.19-16.3 168.19-13.1L168.19-13.1 168.19 0 158.69 0 158.69-37.1 168.19-37.1 168.19-24.6Q169.74-26.05 171.84-26.8 173.94-27.55 176.34-27.55L176.34-27.55ZM207.49 0.45Q203.14 0.45 199.64-1.35 196.14-3.15 194.16-6.35 192.19-9.55 192.19-13.6L192.19-13.6Q192.19-17.6 194.16-20.8 196.14-24 199.61-25.78 203.09-27.55 207.49-27.55L207.49-27.55Q211.89-27.55 215.39-25.78 218.89-24 220.84-20.83 222.79-17.65 222.79-13.6L222.79-13.6Q222.79-9.55 220.84-6.35 218.89-3.15 215.39-1.35 211.89 0.45 207.49 0.45L207.49 0.45ZM207.49-7.1Q209.99-7.1 211.59-8.83 213.19-10.55 213.19-13.6L213.19-13.6Q213.19-16.6 211.59-18.3 209.99-20 207.49-20L207.49-20Q204.99-20 203.39-18.3 201.79-16.6 201.79-13.6L201.79-13.6Q201.79-10.55 203.39-8.83 204.99-7.1 207.49-7.1L207.49-7.1ZM244.24-27.55Q247.94-27.55 250.96-25.83 253.99-24.1 255.76-20.93 257.54-17.75 257.54-13.55L257.54-13.55Q257.54-9.35 255.76-6.18 253.99-3 250.96-1.28 247.94 0.45 244.24 0.45L244.24 0.45Q239.49 0.45 236.69-2.4L236.69-2.4 236.69 9.7 227.19 9.7 227.19-27.1 236.24-27.1 236.24-24.4Q238.89-27.55 244.24-27.55L244.24-27.55ZM242.24-7.1Q244.74-7.1 246.34-8.83 247.94-10.55 247.94-13.55L247.94-13.55Q247.94-16.55 246.34-18.28 244.74-20 242.24-20L242.24-20Q239.74-20 238.14-18.28 236.54-16.55 236.54-13.55L236.54-13.55Q236.54-10.55 238.14-8.83 239.74-7.1 242.24-7.1L242.24-7.1Z" opacity="1" transform="matrix(1,0,0,1,0,0)" fill="#ffffff" class="slogan-text-1" data-fill-palette-color="secondary" id="text-1"></path></svg></g></svg></g></svg></g></svg></g><g transform="matrix(1,0,0,1,421.35136292660695,0)"><svg viewBox="0 0 214.48851839999998 214.48851839999998" height="214.48851839999998" width="214.48851839999998"><g><svg></svg></g><g id="icon-0"><svg viewBox="0 0 214.48851839999998 214.48851839999998" height="214.48851839999998" width="214.48851839999998"><g><rect width="195.02567136" height="195.02567136" x="9.731423519999993" y="9.731423519999993" fill="#f6f6f6" data-fill-palette-color="accent"></rect><rect width="195.02567136" height="195.02567136" x="-5.329070518200751e-15" y="-5.329070518200751e-15" fill="#f6f6f6" opacity="0.5" data-fill-palette-color="accent"></rect></g><g transform="matrix(1,0,0,1,32.42469506160603,27.80406719999999)"><svg viewBox="0 0 149.63912827678791 158.880384" height="158.880384" width="149.63912827678791"><g><svg xmlns="http://www.w3.org/2000/svg" xmlns:xlink="http://www.w3.org/1999/xlink" version="1.1" x="0" y="0" viewBox="7.89900016784668 5.300000190734863 84.20100402832031 89.4010009765625" enable-background="new 0 0 100 100" xml:space="preserve" height="158.880384" width="149.63912827678791" class="icon-s-0" data-fill-palette-color="background" id="s-0"><path fill-rule="evenodd" clip-rule="evenodd" d="M79.001 56.101v-2h4.949l2.6-24.801h-60.1l1.699 15.801h5.25v2h-5.049l1.9 17.6h47.5v2H30.45l0.301 3H82.3l1.451-13.6H79.001zM84.001 79.8c1.732 1.733 2.6 3.817 2.6 6.25 0 2.367-0.883 4.4-2.65 6.101-1.633 1.7-3.666 2.55-6.1 2.55s-4.5-0.85-6.201-2.55c-1.699-1.767-2.549-3.8-2.549-6.101 0-2.433 0.85-4.5 2.549-6.199 1.701-1.7 3.768-2.551 6.201-2.551C80.251 77.3 82.3 78.134 84.001 79.8zM75.149 83.351c-0.699 0.767-1.049 1.666-1.049 2.699 0 1 0.367 1.851 1.1 2.551 0.732 0.732 1.617 1.1 2.65 1.1s1.9-0.35 2.6-1.05c0.768-0.767 1.15-1.634 1.15-2.601 0-1.033-0.383-1.933-1.15-2.699-0.666-0.7-1.533-1.051-2.6-1.051S75.884 82.65 75.149 83.351zM86.751 74.7H26.2l-5.301-50.15h0.051L19.399 10.3h-11.5v-5H23.95l2 19h66.15L86.751 74.7zM59.899 58.8h-7.5V48.601h-7.648l11.35-14.65 11.299 14.65h-7.5V58.8zM27.149 86.05c0-2.433 0.852-4.5 2.551-6.199 1.699-1.7 3.768-2.551 6.199-2.551 2.5 0 4.551 0.851 6.15 2.551 1.701 1.699 2.551 3.767 2.551 6.199 0 2.434-0.85 4.467-2.551 6.101-1.6 1.7-3.65 2.55-6.15 2.55-2.432 0-4.5-0.85-6.199-2.55C28.001 90.384 27.149 88.351 27.149 86.05zM35.899 82.3c-1.066 0-1.967 0.351-2.699 1.051-0.699 0.767-1.051 1.666-1.051 2.699 0 1 0.367 1.851 1.102 2.551 0.732 0.732 1.615 1.1 2.648 1.1s1.885-0.35 2.551-1.05l0.1-0.05c0.701-0.7 1.051-1.551 1.051-2.551 0-1.066-0.367-1.967-1.1-2.699V83.3C37.833 82.634 36.968 82.3 35.899 82.3z" fill="#89b3c1" data-fill-palette-color="background"></path></svg></g></svg></g></svg></g></svg></g></svg></g><defs></defs></svg><rect width="395.52" height="133.4211666946253" fill="none" stroke="none" visibility="hidden"></rect></g></svg></g></svg>