<?xml version="1.0" encoding="utf-8"?>
<!-- Generator: Adobe Illustrator 26.1.0, SVG Export Plug-In . SVG Version: 6.00 Build 0)  -->
<svg version="1.1" id="Layer_1" xmlns="http://www.w3.org/2000/svg" xmlns:xlink="http://www.w3.org/1999/xlink" x="0px" y="0px"
	 viewBox="0 0 60 48" style="enable-background:new 0 0 60 48;" xml:space="preserve">
<style type="text/css">
	.st0{fill:#163683;fill-opacity:0.8;stroke:#333638;stroke-width:2;}
	.st1{fill:#333638;}
	.st2{fill:#FFFFFF;}
	.st3{opacity:0.25;fill:#FFFFFF;fill-opacity:0.8;stroke:#333638;stroke-width:2;enable-background:new    ;}
	.st4{opacity:0.25;fill:url(#SVGID_1_);fill-opacity:0.8;stroke:#333638;stroke-width:2;enable-background:new    ;}
</style>
<g id="Layer_2_00000009555387473864632680000014199983251829219471_">
	<g id="Layer_1-2">
		<path class="st0" d="M59,43.4L59,43.4c0,2-1.6,3.6-3.6,3.6c0,0-0.1,0-0.1,0H4.6c-2,0-3.6-1.6-3.6-3.5c0,0,0,0,0-0.1V12h58V43.4z
			 M59,4.6L59,4.6c0-2-1.6-3.6-3.6-3.6c0,0-0.1,0-0.1,0H4.6C2.7,1,1,2.6,1,4.5c0,0,0,0,0,0.1V12h58V4.6z"/>
		<ellipse class="st1" cx="8.1" cy="6.5" rx="1.5" ry="1.5"/>
		<ellipse class="st1" cx="14.2" cy="6.5" rx="1.5" ry="1.5"/>
		<ellipse class="st1" cx="20.3" cy="6.5" rx="1.5" ry="1.5"/>
		<path class="st2" d="M48.7,23.2h-3.8V35h-2.2V23.2h-3.8v-1.9h9.9V23.2z M38,35h-7.5V21.3h7.2v1.9h-5v3.9h4.6V29h-4.6v4H38V35z
			 M27.6,35h-2.4l-6.4-10.1c-0.2-0.3-0.3-0.5-0.4-0.8h0c0.1,0.6,0.1,1.3,0.1,1.9v9h-2.1V21.3h2.6l6.2,9.8c0.2,0.3,0.3,0.6,0.5,0.8
			l0,0c-0.1-0.6-0.1-1.2-0.1-1.9v-8.8h2.1L27.6,35z M14,33.9c0,0.7-0.6,1.3-1.3,1.3c0,0,0,0,0,0l0,0c-0.7,0-1.3-0.6-1.3-1.3
			c0,0,0,0,0,0l0,0c0-0.7,0.6-1.3,1.4-1.3C13.4,32.5,14,33.1,14,33.9z"/>
		<path class="st3" d="M59,43.4L59,43.4c0,2-1.6,3.6-3.6,3.6c0,0-0.1,0-0.1,0H4.6c-2,0-3.6-1.6-3.6-3.6c0,0,0,0,0,0V12h58V43.4z
			 M59,4.6L59,4.6c0-2-1.6-3.6-3.6-3.6c0,0-0.1,0-0.1,0H4.6C2.7,1,1,2.6,1,4.6c0,0,0,0,0,0V12h58V4.6z"/>
		<ellipse class="st1" cx="8.1" cy="6.5" rx="1.5" ry="1.5"/>
		<ellipse class="st1" cx="14.2" cy="6.5" rx="1.5" ry="1.5"/>
		<ellipse class="st1" cx="20.3" cy="6.5" rx="1.5" ry="1.5"/>
	</g>
</g>
<linearGradient id="SVGID_1_" gradientUnits="userSpaceOnUse" x1="-286" y1="3536.0488" x2="-228" y2="3536.0488" gradientTransform="matrix(1 0 0 1 287 -3512)">
	<stop  offset="0" style="stop-color:#2484C6;stop-opacity:0.1"/>
	<stop  offset="0.18" style="stop-color:#2484C6;stop-opacity:5.000000e-02"/>
	<stop  offset="0.48" style="stop-color:#2484C6;stop-opacity:1.000000e-02"/>
	<stop  offset="1" style="stop-color:#2484C6;stop-opacity:0"/>
</linearGradient>
<path class="st4" d="M59,43.5L59,43.5c0,2-1.6,3.6-3.6,3.6c0,0,0,0,0,0H4.6c-2,0-3.6-1.5-3.6-3.5V12h58V43.5z M59,4.6L59,4.6
	c0-2-1.6-3.6-3.6-3.6c0,0,0,0,0,0H4.6C2.6,1,1,2.6,1,4.6v7.5h58V4.6z"/>
</svg>
