<?xml version="1.0" encoding="utf-8"?>
<!-- Generator: Adobe Illustrator 26.1.0, SVG Export Plug-In . SVG Version: 6.00 Build 0)  -->
<svg version="1.1" id="Layer_1" xmlns="http://www.w3.org/2000/svg" xmlns:xlink="http://www.w3.org/1999/xlink" x="0px" y="0px"
	 viewBox="0 0 60 48" style="enable-background:new 0 0 60 48;" xml:space="preserve">
<style type="text/css">
	.st0{fill:#512BD4;}
	.st1{fill:#4D449B;fill-opacity:0.8;stroke:#333638;stroke-width:2;}
	.st2{fill:#333638;}
	.st3{fill:#FFFFFF;}
	.st4{fill:#72ACF1;}
	.st5{opacity:0.25;fill:url(#SVGID_1_);fill-opacity:0.8;stroke:#333638;stroke-width:2;enable-background:new    ;}
</style>
<g id="Layer_2_00000181077263124776439120000005999685686696612282_">
	<g id="Layer_1-2">
		<rect x="14.2" y="13.8" class="st0" width="31.399998" height="31.400002"/>
		<path class="st1" d="M59,43.400002L59,43.400002C59,45.400002,57.400002,47,55.400002,47h-0.099998H4.6c-2,0-3.6-1.599998-3.6-3.5
			l0,0V12h58V43.400002z M59,4.6L59,4.6c0-2-1.599998-3.6-3.599998-3.6h-0.099998H4.6C2.7,1,1,2.6,1,4.5c0,0,0,0,0,0.1V12h58V4.6z"
			/>
		<ellipse class="st2" cx="8.1" cy="6.5" rx="1.5" ry="1.5"/>
		<ellipse class="st2" cx="14.2" cy="6.5" rx="1.5" ry="1.5"/>
		<ellipse class="st2" cx="20.299999" cy="6.5" rx="1.5" ry="1.5"/>
	</g>
</g>
<path class="st3" d="M20.193172,20.335758h-2.116816l-0.727442,1.839451h-0.402433l2.095545-5.232481h0.231421l2.053005,5.232481
	h-0.410091L20.193172,20.335758z M18.208233,20.008196h1.864126l-0.709576-1.878588
	c-0.056721-0.147474-0.127905-0.351952-0.213554-0.613434c-0.058147,0.21059-0.128313,0.417675-0.21015,0.620239
	L18.208233,20.008196z"/>
<path class="st3" d="M24.944096,20.832632c0.015661,0.401518-0.162548,0.78611-0.479006,1.033733
	c-0.319338,0.254108-0.744743,0.381163-1.276217,0.381163c-0.636972,0-1.125338-0.070051-1.465094-0.21015v-0.363297
	c0.37549,0.159384,0.854212,0.239079,1.436167,0.239077c0.427673,0.000002,0.767998-0.098127,1.020973-0.29438
	c0.242887-0.181181,0.383022-0.468746,0.376057-0.771685c0.006535-0.172009-0.036905-0.342226-0.125069-0.490067
	c-0.10519-0.149128-0.244665-0.270805-0.406687-0.354786c-0.26479-0.13962-0.541557-0.255226-0.826988-0.34543
	c-0.532038-0.183207-0.900724-0.381731-1.106052-0.595566c-0.205328-0.213837-0.306858-0.49744-0.30459-0.850811
	c-0.007751-0.371708,0.1619-0.724907,0.456886-0.951204c0.305157-0.246166,0.697664-0.369251,1.177521-0.369251
	c0.473955-0.003029,0.943447,0.091681,1.379164,0.278215l-0.131876,0.31395c-0.391422-0.171677-0.813124-0.263653-1.240482-0.270557
	c-0.385132,0-0.691708,0.08905-0.919725,0.267155c-0.224756,0.172894-0.351639,0.444105-0.340322,0.727442
	c-0.006378,0.164431,0.029968,0.327707,0.105501,0.473902c0.083799,0.137856,0.200804,0.252518,0.340322,0.333517
	c0.261507,0.144041,0.53614,0.26284,0.820181,0.354788c0.319937,0.100946,0.627354,0.237957,0.916323,0.40839
	c0.183706,0.110842,0.337381,0.2651,0.447525,0.449226C24.898598,20.412289,24.948715,20.621262,24.944096,20.832632z"/>
<path class="st3" d="M28.81358,18.460573c0,0.503679-0.170162,0.889664-0.510487,1.157951s-0.825003,0.402435-1.454035,0.402433
	h-0.805716v2.15255h-0.363297v-5.209509h1.276215C28.194471,16.963999,28.81358,17.462856,28.81358,18.460573z M26.040789,19.707861
	h0.716383c0.587059-0.000002,1.012465-0.096992,1.276215-0.290977s0.394491-0.508217,0.392223-0.942698
	c0-0.401583-0.12365-0.699081-0.370953-0.8925c-0.247303-0.193417-0.631866-0.290127-1.153698-0.290125h-0.86017V19.707861z"/>
<path class="st3" d="M39.635033,22.150537h-2.942955v-5.203554h2.942951v0.718933h-2.09214v1.416599h1.956863v0.712126h-1.956863
	v1.633556h2.09214v0.72234H39.635033z"/>
<path class="st3" d="M42.555862,22.150537h-0.850811v-4.47356h-1.53146v-0.729994h3.913727v0.729994h-1.531456V22.150537z"/>
<path class="st3" d="M34.983654,16.918905v2.754072c0,0.192282,0,0.467945,0.017864,0.810822
	c0.017868,0.342876,0.02042,0.604076,0.024673,0.604076h-0.021267l-2.552433-4.16897h-1.04224v2.892754
	c0.29904,0.026884,0.589001,0.116772,0.850811,0.263752V19.44581c0-0.364996-0.050198-0.800611-0.085083-1.242182
	l-0.051899-0.263752h0.028076l2.558388,4.254049h1.038837v-5.275021H34.983654z"/>
<circle class="st4" cx="31.186487" cy="21.758314" r="1.254094"/>
<linearGradient id="SVGID_1_" gradientUnits="userSpaceOnUse" x1="0.999999" y1="-3564" x2="59" y2="-3564" gradientTransform="matrix(1 0 0 -1 0 -3540)">
	<stop  offset="0" style="stop-color:#2484C6;stop-opacity:0.1"/>
	<stop  offset="0.18" style="stop-color:#2484C6;stop-opacity:0.05"/>
	<stop  offset="0.48" style="stop-color:#2484C6;stop-opacity:0.01"/>
	<stop  offset="1" style="stop-color:#2484C6;stop-opacity:0"/>
</linearGradient>
<path class="st5" d="M59,43.450001L59,43.450001c0,2-1.599998,3.599998-3.599998,3.599998h-0.099998H4.599999
	c-2,0-3.6-1.599998-3.6-3.5c0,0,0,0,0-0.099998v-31.5h58V43.450001z M59,4.550001L59,4.550001c0-2-1.599998-3.6-3.599998-3.6
	h-0.099998H4.599999c-1.9,0-3.6,1.6-3.6,3.6c0,0,0,0,0,0.1v7.400001h58V4.550001z"/>
<g>
	<path class="st3" d="M18.967773,26.223633c0.439453-0.089844,1.069336-0.139648,1.668945-0.139648
		c0.929688,0,1.529297,0.169922,1.94873,0.549805c0.339844,0.299805,0.529785,0.759766,0.529785,1.279297
		c0,0.889648-0.55957,1.478516-1.269043,1.71875v0.030273c0.519531,0.179688,0.82959,0.65918,0.989258,1.359375
		c0.219727,0.939453,0.379883,1.588867,0.519531,1.848633h-0.899414c-0.109863-0.189453-0.259766-0.769531-0.449707-1.609375
		c-0.199707-0.929688-0.55957-1.279297-1.349121-1.308594h-0.819824v2.917969h-0.869141V26.223633z M19.836914,29.291992h0.889648
		c0.929688,0,1.519043-0.509766,1.519043-1.279297c0-0.869141-0.629395-1.249023-1.548828-1.258789
		c-0.419922,0-0.719727,0.040039-0.859863,0.080078V29.291992z"/>
	<path class="st3" d="M27.116211,32.870117l-0.069824-0.609375h-0.030273c-0.27002,0.379883-0.789551,0.719727-1.479004,0.719727
		c-0.979492,0-1.479492-0.69043-1.479492-1.389648c0-1.168945,1.039551-1.808594,2.908691-1.798828v-0.100586
		c0-0.399414-0.109863-1.119141-1.099609-1.119141c-0.449707,0-0.919434,0.140625-1.259277,0.360352l-0.199707-0.580078
		c0.399902-0.259766,0.979492-0.429688,1.588867-0.429688c1.479492,0,1.839355,1.009766,1.839355,1.978516v1.80957
		c0,0.419922,0.02002,0.829102,0.07959,1.15918H27.116211z M26.986328,30.401367
		c-0.959473-0.019531-2.048828,0.150391-2.048828,1.089844c0,0.569336,0.379395,0.838867,0.82959,0.838867
		c0.629395,0,1.029297-0.399414,1.168945-0.80957c0.030273-0.089844,0.050293-0.189453,0.050293-0.279297V30.401367z"/>
	<path class="st3" d="M28.70752,32.360352l2.188965-2.848633c0.209961-0.259766,0.40918-0.489258,0.629883-0.749023v-0.020508
		h-2.618652v-0.708984h3.687988l-0.009766,0.548828l-2.15918,2.808594c-0.199707,0.270508-0.399902,0.509766-0.619629,0.759766
		v0.020508h2.828613v0.699219H28.70752V32.360352z"/>
	<path class="st3" d="M37.845703,30.411133c0,1.789062-1.239258,2.569336-2.40918,2.569336
		c-1.308594,0-2.318359-0.959961-2.318359-2.489258c0-1.619141,1.05957-2.568359,2.398438-2.568359
		C36.90625,27.922852,37.845703,28.932617,37.845703,30.411133z M34.007812,30.461914
		c0,1.058594,0.609375,1.858398,1.46875,1.858398c0.839844,0,1.469727-0.789062,1.469727-1.878906
		c0-0.819336-0.410156-1.859375-1.449219-1.859375C34.457031,28.582031,34.007812,29.541992,34.007812,30.461914z"/>
	<path class="st3" d="M38.957031,29.541992c0-0.569336-0.009766-1.05957-0.040039-1.508789h0.769531l0.030273,0.949219h0.040039
		c0.219727-0.649414,0.749023-1.05957,1.338867-1.05957c0.100586,0,0.169922,0.009766,0.25,0.030273v0.829102
		c-0.089844-0.019531-0.179688-0.030273-0.299805-0.030273c-0.619141,0-1.05957,0.469727-1.179688,1.129883
		c-0.019531,0.120117-0.039062,0.259766-0.039062,0.410156v2.578125h-0.870117V29.541992z"/>
	<path class="st3" d="M18.967773,34.213867c0.419434-0.070312,0.969238-0.129883,1.668945-0.129883
		c0.859375,0,1.489258,0.200195,1.888672,0.55957c0.370117,0.319336,0.589844,0.80957,0.589844,1.40918
		c0,0.609375-0.179688,1.089844-0.519531,1.439453c-0.459961,0.489258-1.209473,0.739258-2.059082,0.739258
		c-0.259766,0-0.499512-0.009766-0.699707-0.05957v2.698242h-0.869141V34.213867z M19.836914,37.461914
		c0.189941,0.049805,0.430176,0.070312,0.719727,0.070312c1.049316,0,1.688965-0.509766,1.688965-1.439453
		c0-0.889648-0.629395-1.319336-1.588867-1.319336c-0.379883,0-0.669922,0.030273-0.819824,0.070312V37.461914z"/>
	<path class="st3" d="M26.67627,40.870117l-0.069824-0.609375h-0.030273c-0.269531,0.379883-0.789551,0.719727-1.479004,0.719727
		c-0.979492,0-1.479492-0.69043-1.479492-1.389648c0-1.168945,1.039551-1.808594,2.908691-1.798828v-0.100586
		c0-0.399414-0.109863-1.119141-1.099609-1.119141c-0.449707,0-0.919434,0.140625-1.259277,0.360352l-0.199707-0.580078
		c0.399902-0.259766,0.979492-0.429688,1.588867-0.429688c1.479492,0,1.839355,1.009766,1.839355,1.978516v1.80957
		c0,0.419922,0.02002,0.829102,0.07959,1.15918H26.67627z M26.546387,38.401367
		c-0.959473-0.019531-2.048828,0.150391-2.048828,1.089844c0,0.569336,0.379395,0.838867,0.82959,0.838867
		c0.629395,0,1.029297-0.399414,1.168945-0.80957c0.030273-0.089844,0.050293-0.189453,0.050293-0.279297V38.401367z"/>
	<path class="st3" d="M32.985352,36.033203c-0.020508,0.349609-0.040039,0.739258-0.040039,1.329102v2.808594
		c0,1.109375-0.219727,1.789062-0.689453,2.208008c-0.469727,0.44043-1.149414,0.580078-1.759277,0.580078
		c-0.57959,0-1.219238-0.139648-1.608887-0.399414l0.219727-0.669922c0.319824,0.200195,0.819336,0.379883,1.418945,0.379883
		c0.899414,0,1.55957-0.469727,1.55957-1.689453v-0.539062H32.06543c-0.269531,0.449219-0.789062,0.80957-1.539062,0.80957
		c-1.199219,0-2.058594-1.019531-2.058594-2.359375c0-1.638672,1.069336-2.568359,2.178711-2.568359
		c0.838867,0,1.298828,0.439453,1.508789,0.839844h0.020508l0.040039-0.729492H32.985352z M32.076172,37.941406
		c0-0.149414-0.010742-0.279297-0.050781-0.399414c-0.15918-0.509766-0.589844-0.929688-1.229004-0.929688
		c-0.839355,0-1.438965,0.709961-1.438965,1.829102c0,0.949219,0.479492,1.739258,1.429199,1.739258
		c0.539551,0,1.028809-0.339844,1.219238-0.899414c0.049805-0.150391,0.070312-0.320312,0.070312-0.469727V37.941406z"/>
	<path class="st3" d="M34.897461,38.611328c0.019531,1.189453,0.779297,1.678711,1.658203,1.678711
		c0.629883,0,1.009766-0.109375,1.339844-0.249023l0.149414,0.628906c-0.30957,0.140625-0.838867,0.299805-1.608398,0.299805
		c-1.489258,0-2.378906-0.979492-2.378906-2.438477s0.859375-2.608398,2.268555-2.608398
		c1.579102,0,1.999023,1.389648,1.999023,2.27832c0,0.180664-0.019531,0.320312-0.030273,0.410156H34.897461z M37.475586,37.981445
		c0.009766-0.55957-0.229492-1.428711-1.219727-1.428711c-0.888672,0-1.279297,0.819336-1.348633,1.428711H37.475586z"/>
	<path class="st3" d="M39.296875,39.970703c0.259766,0.169922,0.719727,0.349609,1.15918,0.349609
		c0.639648,0,0.94043-0.319336,0.94043-0.719727c0-0.419922-0.25-0.649414-0.900391-0.889648
		c-0.869141-0.30957-1.279297-0.789062-1.279297-1.369141c0-0.779297,0.629883-1.418945,1.669922-1.418945
		c0.489258,0,0.918945,0.139648,1.188477,0.299805l-0.219727,0.639648c-0.189453-0.120117-0.539062-0.280273-0.989258-0.280273
		c-0.519531,0-0.80957,0.299805-0.80957,0.660156c0,0.399414,0.290039,0.580078,0.919922,0.819336
		c0.838867,0.320312,1.268555,0.739258,1.268555,1.458984c0,0.849609-0.65918,1.449219-1.808594,1.449219
		c-0.529297,0-1.019531-0.129883-1.359375-0.329102L39.296875,39.970703z"/>
</g>
</svg>
