<?xml version="1.0" encoding="utf-8"?>
<!-- Generator: Adobe Illustrator 26.1.0, SVG Export Plug-In . SVG Version: 6.00 Build 0)  -->
<svg version="1.1" id="Layer_1" xmlns="http://www.w3.org/2000/svg" xmlns:xlink="http://www.w3.org/1999/xlink" x="0px" y="0px"
	 viewBox="0 0 60 48" style="enable-background:new 0 0 60 48;" xml:space="preserve">
<style type="text/css">
	.st0{fill:#F9CEB2;fill-opacity:0.8;stroke:#333638;stroke-width:2;}
	.st1{fill:#333638;}
	.st2{fill:#FF6600;}
	.st3{opacity:0.25;fill:url(#SVGID_1_);fill-opacity:0.8;stroke:#333638;stroke-width:2;enable-background:new    ;}
</style>
<path class="st0" d="M59,43.4L59,43.4c0,2-1.6,3.6-3.6,3.6l0,0H4.6c-2,0-3.6-1.6-3.6-3.6l0,0V12h58V43.4z M59,4.6L59,4.6
	c0-2-1.6-3.6-3.6-3.6l0,0H4.6C2.7,1,1,2.6,1,4.6l0,0V12h58V4.6z"/>
<ellipse class="st1" cx="8.1" cy="6.5" rx="1.5" ry="1.5"/>
<ellipse class="st1" cx="14.2" cy="6.5" rx="1.5" ry="1.5"/>
<ellipse class="st1" cx="20.3" cy="6.5" rx="1.5" ry="1.5"/>
<path class="st2" d="M39.5,27.3h-6.9c-0.3,0-0.6-0.3-0.6-0.6v-7.2c0-0.5-0.4-1-1-1h-2.5c-0.5,0-1,0.4-1,1v7.1c0,0.4-0.3,0.7-0.7,0.7
	h-2.2c-0.4,0-0.7-0.3-0.7-0.7v-7.1c0-0.5-0.4-1-1-1h-2.5c-0.5,0-1,0.4-1,1v20.1c0,0.5,0.4,0.8,0.9,0.8h19c0.5,0,0.8-0.4,0.8-0.8
	V28.2C40.3,27.7,40,27.3,39.5,27.3z M36.3,34.8c0,0.6-0.5,1.1-1.1,1.1h-1.9c-0.6,0-1.1-0.5-1.1-1.1v-1.9c0-0.6,0.5-1.1,1.1-1.1h1.9
	c0.6,0,1.1,0.5,1.1,1.1V34.8L36.3,34.8z"/>
<linearGradient id="SVGID_1_" gradientUnits="userSpaceOnUse" x1="1" y1="2896.05" x2="59" y2="2896.05" gradientTransform="matrix(1 0 0 1 0 -2872)">
	<stop  offset="0" style="stop-color:#2484C6;stop-opacity:0.1"/>
	<stop  offset="0.18" style="stop-color:#2484C6;stop-opacity:5.000000e-02"/>
	<stop  offset="0.48" style="stop-color:#2484C6;stop-opacity:1.000000e-02"/>
	<stop  offset="1" style="stop-color:#2484C6;stop-opacity:0"/>
</linearGradient>
<path class="st3" d="M59,43.5L59,43.5c0,2-1.6,3.6-3.6,3.6h-0.1H4.6c-2,0-3.6-1.6-3.6-3.5c0,0,0,0,0-0.1V12h58V43.5z M59,4.6L59,4.6
	c0-2-1.6-3.6-3.6-3.6h-0.1H4.6C2.7,1,1,2.6,1,4.6c0,0,0,0,0,0.1v7.4h58V4.6z"/>
</svg>
