<?xml version="1.0" encoding="utf-8"?>
<!-- Generator: Adobe Illustrator 26.1.0, SVG Export Plug-In . SVG Version: 6.00 Build 0)  -->
<svg version="1.1" id="Layer_1" xmlns="http://www.w3.org/2000/svg" xmlns:xlink="http://www.w3.org/1999/xlink" x="0px" y="0px"
	 viewBox="0 0 60 48" style="enable-background:new 0 0 60 48;" xml:space="preserve">
<style type="text/css">
	.st0{fill:#512BD4;}
	.st1{fill:#4D449B;fill-opacity:0.8;stroke:#333638;stroke-width:2;}
	.st2{fill:#333638;}
	.st3{fill:#FFFFFF;}
	.st4{fill:#72ACF1;}
	.st5{opacity:0.25;fill:url(#SVGID_1_);fill-opacity:0.8;stroke:#333638;stroke-width:2;enable-background:new    ;}
</style>
<g id="Layer_2_00000181077263124776439120000005999685686696612282_">
	<g id="Layer_1-2">
		<rect x="14.2" y="13.8" class="st0" width="31.399998" height="31.400002"/>
		<path class="st1" d="M59,43.400002L59,43.400002C59,45.400002,57.400002,47,55.400002,47h-0.099998H4.6c-2,0-3.6-1.599998-3.6-3.5
			l0,0V12h58V43.400002z M59,4.6L59,4.6c0-2-1.599998-3.6-3.599998-3.6h-0.099998H4.6C2.7,1,1,2.6,1,4.5c0,0,0,0,0,0.1V12h58V4.6z"
			/>
		<ellipse class="st2" cx="8.1" cy="6.5" rx="1.5" ry="1.5"/>
		<ellipse class="st2" cx="14.2" cy="6.5" rx="1.5" ry="1.5"/>
		<ellipse class="st2" cx="20.299999" cy="6.5" rx="1.5" ry="1.5"/>
	</g>
</g>
<path class="st3" d="M21.391964,38.589081l-3.811628-9.443993h-0.056154c0.037437,0.577984,0.056154,1.170147,0.056154,1.776493
	v7.664944h-0.685753V28.364044h1.106052l3.625301,8.996464h0.041691l3.616793-8.996464h1.080528v10.225037h-0.720636v-7.74918
	c0-0.540548,0.02836-1.100096,0.085081-1.678648h-0.056154l-3.828644,9.427828h-0.454332H21.391964z"/>
<path class="st3" d="M35.295902,28.364044h0.775936l-3.828644,10.225037h-0.629599l-3.811628-10.225035h0.765728l2.573702,6.958776
	c0.391373,1.049328,0.654842,1.837181,0.790403,2.363548c0.093021-0.3494,0.277081-0.892502,0.552174-1.629299L35.295902,28.364044z
	"/>
<path class="st3" d="M41.88372,28.860918c-1.282455,0.000002-2.291798,0.410376-3.02803,1.231123
	s-1.104919,1.944386-1.106052,3.370907c0,1.459427,0.347412,2.593838,1.04224,3.40324
	c0.694828,0.809406,1.687443,1.212688,2.977837,1.209854c0.799774,0.008286,1.596333-0.102394,2.363548-0.328411v0.629597
	c-0.676109,0.237659-1.520115,0.356491-2.532009,0.356491c-1.436169,0-2.566895-0.463978-3.392181-1.391926
	s-1.236794-2.226284-1.234524-3.895008c0-1.039692,0.197105-1.955729,0.591312-2.748116
	c0.371357-0.768057,0.963963-1.407476,1.701622-1.836048c0.73737-0.431078,1.596405-0.646616,2.577103-0.646616
	c0.997719,0,1.890499,0.186609,2.678349,0.559832l-0.28672,0.643213C43.506924,29.050398,42.70089,28.859165,41.88372,28.860918z"/>
<path class="st3" d="M20.193172,23.335758h-2.116816l-0.727442,1.839451h-0.402433l2.095545-5.232481h0.231421l2.053005,5.232481
	h-0.410091L20.193172,23.335758z M18.208233,23.008196h1.864126l-0.709576-1.878588
	c-0.056721-0.147474-0.127905-0.351952-0.213554-0.613434c-0.058147,0.21059-0.128313,0.417675-0.21015,0.620239
	L18.208233,23.008196z"/>
<path class="st3" d="M24.944096,23.832632c0.015661,0.401518-0.162548,0.78611-0.479006,1.033733
	c-0.319338,0.254108-0.744743,0.381163-1.276217,0.381163c-0.636972,0-1.125338-0.070051-1.465094-0.21015v-0.363297
	c0.37549,0.159384,0.854212,0.239079,1.436167,0.239077c0.427673,0.000002,0.767998-0.098127,1.020973-0.29438
	c0.242887-0.181181,0.383022-0.468746,0.376057-0.771685c0.006535-0.172009-0.036905-0.342226-0.125069-0.490067
	c-0.10519-0.149128-0.244665-0.270805-0.406687-0.354786c-0.26479-0.13962-0.541557-0.255226-0.826988-0.34543
	c-0.532038-0.183207-0.900724-0.381731-1.106052-0.595566c-0.205328-0.213837-0.306858-0.49744-0.30459-0.850811
	c-0.007751-0.371708,0.1619-0.724907,0.456886-0.951204c0.305157-0.246166,0.697664-0.369251,1.177521-0.369251
	c0.473955-0.003029,0.943447,0.091681,1.379164,0.278215l-0.131876,0.31395c-0.391422-0.171677-0.813124-0.263653-1.240482-0.270557
	c-0.385132,0-0.691708,0.08905-0.919725,0.267155c-0.224756,0.172894-0.351639,0.444105-0.340322,0.727442
	c-0.006378,0.164431,0.029968,0.327707,0.105501,0.473902c0.083799,0.137856,0.200804,0.252518,0.340322,0.333517
	c0.261507,0.144041,0.53614,0.26284,0.820181,0.354788c0.319937,0.100946,0.627354,0.237957,0.916323,0.40839
	c0.183706,0.110842,0.337381,0.2651,0.447525,0.449226C24.898598,23.412289,24.948715,23.621262,24.944096,23.832632z"/>
<path class="st3" d="M28.81358,21.460573c0,0.503679-0.170162,0.889664-0.510487,1.157951s-0.825003,0.402435-1.454035,0.402433
	h-0.805716v2.15255h-0.363297v-5.209509h1.276215C28.194471,19.963999,28.81358,20.462856,28.81358,21.460573z M26.040789,22.707861
	h0.716383c0.587059-0.000002,1.012465-0.096992,1.276215-0.290977s0.394491-0.508217,0.392223-0.942698
	c0-0.401583-0.12365-0.699081-0.370953-0.8925c-0.247303-0.193417-0.631866-0.290127-1.153698-0.290125h-0.86017V22.707861z"/>
<path class="st3" d="M39.635033,25.150537h-2.942955v-5.203554h2.942951v0.718933h-2.09214v1.416599h1.956863v0.712126h-1.956863
	v1.633556h2.09214v0.72234H39.635033z"/>
<path class="st3" d="M42.555862,25.150537h-0.850811v-4.47356h-1.53146v-0.729994h3.913727v0.729994h-1.531456V25.150537z"/>
<path class="st3" d="M34.983654,19.918905v2.754072c0,0.192282,0,0.467945,0.017864,0.810822
	c0.017868,0.342876,0.02042,0.604076,0.024673,0.604076h-0.021267l-2.552433-4.16897h-1.04224v2.892754
	c0.29904,0.026884,0.589001,0.116772,0.850811,0.263752V22.44581c0-0.364996-0.050198-0.800611-0.085083-1.242182
	l-0.051899-0.263752h0.028076l2.558388,4.254049h1.038837v-5.275021H34.983654z"/>
<circle class="st4" cx="31.186487" cy="24.758314" r="1.254094"/>
<linearGradient id="SVGID_1_" gradientUnits="userSpaceOnUse" x1="0.9" y1="3614.050049" x2="58.900002" y2="3614.050049" gradientTransform="matrix(1 0 0 1 0 -3590)">
	<stop  offset="0" style="stop-color:#2484C6;stop-opacity:0.1"/>
	<stop  offset="0.18" style="stop-color:#2484C6;stop-opacity:0.05"/>
	<stop  offset="0.48" style="stop-color:#2484C6;stop-opacity:0.01"/>
	<stop  offset="1" style="stop-color:#2484C6;stop-opacity:0"/>
</linearGradient>
<path class="st5" d="M58.900002,43.5L58.900002,43.5c0,2-1.599998,3.599998-3.599998,3.599998h-0.099998H4.5
	c-2,0-3.6-1.599998-3.6-3.5c0,0,0,0,0-0.099998V12h58V43.5z M58.900002,4.6L58.900002,4.6c0-2-1.599998-3.6-3.599998-3.6h-0.099998
	H4.5C2.6,1,0.9,2.6,0.9,4.6c0,0,0,0,0,0.1V12.1h58V4.6z"/>
</svg>
