<?xml version="1.0" encoding="utf-8"?>
<!-- Generator: Adobe Illustrator 26.1.0, SVG Export Plug-In . SVG Version: 6.00 Build 0)  -->
<svg version="1.1" id="Layer_1" xmlns="http://www.w3.org/2000/svg" xmlns:xlink="http://www.w3.org/1999/xlink" x="0px" y="0px"
	 viewBox="0 0 60 48" style="enable-background:new 0 0 60 48;" xml:space="preserve">
<style type="text/css">
	.st0{fill:#D3ECF2;fill-opacity:0.8;stroke:#333638;stroke-width:2;}
	.st1{fill:#59B4D9;}
	.st2{fill:#333638;}
	.st3{opacity:0.25;fill:url(#SVGID_1_);fill-opacity:0.8;stroke:#333638;stroke-width:2;enable-background:new    ;}
</style>
<g id="Layer_2_00000173873056642197765260000012896613268304338841_">
	<g id="Layer_1-2">
		<path class="st0" d="M59,43.4L59,43.4c0,2-1.6,3.6-3.6,3.6h-0.1H4.6c-2,0-3.6-1.6-3.6-3.5c0,0,0,0,0-0.1V12h58V43.4z M59,4.6
			L59,4.6c0-2-1.6-3.6-3.6-3.6h-0.1H4.6C2.7,1,1,2.6,1,4.5c0,0,0,0,0,0.1V12h58V4.6z"/>
		<path class="st1" d="M27.5,35.6l1.4-3.5H32c1.1,0,2.1-0.8,2.3-1.9c0.2-1.3-0.7-2.4-1.9-2.6c-0.1,0-0.2,0-0.3,0H21.8l5.7-5.7v2.2
			h4.6c2.7,0,5.4,2.2,5.7,4.9c0.5,3.1-1.7,6-4.8,6.5c-0.2,0-0.4,0.1-0.6,0.1l4.7,4.7c5.7-4,7.2-11.9,3.2-17.6s-11.9-7.2-17.6-3.2
			s-7.2,11.9-3.2,17.6c2.4,3.4,6.3,5.4,10.4,5.4c1.3,0,2.7-0.2,4-0.7L27.5,35.6z"/>
		<ellipse class="st2" cx="8.1" cy="6.5" rx="1.5" ry="1.5"/>
		<ellipse class="st2" cx="14.2" cy="6.5" rx="1.5" ry="1.5"/>
		<ellipse class="st2" cx="20.3" cy="6.5" rx="1.5" ry="1.5"/>
	</g>
</g>
<linearGradient id="SVGID_1_" gradientUnits="userSpaceOnUse" x1="1" y1="2896.05" x2="59" y2="2896.05" gradientTransform="matrix(1 0 0 1 0 -2872)">
	<stop  offset="0" style="stop-color:#2484C6;stop-opacity:0.1"/>
	<stop  offset="0.18" style="stop-color:#2484C6;stop-opacity:5.000000e-02"/>
	<stop  offset="0.48" style="stop-color:#2484C6;stop-opacity:1.000000e-02"/>
	<stop  offset="1" style="stop-color:#2484C6;stop-opacity:0"/>
</linearGradient>
<path class="st3" d="M59,43.5L59,43.5c0,2-1.6,3.6-3.6,3.6h-0.1H4.6c-2,0-3.6-1.6-3.6-3.5c0,0,0,0,0-0.1V12h58V43.5z M59,4.6L59,4.6
	c0-2-1.6-3.6-3.6-3.6h-0.1H4.6C2.7,1,1,2.6,1,4.6c0,0,0,0,0,0.1v7.4h58V4.6z"/>
</svg>
