<?xml version="1.0" encoding="utf-8"?>
<!-- Generator: Adobe Illustrator 26.1.0, SVG Export Plug-In . SVG Version: 6.00 Build 0)  -->
<svg version="1.1" id="Layer_1" xmlns="http://www.w3.org/2000/svg" xmlns:xlink="http://www.w3.org/1999/xlink" x="0px" y="0px"
	 viewBox="0 0 60 48" style="enable-background:new 0 0 60 48;" xml:space="preserve">
<style type="text/css">
	.st0{fill:#512BD4;}
	.st1{fill:#4D449B;fill-opacity:0.8;stroke:#333638;stroke-width:2;}
	.st2{fill:#333638;}
	.st3{fill:#FFFFFF;}
	.st4{fill:#72ACF1;}
	.st5{opacity:0.25;fill:url(#SVGID_1_);fill-opacity:0.8;stroke:#333638;stroke-width:2;enable-background:new    ;}
</style>
<g id="Layer_2_00000181077263124776439120000005999685686696612282_">
	<g id="Layer_1-2">
		<rect x="14.2" y="13.8" class="st0" width="31.4" height="31.4"/>
		<path class="st1" d="M59,43.4L59,43.4c0,2-1.6,3.6-3.6,3.6c0,0-0.1,0-0.1,0H4.6c-2,0-3.6-1.6-3.6-3.5c0,0,0,0,0,0V12h58V43.4z
			 M59,4.6L59,4.6c0-2-1.6-3.6-3.6-3.6c0,0-0.1,0-0.1,0H4.6C2.7,1,1,2.6,1,4.5c0,0,0,0,0,0.1V12h58V4.6z"/>
		<ellipse class="st2" cx="8.1" cy="6.5" rx="1.5" ry="1.5"/>
		<ellipse class="st2" cx="14.2" cy="6.5" rx="1.5" ry="1.5"/>
		<ellipse class="st2" cx="20.3" cy="6.5" rx="1.5" ry="1.5"/>
	</g>
</g>
<g>
	<path class="st3" d="M21.2,38.8l-3.6-9h0c0,0.5,0,1.1,0,1.7v7.3h-0.6V29h1l3.5,8.6h0l3.5-8.6h1v9.7h-0.7v-7.4c0-0.5,0-1,0.1-1.6h0
		l-3.6,9L21.2,38.8L21.2,38.8z"/>
	<path class="st3" d="M34.5,29h0.7l-3.6,9.7H31L27.3,29H28l2.5,6.6c0.4,1,0.6,1.8,0.8,2.2c0.1-0.3,0.3-0.8,0.5-1.5L34.5,29z"/>
	<path class="st3" d="M40.7,29.5c-1.2,0-2.2,0.4-2.9,1.2s-1,1.9-1,3.2c0,1.4,0.3,2.5,1,3.2c0.7,0.8,1.6,1.2,2.8,1.2
		c0.8,0,1.5-0.1,2.2-0.3v0.6c-0.6,0.2-1.5,0.3-2.4,0.3c-1.4,0-2.5-0.4-3.2-1.3c-0.8-0.9-1.2-2.1-1.2-3.7c0-1,0.2-1.9,0.6-2.6
		c0.3-0.7,0.9-1.3,1.6-1.8s1.5-0.6,2.5-0.6c1,0,1.8,0.2,2.5,0.5L43,30C42.3,29.7,41.5,29.5,40.7,29.5z"/>
	<path class="st3" d="M20.1,24.2h-2L17.3,26H17l2-5h0.2l2,5h-0.4L20.1,24.2z M18.2,23.9h1.8l-0.7-1.8c0-0.1-0.1-0.3-0.2-0.6
		c-0.1,0.2-0.1,0.4-0.2,0.6L18.2,23.9z"/>
	<path class="st3" d="M24.6,24.7c0,0.4-0.1,0.8-0.5,1c-0.3,0.2-0.7,0.4-1.2,0.4c-0.6,0-1.1-0.1-1.4-0.2v-0.4
		c0.4,0.1,0.8,0.2,1.4,0.2c0.4,0,0.7-0.1,1-0.3c0.2-0.2,0.4-0.5,0.4-0.7c0-0.2,0-0.3-0.1-0.5c-0.1-0.1-0.2-0.3-0.4-0.3
		c-0.2-0.1-0.5-0.2-0.8-0.3c-0.5-0.2-0.9-0.4-1-0.6c-0.2-0.2-0.3-0.5-0.3-0.8c0-0.4,0.1-0.7,0.4-0.9c0.3-0.2,0.7-0.4,1.1-0.4
		s0.9,0.1,1.3,0.3l-0.1,0.3c-0.4-0.2-0.8-0.2-1.2-0.3c-0.4,0-0.7,0.1-0.9,0.2c-0.2,0.2-0.3,0.4-0.3,0.7c0,0.2,0,0.3,0.1,0.5
		c0.1,0.1,0.2,0.2,0.3,0.3c0.2,0.1,0.5,0.2,0.8,0.3c0.3,0.1,0.6,0.2,0.9,0.4c0.2,0.1,0.3,0.2,0.4,0.4C24.5,24.3,24.6,24.5,24.6,24.7
		z"/>
	<path class="st3" d="M28.3,22.4c0,0.5-0.2,0.9-0.5,1.1c-0.3,0.3-0.8,0.4-1.4,0.4h-0.8v2h-0.4v-5h1.2C27.7,21,28.3,21.5,28.3,22.4z
		 M25.6,23.6h0.7c0.6,0,1-0.1,1.2-0.3s0.4-0.5,0.4-0.9c0-0.4-0.1-0.7-0.4-0.9c-0.2-0.2-0.6-0.3-1.1-0.3h-0.8V23.6z"/>
	<path class="st3" d="M38.6,26h-2.8v-5h2.8v0.7h-2V23h1.9v0.7h-1.9v1.6h2V26L38.6,26z"/>
	<path class="st3" d="M41.4,26h-0.8v-4.3h-1.5V21h3.7v0.7h-1.5V26z"/>
	<path class="st3" d="M34.2,21v2.6c0,0.2,0,0.5,0,0.8c0,0.3,0,0.6,0,0.6h0l-2.4-4h-1v2.8c0.3,0,0.6,0.1,0.8,0.2v-0.6
		c0-0.4,0-0.8-0.1-1.2l0-0.2h0l2.4,4.1h1v-5H34.2z"/>
	<circle class="st4" cx="30.5" cy="25.6" r="1.2"/>
</g>
<linearGradient id="SVGID_1_" gradientUnits="userSpaceOnUse" x1="0.93" y1="-2846.0496" x2="58.93" y2="-2846.0496" gradientTransform="matrix(1 0 0 -1 0 -2822)">
	<stop  offset="0" style="stop-color:#2484C6;stop-opacity:0.1"/>
	<stop  offset="0.18" style="stop-color:#2484C6;stop-opacity:5.000000e-02"/>
	<stop  offset="0.48" style="stop-color:#2484C6;stop-opacity:1.000000e-02"/>
	<stop  offset="1" style="stop-color:#2484C6;stop-opacity:0"/>
</linearGradient>
<path class="st5" d="M58.9,43.5L58.9,43.5c0,2-1.6,3.6-3.6,3.6h-0.1H4.5c-2,0-3.6-1.6-3.6-3.5c0,0,0,0,0-0.1V12h58V43.5z M58.9,4.6
	L58.9,4.6c0-2-1.6-3.6-3.6-3.6h-0.1H4.5C2.6,1,0.9,2.6,0.9,4.6c0,0,0,0,0,0.1v7.4h58V4.6z"/>
</svg>
