<?xml version="1.0" encoding="utf-8"?>
<!-- Generator: Adobe Illustrator 26.1.0, SVG Export Plug-In . SVG Version: 6.00 Build 0)  -->
<svg version="1.1" id="Layer_1" xmlns="http://www.w3.org/2000/svg" xmlns:xlink="http://www.w3.org/1999/xlink" x="0px" y="0px"
	 viewBox="0 0 60 48" style="enable-background:new 0 0 60 48;" xml:space="preserve">
<style type="text/css">
	.st0{fill:#512BD4;}
	.st1{fill:#4D449B;fill-opacity:0.8;stroke:#333638;stroke-width:2;}
	.st2{fill:#333638;}
	.st3{fill:#FFFFFF;fill-opacity:0;}
	.st4{fill:#FFFFFF;}
	.st5{fill:#72ACF1;}
</style>
<g id="Layer_2_00000181077263124776439120000005999685686696612282_">
	<g id="Layer_1-2">
		<rect x="14.24" y="13.81" class="st0" width="31.38" height="31.38"/>
		<path class="st1" d="M59,43.41L59,43.41c0,1.98-1.61,3.59-3.59,3.59c-0.03,0-0.07,0-0.1,0H4.64C2.66,47.03,1.03,45.44,1,43.46
			c0-0.02,0-0.03,0-0.05V12h58V43.41z M59,4.6L59,4.6C59.01,2.62,57.4,1,55.42,1c-0.04,0-0.07,0-0.11,0H4.64
			C2.66,0.97,1.03,2.56,1,4.54c0,0.02,0,0.03,0,0.05V12h58V4.6z"/>
		<ellipse class="st2" cx="8.14" cy="6.5" rx="1.53" ry="1.5"/>
		<ellipse class="st2" cx="14.24" cy="6.5" rx="1.53" ry="1.5"/>
		<ellipse class="st2" cx="20.34" cy="6.5" rx="1.53" ry="1.5"/>
		<path class="st3" d="M59,43.41L59,43.41c0,1.98-1.61,3.59-3.59,3.59c-0.03,0-0.07,0-0.1,0H4.64C2.66,47.03,1.03,45.44,1,43.46
			c0-0.02,0-0.03,0-0.05V12h58V43.41z M59,4.6L59,4.6C59.01,2.62,57.4,1,55.42,1c-0.04,0-0.07,0-0.11,0H4.64
			C2.66,0.97,1.03,2.56,1,4.54c0,0.02,0,0.03,0,0.05V12h58V4.6z"/>
	</g>
</g>
<g>
	<path class="st4" d="M21.2,38.78l-3.63-9.01h-0.05c0.04,0.55,0.05,1.12,0.05,1.69v7.31h-0.65v-9.75h1.05l3.46,8.58h0.04l3.45-8.58
		h1.03v9.75h-0.69v-7.39c0-0.52,0.03-1.05,0.08-1.6h-0.05l-3.65,8.99H21.2V38.78z"/>
	<path class="st4" d="M34.46,29.03h0.74l-3.65,9.75h-0.6l-3.63-9.75h0.73l2.45,6.64c0.37,1,0.62,1.75,0.75,2.25
		c0.09-0.33,0.26-0.85,0.53-1.55L34.46,29.03z"/>
	<path class="st4" d="M40.74,29.5c-1.22,0-2.19,0.39-2.89,1.17s-1.05,1.85-1.05,3.21c0,1.39,0.33,2.47,0.99,3.25
		c0.66,0.77,1.61,1.16,2.84,1.15c0.76,0.01,1.52-0.1,2.25-0.31v0.6c-0.64,0.23-1.45,0.34-2.41,0.34c-1.37,0-2.45-0.44-3.23-1.33
		c-0.79-0.88-1.18-2.12-1.18-3.71c0-0.99,0.19-1.86,0.56-2.62c0.35-0.73,0.92-1.34,1.62-1.75s1.52-0.62,2.46-0.62
		c0.95,0,1.8,0.18,2.55,0.53l-0.27,0.61C42.29,29.68,41.52,29.5,40.74,29.5z"/>
	<path class="st4" d="M20.06,24.23h-2.02l-0.69,1.75h-0.38l2-4.99h0.22l1.96,4.99h-0.39L20.06,24.23z M18.16,23.92h1.78l-0.68-1.79
		c-0.05-0.14-0.12-0.34-0.2-0.58c-0.06,0.2-0.12,0.4-0.2,0.59L18.16,23.92z"/>
	<path class="st4" d="M24.59,24.71c0.01,0.38-0.15,0.75-0.46,0.99c-0.3,0.24-0.71,0.36-1.22,0.36c-0.61,0-1.07-0.07-1.4-0.2v-0.35
		c0.36,0.15,0.81,0.23,1.37,0.23c0.41,0,0.73-0.09,0.97-0.28c0.23-0.17,0.37-0.45,0.36-0.74c0.01-0.16-0.04-0.33-0.12-0.47
		c-0.1-0.14-0.23-0.26-0.39-0.34c-0.25-0.13-0.52-0.24-0.79-0.33c-0.51-0.17-0.86-0.36-1.05-0.57c-0.2-0.2-0.29-0.47-0.29-0.81
		c-0.01-0.35,0.15-0.69,0.44-0.91c0.29-0.23,0.67-0.35,1.12-0.35s0.9,0.09,1.32,0.27l-0.13,0.3c-0.37-0.16-0.78-0.25-1.18-0.26
		c-0.37,0-0.66,0.08-0.88,0.25c-0.21,0.16-0.34,0.42-0.32,0.69c-0.01,0.16,0.03,0.31,0.1,0.45c0.08,0.13,0.19,0.24,0.32,0.32
		c0.25,0.14,0.51,0.25,0.78,0.34c0.31,0.1,0.6,0.23,0.87,0.39c0.18,0.11,0.32,0.25,0.43,0.43C24.54,24.3,24.59,24.5,24.59,24.71z"/>
	<path class="st4" d="M28.28,22.44c0,0.48-0.16,0.85-0.49,1.1c-0.32,0.26-0.79,0.38-1.39,0.38h-0.77v2.05h-0.35V21h1.22
		C27.68,21.02,28.28,21.49,28.28,22.44z M25.63,23.63h0.68c0.56,0,0.97-0.09,1.22-0.28s0.38-0.48,0.37-0.9
		c0-0.38-0.12-0.67-0.35-0.85c-0.24-0.18-0.6-0.28-1.1-0.28h-0.82V23.63z"/>
	<path class="st4" d="M38.59,25.96h-2.81V21h2.81v0.69H36.6v1.35h1.87v0.68H36.6v1.56h1.99V25.96L38.59,25.96z"/>
	<path class="st4" d="M41.38,25.96h-0.81V21.7h-1.46V21h3.73v0.7h-1.46V25.96z"/>
	<path class="st4" d="M34.16,20.97v2.63c0,0.18,0,0.45,0.02,0.77c0.02,0.33,0.02,0.58,0.02,0.58h-0.02l-2.43-3.98h-0.99v2.76
		c0.29,0.03,0.56,0.11,0.81,0.25v-0.6c0-0.35-0.05-0.76-0.08-1.18l-0.05-0.25h0.03L33.9,26h0.99v-5.03H34.16z"/>
	<circle class="st5" cx="30.54" cy="25.59" r="1.2"/>
</g>
</svg>
