<?xml version="1.0" encoding="utf-8"?>
<!-- Generator: Adobe Illustrator 26.1.0, SVG Export Plug-In . SVG Version: 6.00 Build 0)  -->
<svg version="1.1" id="Layer_1" xmlns="http://www.w3.org/2000/svg" xmlns:xlink="http://www.w3.org/1999/xlink" x="0px" y="0px"
	 viewBox="0 0 60 48" style="enable-background:new 0 0 60 48;" xml:space="preserve">
<style type="text/css">
	.st0{fill:#F2F2F2;fill-opacity:0.8;stroke:#333638;stroke-width:2;}
	.st1{fill:#702AF7;}
	.st2{fill:#333638;}
</style>
<g id="Layer_2_00000173873056642197765260000012896613268304338841_">
	<g id="Layer_1-2">
		<path class="st0" d="M59,43.4L59,43.4c0,2-1.6,3.6-3.6,3.6h-0.1H4.6c-2,0-3.6-1.6-3.6-3.5c0,0,0,0,0-0.1V12h58V43.4z M59,4.6
			L59,4.6c0-2-1.6-3.6-3.6-3.6h-0.1H4.6C2.7,1,1,2.6,1,4.5c0,0,0,0,0,0.1V12h58V4.6z"/>
		<path class="st1" d="M45.58,24.63c-0.65,4.06-2.72,7.76-5.84,10.44s-7.09,4.17-11.2,4.2c-0.83,0.03-1.67-0.02-2.49-0.15
			c-3.55-0.6-6.19-3.6-6.35-7.2c0.02-1.95,0.8-3.81,2.17-5.18c2.86-2.86,7.5-2.89,10.4-0.07c1.4,1.36,2.2,3.21,2.25,5.15
			c0.03,1.23-0.5,2.31-1.6,2.34c-1.17,0-1.72-0.83-1.72-1.96v-3.12c0-1.05-0.85-1.91-1.9-1.91H26.7c-1.55-0.01-2.99,0.76-3.84,2.06
			c-1.38,2.11-0.79,4.93,1.31,6.31c0.54,0.35,1.15,0.59,1.79,0.69c1.53,0.24,3.07-0.31,4.11-1.46l0.09-0.14l0.09,0.15
			c0.64,0.87,1.67,1.36,2.75,1.31c1.97-0.14,3.46-1.83,3.37-3.8c0.01-0.81-0.08-1.62-0.27-2.41c-0.49-2.23-1.78-4.21-3.64-5.54
			c-3.84-2.76-9.15-2.18-12.3,1.35c-1.52,1.7-2.36,3.91-2.35,6.2c0.03,2.42,1,4.74,2.7,6.47c1.7,1.72,4.01,2.72,6.43,2.78
			c0,0,0.69,0.06,1.46,0.04c3.76-0.02,7.43-1.12,10.59-3.16c0.04-0.03,0.09,0.03,0.06,0.08c-3.11,3.35-7.54,5.16-12.1,4.95
			c-2.98,0.05-5.85-1.11-7.95-3.23c-2.1-2.12-3.24-5-3.16-7.98c0-3.56,1.68-6.92,4.54-9.05c1.89-1.39,4.18-2.15,6.53-2.16h3.51
			c2.78,0,5.42-1.17,7.29-3.22c0.02-0.02,0.05-0.04,0.07-0.04c0.06-0.01,0.12,0.01,0.15,0.07c0.02,0.03,0.02,0.05,0.02,0.08
			c-0.15,1.58-0.67,3.1-1.53,4.43c-0.03,0.05-0.02,0.11,0.01,0.15c0.03,0.04,0.09,0.06,0.14,0.05c3.29-0.74,6.03-3,7.39-6.09
			c0.02-0.03,0.04-0.05,0.07-0.07c0.06-0.03,0.13-0.03,0.18,0c0.03,0.02,0.05,0.04,0.07,0.07C45.64,18.68,46.1,21.7,45.58,24.63
			L45.58,24.63z M26.92,29.04c-1.51,0-2.73,1.22-2.73,2.73c0,0.18,0.02,0.36,0.05,0.53c0.22,1.08,1.06,1.93,2.15,2.15
			c1.48,0.29,2.92-0.67,3.21-2.15c0.03-0.18,0.05-0.35,0.05-0.53v-2.55c-0.01-0.1-0.09-0.18-0.19-0.19L26.92,29.04z"/>
		<ellipse class="st2" cx="8.1" cy="6.5" rx="1.5" ry="1.5"/>
		<ellipse class="st2" cx="14.2" cy="6.5" rx="1.5" ry="1.5"/>
		<ellipse class="st2" cx="20.3" cy="6.5" rx="1.5" ry="1.5"/>
	</g>
</g>
</svg>
