<?xml version="1.0" encoding="utf-8"?>
<!-- Generator: Adobe Illustrator 26.1.0, SVG Export Plug-In . SVG Version: 6.00 Build 0)  -->
<svg version="1.1" id="Layer_1" xmlns="http://www.w3.org/2000/svg" xmlns:xlink="http://www.w3.org/1999/xlink" x="0px" y="0px"
	 viewBox="0 0 66.07 75" style="enable-background:new 0 0 66.07 75;" xml:space="preserve">
<style type="text/css">
	.st0{fill:#F7FFF2;}
	.st1{fill-rule:evenodd;clip-rule:evenodd;fill:#333638;}
	.st2{opacity:0.31;fill:none;stroke:#333638;stroke-width:2.5;enable-background:new    ;}
	.st3{fill:#599636;}
	.st4{fill:#6CAC48;}
	.st5{fill:#C2BFBF;}
	.st6{opacity:0.5;fill:#F7FFF2;enable-background:new    ;}
	.st7{fill:none;stroke:#333638;stroke-width:2.5;}
</style>
<path class="st0" d="M66.07,64.29C66.07,71.32,49.46,75,33.04,75C16.62,75,0,71.32,0,64.29V10.71C0,3.68,16.62,0,33.04,0
	c16.42,0,33.04,3.68,33.04,10.71V64.29z"/>
<path class="st1" d="M33.04,75c16.42,0,33.04-3.68,33.04-10.71V10.71C66.07,3.68,49.46,0,33.04,0C16.62,0,0,3.68,0,10.71v53.57
	C0,71.32,16.62,75,33.04,75z M63.5,10.71c0-2.49-11.12-8.14-30.46-8.14S2.57,8.22,2.57,10.71v4.13v13.72v4.13v13.72v4.13v13.72
	c0,2.49,11.12,8.14,30.46,8.14s30.46-5.65,30.46-8.14V50.56v-4.13V31.71v-4.13V14.85V10.71z"/>
<g id="Layer_2_00000127722548687267890460000003808476212759368369_">
	<g id="Layer_1-2">
		<path class="st2" d="M64.89,64.44c0,0.9-0.6,1.9-2.1,3.1c-2.06,1.38-4.32,2.43-6.7,3.1c-5.8,1.9-13.9,3-23,3
			c-7.77,0.1-15.51-0.91-23-3c-2.38-0.67-4.64-1.72-6.7-3.1c-1.5-1.2-2.1-2.2-2.1-3.1s0.6-1.9,2.1-3.1c2.06-1.38,4.32-2.43,6.7-3.1
			c5.8-1.9,13.9-3,23-3c7.77-0.1,15.51,0.91,23,3c2.38,0.67,4.64,1.72,6.7,3.1C64.29,62.44,64.89,63.54,64.89,64.44z"/>
	</g>
</g>
<path class="st3" d="M32.79,14.8l1.3,2.44c0.29,0.45,0.61,0.85,0.98,1.22c1.09,1.08,2.11,2.23,3.05,3.45
	c2.2,2.89,3.69,6.11,4.75,9.58c0.64,2.12,0.98,4.3,1.01,6.5c0.11,6.58-2.15,12.23-6.7,16.93c-0.74,0.74-1.54,1.43-2.39,2.04
	c-0.45,0-0.66-0.35-0.85-0.66c-0.34-0.59-0.56-1.24-0.66-1.91c-0.16-0.8-0.26-1.59-0.21-2.41v-0.37
	C33.03,51.53,32.63,14.99,32.79,14.8z"/>
<path class="st4" d="M32.79,14.72c-0.05-0.11-0.11-0.03-0.16,0.03c0.03,0.53-0.16,1.01-0.45,1.46c-0.32,0.45-0.74,0.8-1.17,1.17
	c-2.36,2.04-4.22,4.51-5.71,7.27c-1.98,3.72-3,7.7-3.29,11.89c-0.13,1.51,0.48,6.85,0.95,8.39c1.3,4.09,3.64,7.51,6.66,10.48
	c0.74,0.72,1.54,1.38,2.36,2.02c0.24,0,0.26-0.21,0.32-0.37c0.1-0.34,0.18-0.68,0.24-1.04l0.53-3.98L32.79,14.72z"/>
<path class="st5" d="M34.09,58.59c0.05-0.61,0.35-1.11,0.66-1.62c-0.32-0.13-0.56-0.4-0.74-0.69c-0.16-0.28-0.29-0.57-0.4-0.88
	c-0.37-1.11-0.45-2.28-0.56-3.42v-0.69c-0.13,0.11-0.16,1.01-0.16,1.14c-0.08,1.2-0.24,2.4-0.48,3.58
	c-0.08,0.48-0.13,0.95-0.43,1.38c0,0.05,0,0.11,0.03,0.19c0.48,1.41,0.61,2.84,0.69,4.3v0.53c0,0.64-0.03,0.5,0.5,0.72
	c0.21,0.08,0.45,0.11,0.66,0.26c0.16,0,0.19-0.13,0.19-0.24l-0.08-0.88v-2.44C33.96,59.41,34.04,58.99,34.09,58.59L34.09,58.59z"/>
<path class="st6" d="M33.04,2.57c19.35,0,30.46,5.65,30.46,8.14v4.13v12.72v4.13v14.72v4.13v13.72c0,2.49-11.12,8.14-30.46,8.14
	c-19.35,0-30.46-5.65-30.46-8.14V50.56v-4.13V32.71v-4.13V14.85v-4.13C2.57,8.22,13.69,2.57,33.04,2.57z"/>
<path class="st7" d="M64.83,10.5c0,0.88-0.56,1.93-2.09,3.09c-1.51,1.14-3.78,2.22-6.7,3.15c-5.82,1.85-13.93,3.02-22.96,3.02
	c-9.02,0-17.14-1.17-22.96-3.02c-2.92-0.93-5.19-2.01-6.7-3.15c-1.53-1.15-2.09-2.21-2.09-3.09c0-0.88,0.56-1.93,2.09-3.09
	c1.51-1.14,3.78-2.22,6.7-3.15c5.82-1.85,13.94-3.02,22.96-3.02c9.02,0,17.14,1.17,22.96,3.02c2.92,0.93,5.19,2.01,6.7,3.15
	C64.27,8.57,64.83,9.62,64.83,10.5z"/>
</svg>
