<?xml version="1.0" encoding="utf-8"?>
<!-- Generator: Adobe Illustrator 26.1.0, SVG Export Plug-In . SVG Version: 6.00 Build 0)  -->
<svg version="1.1" id="Layer_1" xmlns="http://www.w3.org/2000/svg" xmlns:xlink="http://www.w3.org/1999/xlink" x="0px" y="0px"
	 viewBox="0 0 66.07 75" style="enable-background:new 0 0 66.07 75;" xml:space="preserve">
<style type="text/css">
	.st0{fill:#EDF2F8;}
	.st1{opacity:0.31;fill:none;stroke:#333638;stroke-width:2.5;enable-background:new    ;}
	.st2{fill-rule:evenodd;clip-rule:evenodd;fill:#333638;}
	.st3{fill:none;stroke:#333638;stroke-width:5;}
	.st4{fill:#336791;}
	.st5{fill:none;stroke:#FFFFFF;stroke-width:1.247;stroke-linecap:round;stroke-linejoin:round;}
	.st6{fill:none;stroke:#FFFFFF;stroke-width:1.247;stroke-linecap:round;stroke-linejoin:bevel;}
	.st7{fill:#FFFFFF;stroke:#FFFFFF;stroke-width:0.416;}
	.st8{fill:#FFFFFF;stroke:#FFFFFF;stroke-width:0.208;}
	.st9{opacity:0.5;fill:#EDF2F8;enable-background:new    ;}
	.st10{fill:none;stroke:#333638;stroke-width:2.5;}
</style>
<path class="st0" d="M66.07,64.29C66.07,71.32,49.46,75,33.04,75C16.62,75,0,71.32,0,64.29V10.71C0,3.68,16.62,0,33.04,0
	c16.42,0,33.04,3.68,33.04,10.71V64.29z"/>
<g id="Layer_2_00000127722548687267890460000003808476212759368369_">
	<g id="Layer_1-2">
		<path class="st1" d="M64.88,64.41c0,0.9-0.6,1.9-2.1,3.1c-2.06,1.38-4.32,2.43-6.7,3.1c-5.8,1.9-13.9,3-23,3
			c-7.77,0.1-15.51-0.91-23-3c-2.38-0.67-4.64-1.72-6.7-3.1c-1.5-1.2-2.1-2.2-2.1-3.1s0.6-1.9,2.1-3.1c2.06-1.38,4.32-2.43,6.7-3.1
			c5.8-1.9,13.9-3,23-3c7.77-0.1,15.51,0.91,23,3c2.38,0.67,4.64,1.72,6.7,3.1C64.28,62.41,64.88,63.51,64.88,64.41z"/>
	</g>
</g>
<path class="st2" d="M33.04,75c16.42,0,33.04-3.68,33.04-10.71V10.71C66.07,3.68,49.46,0,33.04,0C16.62,0,0,3.68,0,10.71v53.57
	C0,71.32,16.62,75,33.04,75z M63.5,10.71c0-2.49-11.12-8.14-30.46-8.14S2.57,8.22,2.57,10.71v4.13v13.72v4.13v13.72v4.13v13.72
	c0,2.49,11.12,8.14,30.46,8.14s30.46-5.65,30.46-8.14V50.56v-4.13V31.71v-4.13V14.85V10.71z"/>
<path d="M41.52,49.14c0.25-2.09,0.18-2.4,1.73-2.06l0.4,0.03c1.2,0.05,2.77-0.19,3.69-0.62c1.98-0.92,3.16-2.46,1.2-2.05
	c-4.46,0.92-4.76-0.59-4.76-0.59c4.71-6.99,6.68-15.85,4.98-18.02c-4.63-5.92-12.65-3.12-12.79-3.05l-0.04,0.01
	c-0.88-0.18-1.87-0.29-2.97-0.31c-2.02-0.03-3.55,0.53-4.71,1.41c0,0-14.31-5.89-13.64,7.41c0.14,2.83,4.06,21.42,8.73,15.81
	c1.71-2.05,3.36-3.79,3.36-3.79c0.82,0.54,1.8,0.82,2.83,0.72l0.08-0.07c-0.02,0.25-0.01,0.5,0.03,0.8
	c-1.2,1.34-0.85,1.58-3.26,2.08c-2.43,0.5-1,1.39-0.07,1.63c1.13,0.28,3.75,0.68,5.52-1.79l-0.07,0.28
	c0.47,0.38,0.44,2.71,0.51,4.38c0.07,1.67,0.18,3.23,0.52,4.15c0.34,0.92,0.74,3.28,3.9,2.61C39.32,57.53,41.34,56.72,41.52,49.14"
	/>
<path class="st3" d="M41.52,49.14c0.25-2.09,0.18-2.4,1.73-2.06l0.4,0.03c1.2,0.05,2.77-0.19,3.69-0.62
	c1.98-0.92,3.16-2.46,1.2-2.05c-4.46,0.92-4.76-0.59-4.76-0.59c4.71-6.99,6.68-15.85,4.98-18.02c-4.63-5.92-12.65-3.12-12.79-3.05
	l-0.04,0.01c-0.88-0.18-1.87-0.29-2.97-0.31c-2.02-0.03-3.55,0.53-4.71,1.41c0,0-14.31-5.89-13.64,7.41
	c0.14,2.83,4.06,21.42,8.73,15.81c1.71-2.05,3.36-3.79,3.36-3.79c0.82,0.54,1.8,0.82,2.83,0.72l0.08-0.07
	c-0.02,0.25-0.01,0.5,0.03,0.8c-1.2,1.34-0.85,1.58-3.26,2.08c-2.43,0.5-1,1.39-0.07,1.63c1.13,0.28,3.75,0.68,5.52-1.79l-0.07,0.28
	c0.47,0.38,0.44,2.71,0.51,4.38c0.07,1.67,0.18,3.23,0.52,4.15c0.34,0.92,0.74,3.28,3.9,2.61C39.32,57.53,41.34,56.72,41.52,49.14"
	/>
<path class="st4" d="M48.54,44.44c-4.46,0.92-4.77-0.59-4.77-0.59c4.71-6.99,6.68-15.85,4.98-18.02
	c-4.63-5.92-12.65-3.12-12.79-3.05l-0.04,0.01c-0.88-0.18-1.87-0.29-2.97-0.31c-2.02-0.03-3.55,0.53-4.71,1.41
	c0,0-14.31-5.89-13.64,7.41c0.14,2.83,4.06,21.42,8.73,15.81c1.71-2.05,3.36-3.79,3.36-3.79c0.82,0.54,1.8,0.82,2.83,0.72l0.08-0.07
	c-0.02,0.25-0.01,0.5,0.03,0.8c-1.2,1.34-0.85,1.58-3.26,2.08c-2.43,0.5-1,1.39-0.07,1.63c1.13,0.28,3.75,0.68,5.52-1.79l-0.07,0.28
	c0.47,0.38,0.8,2.46,0.75,4.34c-0.06,1.88-0.09,3.18,0.28,4.19c0.37,1.01,0.74,3.28,3.9,2.61c2.64-0.57,4.01-2.03,4.2-4.48
	c0.14-1.74,0.44-1.48,0.46-3.04l0.25-0.74c0.28-2.36,0.04-3.12,1.67-2.77l0.4,0.03c1.2,0.05,2.77-0.19,3.69-0.62
	C49.32,45.57,50.5,44.04,48.54,44.44L48.54,44.44z"/>
<path class="st5" d="M32.01,45.79c-0.12,4.39,0.03,8.81,0.46,9.88c0.43,1.07,1.35,3.16,4.51,2.49c2.64-0.57,3.6-1.66,4.02-4.08
	c0.31-1.78,0.9-6.72,0.98-7.74"/>
<path class="st5" d="M28.22,23.79c0,0-14.32-5.85-13.65,7.46c0.14,2.83,4.06,21.42,8.73,15.81c1.71-2.05,3.25-3.66,3.25-3.66"/>
<path class="st5" d="M35.95,22.72c-0.5,0.16,7.96-3.09,12.77,3.05c1.7,2.17-0.27,11.04-4.98,18.02"/>
<path class="st6" d="M43.75,43.79c0,0,0.31,1.51,4.77,0.59c1.95-0.4,0.78,1.13-1.2,2.05c-1.63,0.75-5.27,0.95-5.33-0.09
	C41.82,43.65,43.9,44.47,43.75,43.79c-0.14-0.61-1.06-1.2-1.67-2.69c-0.54-1.3-7.34-11.24,1.89-9.77c0.34-0.07-2.41-8.78-11.04-8.92
	c-8.63-0.14-8.35,10.62-8.35,10.62"/>
<path class="st5" d="M29.59,44.71c-1.2,1.34-0.85,1.58-3.26,2.08c-2.43,0.5-1,1.39-0.07,1.63c1.13,0.28,3.75,0.68,5.52-1.79
	c0.54-0.75,0-1.96-0.74-2.26C30.69,44.21,30.21,44.03,29.59,44.71L29.59,44.71z"/>
<path class="st5" d="M29.51,44.69c-0.12-0.79,0.26-1.73,0.67-2.83c0.61-1.65,2.03-3.3,0.9-8.54c-0.84-3.9-6.51-0.81-6.51-0.28
	c0,0.53,0.26,2.68-0.09,5.19c-0.46,3.27,2.08,6.04,5.01,5.76"/>
<path class="st7" d="M28.17,32.96c-0.03,0.18,0.33,0.66,0.8,0.73c0.46,0.06,0.86-0.31,0.89-0.49c0.03-0.18-0.33-0.38-0.8-0.44
	C28.59,32.68,28.19,32.78,28.17,32.96L28.17,32.96z"/>
<path class="st8" d="M42.3,32.59c0.03,0.18-0.33,0.66-0.8,0.73c-0.46,0.06-0.86-0.31-0.89-0.49c-0.02-0.18,0.33-0.38,0.8-0.44
	S42.27,32.41,42.3,32.59L42.3,32.59z"/>
<path class="st5" d="M43.96,31.34c0.08,1.42-0.31,2.38-0.35,3.89c-0.07,2.19,1.05,4.7-0.64,7.22"/>
<path class="st9" d="M33.04,2.57c19.35,0,30.46,5.65,30.46,8.14v4.13v12.72v4.13v14.72v4.13v13.72c0,2.49-11.12,8.14-30.46,8.14
	c-19.35,0-30.46-5.65-30.46-8.14V50.56v-4.13V32.71v-4.13V14.85v-4.13C2.57,8.22,13.69,2.57,33.04,2.57z"/>
<path class="st10" d="M64.83,10.5c0,0.88-0.56,1.93-2.09,3.09c-1.51,1.14-3.78,2.22-6.7,3.15c-5.82,1.85-13.93,3.02-22.96,3.02
	c-9.02,0-17.14-1.17-22.96-3.02c-2.92-0.93-5.19-2.01-6.7-3.15c-1.53-1.15-2.09-2.21-2.09-3.09c0-0.88,0.56-1.93,2.09-3.09
	c1.51-1.14,3.78-2.22,6.7-3.15c5.82-1.85,13.94-3.02,22.96-3.02c9.02,0,17.14,1.17,22.96,3.02c2.92,0.93,5.19,2.01,6.7,3.15
	C64.27,8.57,64.83,9.62,64.83,10.5z"/>
</svg>
