<svg xmlns="http://www.w3.org/2000/svg" viewBox="0 0 31.26 10.78"><defs><style>.cls-1{fill:#333638;}</style></defs><g id="Layer_2" data-name="Layer 2"><g id="Layer_1-2" data-name="Layer 1"><path class="cls-1" d="M.83,10.74a.85.85,0,0,1-.6-.22A.81.81,0,0,1,0,9.91a.75.75,0,0,1,.23-.58.78.78,0,0,1,.6-.24.73.73,0,0,1,.58.24.78.78,0,0,1,.23.58.85.85,0,0,1-.23.61A.78.78,0,0,1,.83,10.74Zm3.57,0A.54.54,0,0,1,4,10.63a.64.64,0,0,1-.15-.46V.63A.68.68,0,0,1,4,.16.53.53,0,0,1,4.36,0,.51.51,0,0,1,4.7.09,1,1,0,0,1,5,.37l6.54,8.72h-.36V.6A.6.6,0,0,1,11.3.16.61.61,0,0,1,11.74,0a.51.51,0,0,1,.4.16.6.6,0,0,1,.15.44v9.59a.66.66,0,0,1-.13.44.41.41,0,0,1-.36.15.74.74,0,0,1-.36-.08,1.58,1.58,0,0,1-.29-.29L4.63,1.7H5v8.47a.64.64,0,0,1-.15.46A.53.53,0,0,1,4.4,10.78Zm11.2-.1a.78.78,0,0,1-.51-.16.74.74,0,0,1-.17-.52V.78a.65.65,0,0,1,.17-.49A.66.66,0,0,1,15.6.1h5.58a.53.53,0,0,1,.39.14.5.5,0,0,1,.13.38.53.53,0,0,1-.13.39.57.57,0,0,1-.39.13H16.12V4.8h4.74a.49.49,0,0,1,.39.14.47.47,0,0,1,.14.37.49.49,0,0,1-.53.53H16.12V9.65h5.06a.53.53,0,0,1,.39.13.62.62,0,0,1,0,.76.53.53,0,0,1-.39.14Zm11.09.1a.61.61,0,0,1-.45-.16.69.69,0,0,1-.17-.48v-9H22.7A.57.57,0,0,1,22.28,1a.53.53,0,0,1-.15-.39.5.5,0,0,1,.15-.39A.61.61,0,0,1,22.7.1h8a.61.61,0,0,1,.42.14.5.5,0,0,1,.15.39.56.56,0,0,1-.15.41.6.6,0,0,1-.42.13H27.32v9a.69.69,0,0,1-.17.48A.59.59,0,0,1,26.69,10.78Z"/></g></g></svg>