<svg xmlns="http://www.w3.org/2000/svg" viewBox="0 0 33.14 12.35"><defs><style>.cls-1{fill:#333638;}</style></defs><g id="Layer_2" data-name="Layer 2"><g id="Layer_1-2" data-name="Layer 1"><path class="cls-1" d="M33.14,1.71H29.73V12.16h-2V1.71h-3.4V0h8.78ZM23.68,12.16H17V0h6.39V1.71H19V5.16h4.08v1.7H19v3.6h4.69Zm-9.27,0H12.26L6.6,3.22a4.63,4.63,0,0,1-.36-.7h0a11.62,11.62,0,0,1,.07,1.67v8H4.36V0H6.65l5.47,8.73c.23.36.38.61.45.74h0a11.93,11.93,0,0,1-.08-1.63V0h1.89Zm-12-1a1.18,1.18,0,0,1-1.2,1.15h0A1.18,1.18,0,0,1,0,11.2H0a1.17,1.17,0,0,1,1.2-1.14A1.17,1.17,0,0,1,2.4,11.2Z"/></g></g></svg>