<svg xmlns="http://www.w3.org/2000/svg" viewBox="0 0 66.1 20.9"><defs><style>.cls-1{fill:none;stroke:#333638;stroke-width:2.5px;}</style></defs><g id="Layer_2" data-name="Layer 2"><g id="Layer_1-2" data-name="Layer 1"><path class="cls-1" d="M64.85,10.45c0,.9-.6,1.9-2.1,3.1a23.42,23.42,0,0,1-6.7,3.1c-5.8,1.9-13.9,3-23,3a81.77,81.77,0,0,1-23-3,23.42,23.42,0,0,1-6.7-3.1c-1.5-1.2-2.1-2.2-2.1-3.1s.6-1.9,2.1-3.1a23.42,23.42,0,0,1,6.7-3.1c5.8-1.9,13.9-3,23-3a81.77,81.77,0,0,1,23,3,23.42,23.42,0,0,1,6.7,3.1C64.35,8.55,64.85,9.55,64.85,10.45Z"/></g></g></svg>