<?xml version="1.0" encoding="utf-8"?>
<!-- Generator: Adobe Illustrator 26.1.0, SVG Export Plug-In . SVG Version: 6.00 Build 0)  -->
<svg version="1.1" id="Layer_1" xmlns="http://www.w3.org/2000/svg" xmlns:xlink="http://www.w3.org/1999/xlink" x="0px" y="0px"
	 viewBox="0 0 30 30" style="enable-background:new 0 0 30 30;" xml:space="preserve">
<style type="text/css">
	.st0{fill:#1A1918;}
	.st1{fill:#FFFFFF;}
</style>
<path class="st0" d="M30,15c0,8.3-6.7,15-15,15C6.7,30,0,23.3,0,15C0,6.7,6.7,0,15,0C23.3,0,30,6.7,30,15z"/>
<path class="st1" d="M15.3,9.2l3.9,9.6l-5.9-4.6L15.3,9.2z M22.1,21l-6-14.4c-0.2-0.4-0.5-0.6-0.9-0.6c-0.4,0-0.8,0.2-1,0.6
	L7.7,22.3H10l2.6-6.5l7.7,6.3c0.3,0.3,0.5,0.4,0.8,0.4c0.6,0,1.1-0.4,1.1-1.1C22.3,21.3,22.2,21.1,22.1,21z"/>
</svg>
