<?xml version="1.0" encoding="utf-8"?>
<!-- Generator: Adobe Illustrator 26.1.0, SVG Export Plug-In . SVG Version: 6.00 Build 0)  -->
<svg version="1.1" id="Layer_1" xmlns="http://www.w3.org/2000/svg" xmlns:xlink="http://www.w3.org/1999/xlink" x="0px" y="0px"
	 viewBox="0 0 32.6 19" style="enable-background:new 0 0 32.6 19;" xml:space="preserve">
<style type="text/css">
	.st0{fill:#333638;}
</style>
<path class="st0" d="M0,9.5c0,0.4,0.2,0.7,0.5,0.9l6.9,5.7c0.2,0.2,0.5,0.3,0.8,0.3c0.4,0,0.7-0.2,1-0.4c0.4-0.5,0.4-1.2-0.1-1.7
	c0,0,0,0-0.1-0.1L3.2,9.4L9,4.6C9.5,4.2,9.6,3.5,9.2,3c0,0,0-0.1-0.1-0.1C8.7,2.4,7.9,2.3,7.4,2.7l0,0L0.5,8.4C0.2,8.8,0,9.2,0,9.5z
	"/>
<path class="st0" d="M29.4,9.5l-5.8,4.8c-0.5,0.4-0.6,1.1-0.2,1.6c0,0,0,0.1,0.1,0.1c0.2,0.3,0.6,0.4,1,0.4c0.3,0,0.6-0.1,0.8-0.3
	l6.9-5.7c0.5-0.4,0.6-1.1,0.2-1.7c-0.1-0.1-0.1-0.1-0.2-0.2l-6.9-5.7c-0.5-0.4-1.3-0.4-1.7,0.1l0,0c-0.4,0.5-0.4,1.2,0.1,1.6
	c0,0,0,0,0.1,0.1L29.4,9.5z"/>
<path class="st0" d="M18.1,0.8l-5.8,16.5c-0.2,0.6,0.1,1.4,0.7,1.6c0.1,0.1,0.3,0.1,0.5,0.1c0.5,0,1-0.3,1.2-0.8l5.9-16.5
	c0.3-0.6,0-1.3-0.7-1.6l0,0C19.1-0.1,18.3,0.2,18.1,0.8z"/>
</svg>
