<svg xmlns="http://www.w3.org/2000/svg" xmlns:xlink="http://www.w3.org/1999/xlink" viewBox="0 0 60 48.13"><defs><style>.cls-1{fill:url(#linear-gradient);}.cls-2{fill:url(#linear-gradient-2);}.cls-3{fill:url(#radial-gradient);}.cls-4{fill:#23201f;}.cls-5,.cls-7{fill-opacity:0.8;stroke:#333638;stroke-width:2px;}.cls-5{fill:url(#linear-gradient-3);}.cls-6{fill:#333638;}.cls-7{opacity:0.25;fill:url(#linear-gradient-4);}</style><linearGradient id="linear-gradient" x1="288.93" y1="-8413.18" x2="323.28" y2="-8433.47" gradientTransform="translate(17.48 351.39) scale(0.04)" gradientUnits="userSpaceOnUse"><stop offset="0" stop-color="#909ca9"/><stop offset="1" stop-color="#eeeded"/></linearGradient><linearGradient id="linear-gradient-2" x1="289.7" y1="-8795.65" x2="317.34" y2="-8795.65" gradientTransform="translate(17.48 351.39) scale(0.04)" gradientUnits="userSpaceOnUse"><stop offset="0" stop-color="#949fab"/><stop offset="1" stop-color="#dcdee1"/></linearGradient><radialGradient id="radial-gradient" cx="-14702.02" cy="-5315.98" r="36.69" gradientTransform="matrix(-0.04, -0.01, 0.01, -0.07, -443.78, -446.6)" gradientUnits="userSpaceOnUse"><stop offset="0" stop-color="#ef392d"/><stop offset="1" stop-color="#a91f24"/></radialGradient><linearGradient id="linear-gradient-3" x1="115.38" y1="24.13" x2="115.88" y2="24.13" gradientUnits="userSpaceOnUse"><stop offset="0" stop-color="#fff" stop-opacity="0.5"/><stop offset="0.14" stop-color="#fff" stop-opacity="0.5"/><stop offset="1" stop-color="#fff" stop-opacity="0.5"/></linearGradient><linearGradient id="linear-gradient-4" x1="1" y1="24" x2="59" y2="24" gradientUnits="userSpaceOnUse"><stop offset="0" stop-color="#2484c6" stop-opacity="0.1"/><stop offset="0.18" stop-color="#2484c6" stop-opacity="0.05"/><stop offset="0.48" stop-color="#2484c6" stop-opacity="0.01"/><stop offset="1" stop-color="#2484c6" stop-opacity="0"/></linearGradient></defs><g id="Layer_2" data-name="Layer 2"><g id="Layer_1-2" data-name="Layer 1"><path class="cls-1" d="M36.14,23.86,32.53,25l-3.14,1.38-.88.24-.71.64-.74.62a5.37,5.37,0,0,0-.72.71,3.27,3.27,0,0,0-.52.89A1.49,1.49,0,0,0,26,30.87a4.76,4.76,0,0,0,2,1.49,13.13,13.13,0,0,0,1.74.58,23.59,23.59,0,0,0,3.69.52h.48a4.82,4.82,0,0,0,.35-.67,16.07,16.07,0,0,0,1.28-3.38,15.75,15.75,0,0,0,.33-2.35c0-.26,0-1.15,0-1.45a9.11,9.11,0,0,0-.14-1.28s0-.11,0-.11l.48-.15-.08-.21Zm-.83.48a9.1,9.1,0,0,1,.14,1.37.49.49,0,0,1,0,.19s-.46-.26-.77-.46-.8-.52-.88-.58,0,0,.2-.1ZM33.47,25s.09,0,.24.13c.56.35,1.33.77,1.65.92.1,0,.11,0-.12.18a11.68,11.68,0,0,1-1.87,1l-.25.1,0-.15a7.83,7.83,0,0,0,.3-1.91c0-.28,0-.28,0-.28Zm-.38.14a5.49,5.49,0,0,1,0,.8,7.31,7.31,0,0,1-.25,1.18.75.75,0,0,1-.07.19,4.21,4.21,0,0,1-.5-.49,3.59,3.59,0,0,1-.51-.73,2.13,2.13,0,0,1-.15-.37s1.48-.59,1.49-.58Zm-1.78.7h0l0,.1a4.1,4.1,0,0,0,.45.81,5.11,5.11,0,0,0,.63.67.85.85,0,0,1,.13.12s0,0-.42.18-1.08.4-1.72.6l-.46.15s0,0,.05-.11a14.76,14.76,0,0,0,1.08-2.18l.1-.26a.09.09,0,0,1,.06-.07l0,0Zm-.55.23a5.89,5.89,0,0,1-.26.57c-.27.51-.56,1-.94,1.64l-.14.21s0,0-.06-.07a2.23,2.23,0,0,1-.21-.63,2.51,2.51,0,0,1,0-.82c0-.17,0-.16.11-.2.35-.18,1.48-.71,1.49-.7Zm4.71.19v.12a15.86,15.86,0,0,1-.16,2.05c0,.1,0,.19,0,.19l-.18,0A7.15,7.15,0,0,1,33.85,28a4.52,4.52,0,0,1-.64-.4l.25-.13A16.79,16.79,0,0,0,35,26.59l.48-.35,0,0ZM28.7,27s0,0,0,.12a1.29,1.29,0,0,0,0,.29,1.94,1.94,0,0,0,.24,1.1l.09.21-2.39.7-.33.09s0,0,0-.05a2.86,2.86,0,0,1,.79-1.36,3.47,3.47,0,0,1,.9-.69L28.7,27Zm4.26.76.15.08a8,8,0,0,0,2.09.81l.06,0-.09,0c-.36.2-1.55.69-2.77,1.15L32,30s-.06,0-.06,0l.11-.21a13.2,13.2,0,0,0,.86-2l0-.1Zm-.43.14-.05.13a17.64,17.64,0,0,1-.95,1.9,3.45,3.45,0,0,1-.19.33l-.18-.11A5.41,5.41,0,0,1,29.74,29l0-.06.24-.07a17.72,17.72,0,0,0,2.4-.83Zm2.69.94h0c0,.07-.14.63-.25,1s-.18.61-.33,1.08c-.06.21-.12.38-.12.38h0a12,12,0,0,1-2.22-.63l-.48-.21a3.06,3.06,0,0,1,.37-.17c1.24-.55,2.53-1.16,3-1.43l.1-.05ZM29,29.08s-.34.5-.83,1.18c-.17.24-.36.52-.44.62s-.18.27-.25.36l-.11.18-.12-.1a4.16,4.16,0,0,1-.51-.52,2.41,2.41,0,0,1-.46-.88q0-.2,0-.21l1.45-.34,1-.23.29-.06Zm.35.13.09.1a5.27,5.27,0,0,0,1.27,1.05.48.48,0,0,1,.15.09s-1.68.61-2.46.87l-.79.28-.05,0,0,0,.08-.12c.25-.37.57-.77,1.28-1.62l.48-.58Zm2.17,1.56a1.47,1.47,0,0,1,.27.09,8.64,8.64,0,0,0,1,.32,11.66,11.66,0,0,0,1.53.26c.06,0,.09,0,.08,0l-.72.24c-.46.15-1.9.57-3.06.9l-.42.12a.18.18,0,0,1-.11,0,1.85,1.85,0,0,1,.14-.18A17.44,17.44,0,0,0,31.36,31l.16-.25Zm-.48,0s-.19.31-.52.85l-.37.57c0,.09-.13.23-.18.3l-.08.14h0l-1-.34c-.23-.09-.46-.2-.64-.29a3.23,3.23,0,0,1-.47-.3l.83-.23c1.2-.32,1.86-.51,2.29-.65l.15,0Zm3.4.8h0s-.43,1.25-.59,1.64c0,.09-.05.11-.07.11l-1.07-.15-2.11-.37-.07,0,.41-.09c.87-.19,1.29-.3,1.72-.43a13.3,13.3,0,0,0,1.61-.62l.17-.07Z"/><path class="cls-2" d="M32.41,15.45c-.06,0-1,.34-1.65.59a10.23,10.23,0,0,0-1.9,1,1.28,1.28,0,0,0-.37.37.24.24,0,0,0,0,.09l.37.34.87.28,2.07.37,2.37.41,0-.2h0l-.31,0-.06-.11c-.32-.57-.68-1.27-.89-1.74a8.71,8.71,0,0,1-.39-1.1c0-.19-.06-.2-.09-.2Zm0,.14h0a.54.54,0,0,1,0,.17,5.34,5.34,0,0,0,.26,1.14c.1.3.1.29,0,.25-.28-.07-1.53-.29-2.43-.42a1,1,0,0,1-.27,0s.65-.35.94-.49S32.29,15.6,32.37,15.59Zm-2.63,1.22.11,0a15.47,15.47,0,0,0,2.83.54l.17,0-.17.09c-.39.19-.81.43-1.11.61a.91.91,0,0,1-.18.1l-.12,0h-.11l-.28-.27c-.48-.47-.85-.83-1-1Zm-.11.08.39.48c.21.27.42.53.47.58l.08.11s-.56-.1-.85-.16a5.93,5.93,0,0,1-.6-.16l-.15,0v0c0-.18.23-.45.63-.73Zm3.27.66s0,0,.06.1.38.75.45.86.06,0-.32,0l-1.23-.2.07,0a5.65,5.65,0,0,0,.83-.58l.13-.11Z"/><path class="cls-3" d="M28.51,17.33a.25.25,0,0,0,0,.23,1.06,1.06,0,0,0,.25.31s1.22,1.18,1.37,1.35a3.8,3.8,0,0,1,1,2.59,4.26,4.26,0,0,1-.44,2,12.63,12.63,0,0,1-3.61,4.13l.27-.09a6.85,6.85,0,0,1,1-.58,35.64,35.64,0,0,1,4.51-2A56.55,56.55,0,0,1,42,22.76l.24,0,0-.06c-.22-.34-.37-.55-.55-.78a6.65,6.65,0,0,0-1.94-1.61,14.38,14.38,0,0,0-4.2-1.41c-.33-.06-1.06-.19-1.65-.28-1.25-.19-2-.33-2.94-.48l-1.12-.2c-.16,0-.47-.11-.72-.2s-.48-.15-.54-.38Zm.7.68.11,0,.39.12.36.1.31.08s.29.9.38,1.23a1,1,0,0,1,.06.24.72.72,0,0,1-.06-.1,5.54,5.54,0,0,0-1.41-1.59Zm1.35.37.14,0c.47.11,1.3.27,1.83.36l.16,0s0,0-.07.05-.45.26-.57.34a4.83,4.83,0,0,0-.78.62l-.14.14a.39.39,0,0,1,0-.1,10,10,0,0,0-.49-1.34l-.06-.12Zm2.36.45a1.2,1.2,0,0,1,.1.3,4.79,4.79,0,0,1,.13,1.25,2.11,2.11,0,0,1,0,.24v0l-.14,0c-.29-.1-.77-.23-1.17-.35l-.42-.12a6.56,6.56,0,0,1,.48-.49,12.46,12.46,0,0,1,1.05-.81Zm.19,0s1.13.18,1.64.28l1,.2s0,0-.22.12a12.76,12.76,0,0,0-1.79,1l-.26.17a1.54,1.54,0,0,1,0-.17,3.88,3.88,0,0,0-.29-1.49S33.1,18.86,33.11,18.86Zm2.9.57a2.11,2.11,0,0,1-.06.36,7.15,7.15,0,0,1-.69,1.58,1,1,0,0,1-.12.18L35,21.47a9.7,9.7,0,0,0-1.07-.53l-.21-.09A14.72,14.72,0,0,1,35,20C35.4,19.75,36,19.42,36,19.43Zm.2,0,.78.22a17,17,0,0,1,1.86.67l.2.09-.14,0a20.73,20.73,0,0,0-3.14,1l-.16.06a1.19,1.19,0,0,1,.06-.14,5.65,5.65,0,0,0,.53-1.81.45.45,0,0,1,0-.1ZM31.27,20.6a4.75,4.75,0,0,1,.59.14c.31.08,1,.31,1,.32l-.16.14c-.35.3-.7.61-1.11,1l-.23.22s0,0,0,0a5.8,5.8,0,0,0,0-1.65A1.13,1.13,0,0,0,31.27,20.6Zm8,0s-.18.29-.29.45-.4.54-1,1.22l-.71.91-.2.25a.49.49,0,0,1-.08-.11,5.53,5.53,0,0,0-1.1-1.22L35.7,22l-.05-.05s.46-.21.82-.35c.61-.25,1.45-.55,2.08-.75a7.08,7.08,0,0,1,.69-.19Zm.21.05.16.08a9,9,0,0,1,1.82,1.37l.5.51-.28,0a27.45,27.45,0,0,0-4,.67l-.18.05a2.7,2.7,0,0,1,.23-.24,7,7,0,0,0,1.66-2.2,2.61,2.61,0,0,1,.12-.26Zm-6.08.62.66.31c.25.12.62.32.64.34l-.29.15c-.51.25-1,.5-1.41.77l-.24.15s0,0,.06-.15a5.38,5.38,0,0,0,.55-1.5l0-.07Zm-.35.07a3.87,3.87,0,0,1-.14.52A6.77,6.77,0,0,1,32.4,23l-.15.25-.07.11L32,23.19a2.12,2.12,0,0,0-.51-.37.6.6,0,0,1-.13-.08s.47-.44.82-.75.8-.65.81-.64Zm2.17.89.13.09a9.48,9.48,0,0,1,.94.69c.16.13.46.4.52.47l0,0-.22.06c-1.25.35-2.21.66-3.34,1.07l-.24.09s0,0,.25-.25a11.71,11.71,0,0,0,1.83-2.1l.1-.15Zm-.57.14s-.37.53-.59.83-.75.95-1.07,1.34c-.14.16-.26.29-.26.3s0,0,0-.11a2.25,2.25,0,0,0-.24-1c-.06-.12-.07-.15-.05-.17s.84-.5,1.34-.77c.34-.18.87-.44.88-.44Zm-3.45.85.14.07a2.73,2.73,0,0,1,.47.31s-.06.07-.16.14c-.26.18-.65.48-.88.66s-.25.2-.22.16a6.18,6.18,0,0,0,.37-.63c.08-.18.17-.39.23-.57a.36.36,0,0,1,.05-.14Zm.92.72s0,0,.1.13a1.89,1.89,0,0,1,.31.79v.06l-.37.14c-.67.26-1.28.52-1.7.71L30,26a2,2,0,0,1-.24.11l.19-.14a11.1,11.1,0,0,0,2-1.89l.11-.13Zm-.42.1a5.94,5.94,0,0,1-.52.58A8.66,8.66,0,0,1,29.46,26a1.23,1.23,0,0,0-.16.1s0,0,.29-.32.31-.36.47-.56a.75.75,0,0,1,.27-.26C30.73,24.67,31.66,24,31.67,24.05Z"/><path class="cls-4" d="M19.85,35.35H19.7a2.25,2.25,0,0,0-2.1,1.38,3.62,3.62,0,0,0,0,2.61,2.28,2.28,0,0,0,1.91,1.35c.21,0,.35.14.74.61l.49.57h.89l-.59-.6a7.46,7.46,0,0,1-.59-.63s.13-.08.28-.13a2,2,0,0,0,1.2-1.12,2.46,2.46,0,0,0,.3-1.21c.09-1.75-.84-2.85-2.38-2.83Zm.78,4.58a2.09,2.09,0,0,1-1.47.1,1.88,1.88,0,0,1-1-1.09,3,3,0,0,1,.06-2,1.68,1.68,0,0,1,1.6-1c1.08,0,1.69.66,1.77,1.9a2.06,2.06,0,0,1-.95,2.14ZM36,36.84a1,1,0,0,0-.85.45l-.15.24v-.61h-.64v3.66H35V39.41c0-1.07,0-1.2.17-1.49a.81.81,0,0,1,.9-.51l.23.07v-.64Zm-3.78,0a1.74,1.74,0,0,0-.39,0,2.14,2.14,0,0,0-.84,3.33,2,2,0,0,0,2.2.32l.3-.14V39.8l-.3.15a1.43,1.43,0,0,1-1.64-.05,1.67,1.67,0,0,1-.44-1h2.6v-.49a1.46,1.46,0,0,0-1.49-1.63Zm-1.05,1.61a1.55,1.55,0,0,1,.45-.88,1,1,0,0,1,.56-.18.88.88,0,0,1,.55.19,1.45,1.45,0,0,1,.38.86H31.12ZM15.6,37.76c-.7-.43-1-.73-1-1.09.11-1,1.34-.86,2-.48v-.67a2.7,2.7,0,0,0-.91-.17,1.55,1.55,0,0,0-1.62.81c-.37.81,0,1.43,1.14,2.11.66.39,1,.72,1,1.09,0,.75-.91,1-1.84.54L14,39.72a6.25,6.25,0,0,0,0,.73,4,4,0,0,0,.72.2c1.07.22,2-.29,2.13-1.1s-.19-1.17-1.24-1.79Zm26.05-1a2,2,0,0,0-.4.05,2.14,2.14,0,0,0-.83,3.33,2,2,0,0,0,2.2.31l.31-.13v-.58l-.31.16a1.45,1.45,0,0,1-1.63,0,1.61,1.61,0,0,1-.44-1h2.59v-.5a1.46,1.46,0,0,0-1.49-1.62Zm-1,1.61a1.55,1.55,0,0,1,.45-.88,1,1,0,0,1,.56-.18.93.93,0,0,1,.55.18,1.47,1.47,0,0,1,.38.87H40.6Zm-11.8-.65c-.7-.42-1-.72-1-1.08.11-1,1.34-.86,2-.48v-.67a2.37,2.37,0,0,0-.91-.17,1.55,1.55,0,0,0-1.62.81c-.36.81,0,1.43,1.14,2.11.66.39.95.72.95,1.08,0,.75-.9,1-1.84.54l-.36-.17a4.83,4.83,0,0,0,0,.72,4.13,4.13,0,0,0,.71.21C29,40.87,30,40.37,30,39.55s-.19-1.16-1.24-1.79Zm16.63-.92a.93.93,0,0,0-.84.44l-.15.24v-.61h-.65v3.66h.65V39.4c0-1.07,0-1.2.16-1.49a.81.81,0,0,1,.9-.51l.23.07v-.63Zm-21.75.9V35.41H23v5.17h2.73V40H23.68V37.74Zm15,.73-.53,1.39-.52-1.4-.52-1.55h-.67c.44,1.22.9,2.46,1.38,3.67h.61l.72-1.82.74-1.85h-.64s-.28.74-.57,1.56ZM25.18,34a.35.35,0,0,0,.26-.1.36.36,0,0,0,.11-.26.35.35,0,0,0-.11-.26.35.35,0,0,0-.26-.1.34.34,0,0,0-.26.1.33.33,0,0,0-.11.26.35.35,0,0,0,.11.26.33.33,0,0,0,.26.1ZM25,33.41a.27.27,0,0,1,.23-.09.28.28,0,0,1,.23.09.31.31,0,0,1,0,.46.34.34,0,0,1-.46,0,.33.33,0,0,1-.1-.23A.29.29,0,0,1,25,33.41Zm.15.26h0s.06,0,.09.08l.05.12h.08l-.07-.13a.15.15,0,0,0-.08-.09.13.13,0,0,0,.09,0,.12.12,0,0,0,0-.09.09.09,0,0,0,0-.08.17.17,0,0,0-.13,0H25v.47h.07v-.2Zm0-.22h.06l.09,0a.11.11,0,0,1,0,.06c0,.06,0,.08-.1.08H25.1v-.16Zm-10.72.18c0-.16,0-.29,0-.36h0a.85.85,0,0,0,.06.19l.62,1.39h.1l.63-1.4.05-.18h0a2.43,2.43,0,0,0,0,.36v1.23H16V33h-.26l-.58,1.27-.09.23h0L15,34.31,14.45,33h-.28v1.82h.2V33.63Zm2.12,0h.18v1.14H16.5Zm.09-.41a.14.14,0,0,0,.14-.14.1.1,0,0,0,0-.09.13.13,0,0,0-.1,0,.1.1,0,0,0-.09,0,.11.11,0,0,0-.05.09.14.14,0,0,0,.05.1.13.13,0,0,0,.09,0ZM18,34.8v-.21a.51.51,0,0,1-.32.12.42.42,0,0,1-.33-.14.51.51,0,0,1-.12-.36.55.55,0,0,1,.13-.38.43.43,0,0,1,.33-.13.52.52,0,0,1,.31.1v-.22a.73.73,0,0,0-.3-.06.65.65,0,0,0-.5.19.75.75,0,0,0-.18.52.63.63,0,0,0,.17.47.59.59,0,0,0,.45.19A1,1,0,0,0,18,34.8Zm.52-.61a.64.64,0,0,1,.1-.36.28.28,0,0,1,.21-.11.25.25,0,0,1,.16,0v-.21a.22.22,0,0,0-.12,0,.27.27,0,0,0-.2.07.44.44,0,0,0-.15.22h0v-.27h-.21v1.31h.21v-.67Zm1.2.69a.62.62,0,0,0,.48-.19.72.72,0,0,0,.17-.5.69.69,0,0,0-.16-.49.56.56,0,0,0-.46-.18.63.63,0,0,0-.47.17.72.72,0,0,0-.19.52.64.64,0,0,0,.17.48.58.58,0,0,0,.46.19Zm-.29-1.06a.41.41,0,0,1,.31-.12.4.4,0,0,1,.31.12.54.54,0,0,1,.11.38.56.56,0,0,1-.1.37.38.38,0,0,1-.32.13.39.39,0,0,1-.31-.13.53.53,0,0,1-.12-.37A.47.47,0,0,1,19.43,33.82Zm1.86,1a.34.34,0,0,0,.12-.27.33.33,0,0,0-.1-.24.84.84,0,0,0-.24-.14.84.84,0,0,1-.2-.11.17.17,0,0,1-.05-.13.16.16,0,0,1,.06-.13.29.29,0,0,1,.17,0,.53.53,0,0,1,.3.09v-.21a.67.67,0,0,0-.28-.06.49.49,0,0,0-.33.11.32.32,0,0,0-.13.27.28.28,0,0,0,.08.23.61.61,0,0,0,.23.15,1.26,1.26,0,0,1,.22.12.21.21,0,0,1,.05.13c0,.12-.08.18-.25.18a.52.52,0,0,1-.33-.12v.22a.57.57,0,0,0,.32.08.58.58,0,0,0,.36-.12Zm1-1.25a.63.63,0,0,0-.47.17.72.72,0,0,0-.19.52.64.64,0,0,0,.17.48.58.58,0,0,0,.46.19.6.6,0,0,0,.48-.19.72.72,0,0,0,.17-.5.69.69,0,0,0-.16-.49.56.56,0,0,0-.46-.18Zm.41.68a.56.56,0,0,1-.11.37.36.36,0,0,1-.31.13.41.41,0,0,1-.32-.13.67.67,0,0,1,0-.75.39.39,0,0,1,.31-.13.37.37,0,0,1,.31.13.59.59,0,0,1,.11.38Zm.56.65h.21V33.73h.31v-.18h-.31v-.2c0-.18.07-.28.22-.28a.33.33,0,0,1,.14,0v-.19a.34.34,0,0,0-.15,0,.37.37,0,0,0-.28.1.44.44,0,0,0-.14.34v.21H23v.18h.22v1.12Zm.86-.35c0,.25.11.38.34.38a.37.37,0,0,0,.2,0v-.18a.21.21,0,0,1-.14,0,.17.17,0,0,1-.15-.05.32.32,0,0,1,0-.19v-.74h.33v-.17h-.33v-.39l-.21.07v.32h-.23v.17h.23v.78Zm22.44,2.4a.4.4,0,0,0-.26-.1.39.39,0,0,0-.27.11.35.35,0,0,0-.1.26.32.32,0,0,0,.1.25.37.37,0,0,0,.27.11.36.36,0,0,0,.26-.11.35.35,0,0,0,.11-.26.36.36,0,0,0-.11-.26Zm0,.5a.3.3,0,0,1-.23.09.33.33,0,0,1-.23-.09.36.36,0,0,1-.09-.24.33.33,0,0,1,.55-.23.29.29,0,0,1,.1.23A.31.31,0,0,1,46.51,37.4Zm-.18-.22.08,0a.12.12,0,0,0,0-.09.11.11,0,0,0,0-.09.21.21,0,0,0-.13,0h-.13v.47h.06v-.2h0s0,0,.08.08l.05.12h.08l-.06-.13c0-.06,0-.08-.08-.09Zm0,0h-.07V37h.06l.08,0s0,0,0,.06,0,.08-.09.08ZM34.62,33.5h.05V33h.16V33h-.37V33h.16v.47Zm.35-.36V33a.43.43,0,0,0,0,.05l.18.41h0l.18-.41s0,0,0-.05a.38.38,0,0,0,0,.1v.35h.07V33h-.08l-.16.36s0,0,0,.07h0s0,0,0-.06L35,33h-.08v.53H35v-.36Z"/><path class="cls-5" d="M59,43.54h0a3.6,3.6,0,0,1-3.65,3.59H4.64A3.6,3.6,0,0,1,1,43.54V12.13H59ZM59,4.73h0a3.6,3.6,0,0,0-3.65-3.59H4.64A3.6,3.6,0,0,0,1,4.72v7.41H59Z"/><ellipse class="cls-6" cx="8.14" cy="6.63" rx="1.53" ry="1.5"/><ellipse class="cls-6" cx="14.24" cy="6.63" rx="1.53" ry="1.5"/><ellipse class="cls-6" cx="20.34" cy="6.63" rx="1.53" ry="1.5"/><path class="cls-7" d="M59,43.41h0A3.59,3.59,0,0,1,55.31,47H4.64A3.59,3.59,0,0,1,1,43.41V12H59ZM59,4.6h0A3.59,3.59,0,0,0,55.31,1H4.64A3.59,3.59,0,0,0,1,4.59V12H59Z"/></g></g></svg>