<svg xmlns="http://www.w3.org/2000/svg" viewBox="0 0 60 48"><defs><style>.cls-1{fill:#4d449b;}.cls-1,.cls-3{fill-opacity:0.8;stroke:#333638;stroke-width:2px;}.cls-2{fill:#333638;}.cls-3,.cls-5{fill:#fff;}.cls-3{opacity:0.5;}.cls-4{fill:#554ea1;opacity:0.9;}</style></defs><g id="Layer_2" data-name="Layer 2"><g id="Layer_1-2" data-name="Layer 1"><path class="cls-1" d="M59,43.41h0A3.59,3.59,0,0,1,55.31,47H4.64A3.59,3.59,0,0,1,1,43.41V12H59ZM59,4.6h0A3.59,3.59,0,0,0,55.31,1H4.64A3.59,3.59,0,0,0,1,4.59V12H59Z"/><ellipse class="cls-2" cx="8.14" cy="6.5" rx="1.53" ry="1.5"/><ellipse class="cls-2" cx="14.24" cy="6.5" rx="1.53" ry="1.5"/><ellipse class="cls-2" cx="20.34" cy="6.5" rx="1.53" ry="1.5"/><path class="cls-3" d="M59,43.41h0A3.59,3.59,0,0,1,55.31,47H4.64A3.59,3.59,0,0,1,1,43.41V12H59ZM59,4.6h0A3.59,3.59,0,0,0,55.31,1H4.64A3.59,3.59,0,0,0,1,4.59V12H59Z"/><ellipse class="cls-2" cx="8.14" cy="6.5" rx="1.53" ry="1.5"/><ellipse class="cls-2" cx="14.24" cy="6.5" rx="1.53" ry="1.5"/><ellipse class="cls-2" cx="20.34" cy="6.5" rx="1.53" ry="1.5"/><rect class="cls-4" x="17.12" y="16.09" width="26.82" height="26.82"/><path class="cls-5" d="M19.67,34.32a.88.88,0,0,1-.6-.23.8.8,0,0,1,0-1.14.85.85,0,0,1,.6-.24.81.81,0,0,1,.6.24.77.77,0,0,1,0,1.14A.85.85,0,0,1,19.67,34.32Z"/><path class="cls-5" d="M29,34.19H27.49l-4-6.31a2.6,2.6,0,0,1-.25-.5h0a9.17,9.17,0,0,1,.05,1.18v5.63H21.91V25.6h1.61l3.87,6.17.32.52h0a7.48,7.48,0,0,1-.06-1.15V25.6H29Z"/><path class="cls-5" d="M35.55,34.19h-4.7V25.6h4.51v1.21H32.24v2.43h2.88v1.21H32.24V33h3.31Z"/><path class="cls-5" d="M42.23,26.81H39.82v7.38H38.43V26.81H36V25.6h6.2Z"/></g></g></svg>