<svg xmlns="http://www.w3.org/2000/svg" viewBox="0 0 94.79 10.85"><defs><style>.cls-1{fill:#333638;}</style></defs><g id="Layer_2" data-name="Layer 2"><g id="Layer_1-2" data-name="Layer 1"><path class="cls-1" d="M.56,10.82a.67.67,0,0,1-.39-.11.51.51,0,0,1-.17-.3A.9.9,0,0,1,.09,10L4.22.59A.9.9,0,0,1,4.53.17.73.73,0,0,1,5,0a.68.68,0,0,1,.41.14.79.79,0,0,1,.31.42L9.81,10a.71.71,0,0,1,.09.43.4.4,0,0,1-.15.3.58.58,0,0,1-.37.11.68.68,0,0,1-.44-.14,1.09,1.09,0,0,1-.27-.42L7.56,7.7l.6.31H1.71l.62-.31-1.1,2.56a1.33,1.33,0,0,1-.28.42A.56.56,0,0,1,.56,10.82ZM4.94,1.58,2.52,7.26,2.16,7H7.71l-.33.28L5,1.58ZM15,10.85a7.87,7.87,0,0,1-1.38-.12,6.84,6.84,0,0,1-1.26-.35,4.46,4.46,0,0,1-1-.57.81.81,0,0,1-.26-.3.67.67,0,0,1,0-.34.71.71,0,0,1,.15-.3.47.47,0,0,1,.29-.14.6.6,0,0,1,.36.11,4.8,4.8,0,0,0,1.44.7A6.48,6.48,0,0,0,15,9.75a3.29,3.29,0,0,0,2-.49,1.62,1.62,0,0,0,.66-1.34,1.26,1.26,0,0,0-.48-1,3.67,3.67,0,0,0-1.58-.61l-1.56-.32A4.28,4.28,0,0,1,12,5a2.47,2.47,0,0,1-.69-1.83A2.81,2.81,0,0,1,12.36.87,3.79,3.79,0,0,1,13.57.22,5.11,5.11,0,0,1,15.13,0a5.55,5.55,0,0,1,1.76.27,4.47,4.47,0,0,1,1.48.78.71.71,0,0,1,.23.32.53.53,0,0,1,0,.33.51.51,0,0,1-.16.25.45.45,0,0,1-.29.12A.6.6,0,0,1,17.79,2a4,4,0,0,0-1.25-.64,4.55,4.55,0,0,0-1.42-.21,3.62,3.62,0,0,0-1.38.24,2,2,0,0,0-.9.7,1.79,1.79,0,0,0-.32,1A1.51,1.51,0,0,0,13,4.23a2.93,2.93,0,0,0,1.45.62L16,5.18a4.82,4.82,0,0,1,2.24,1,2.14,2.14,0,0,1,.73,1.72A2.7,2.7,0,0,1,17.89,10a3.71,3.71,0,0,1-1.23.6A5.78,5.78,0,0,1,15,10.85Zm6.43,0a.64.64,0,0,1-.47-.17.73.73,0,0,1-.15-.48V.77A.61.61,0,0,1,21,.3a.62.62,0,0,1,.46-.17H25A3.73,3.73,0,0,1,27.65,1a3,3,0,0,1,.91,2.34,3,3,0,0,1-.91,2.34A3.72,3.72,0,0,1,25,6.5h-3v3.67a.73.73,0,0,1-.15.48A.59.59,0,0,1,21.47,10.82Zm.61-5.36h2.81a2.7,2.7,0,0,0,1.83-.54,2,2,0,0,0,.63-1.6,2,2,0,0,0-.63-1.61,2.65,2.65,0,0,0-1.83-.55H22.08ZM30,10.77a.81.81,0,0,1-.6-.22.84.84,0,0,1-.22-.6.8.8,0,0,1,.22-.59.78.78,0,0,1,.6-.24.75.75,0,0,1,.59.24.8.8,0,0,1,.22.59.84.84,0,0,1-.22.6A.77.77,0,0,1,30,10.77Zm3.58.05a.6.6,0,0,1-.44-.15A.68.68,0,0,1,33,10.2V.66a.7.7,0,0,1,.15-.47A.53.53,0,0,1,33.53,0a.54.54,0,0,1,.35.09,1,1,0,0,1,.27.28l6.54,8.72h-.36V.63a.62.62,0,0,1,.15-.44A.58.58,0,0,1,40.91,0a.53.53,0,0,1,.41.16.62.62,0,0,1,.15.44v9.59a.69.69,0,0,1-.14.45.43.43,0,0,1-.36.15.64.64,0,0,1-.36-.09,1.3,1.3,0,0,1-.28-.29L33.8,1.73h.35V10.2a.68.68,0,0,1-.15.47A.57.57,0,0,1,33.58,10.82Zm11.19-.11a.73.73,0,0,1-.51-.16A.73.73,0,0,1,44.1,10V.81a.66.66,0,0,1,.16-.49.66.66,0,0,1,.51-.19h5.58a.53.53,0,0,1,.39.14.52.52,0,0,1,.14.38.53.53,0,0,1-.14.39.53.53,0,0,1-.39.13H45.3V4.83H50a.53.53,0,0,1,.39.14.46.46,0,0,1,.13.37.47.47,0,0,1-.52.53H45.3V9.68h5.05a.52.52,0,1,1,0,1Zm11.09.11a.61.61,0,0,1-.45-.17.68.68,0,0,1-.16-.48v-9H51.87a.57.57,0,0,1-.42-.15A.53.53,0,0,1,51.3.66a.5.5,0,0,1,.15-.39.61.61,0,0,1,.42-.14h8a.61.61,0,0,1,.42.14.5.5,0,0,1,.15.39.56.56,0,0,1-.15.41.6.6,0,0,1-.42.13H56.49v9a.68.68,0,0,1-.16.48A.61.61,0,0,1,55.86,10.82Zm14.26,0a5.13,5.13,0,0,1-2.67-.66,4.39,4.39,0,0,1-1.71-1.88,6.59,6.59,0,0,1-.59-2.89,7.1,7.1,0,0,1,.33-2.25,4.81,4.81,0,0,1,1-1.7A4.24,4.24,0,0,1,68,.39,5.37,5.37,0,0,1,70.12,0a5.75,5.75,0,0,1,1.77.27A4.11,4.11,0,0,1,73.34,1a.7.7,0,0,1,.26.34.5.5,0,0,1,0,.36.59.59,0,0,1-.18.29.44.44,0,0,1-.3.1.74.74,0,0,1-.4-.15,3.71,3.71,0,0,0-1.19-.64,4.45,4.45,0,0,0-1.39-.21,3.75,3.75,0,0,0-2,.51,3.08,3.08,0,0,0-1.25,1.45,5.81,5.81,0,0,0-.42,2.33,5.9,5.9,0,0,0,.42,2.34,3.18,3.18,0,0,0,1.25,1.47,3.84,3.84,0,0,0,2,.49,4.54,4.54,0,0,0,1.39-.21,4.13,4.13,0,0,0,1.22-.66.63.63,0,0,1,.4-.13.44.44,0,0,1,.3.1.55.55,0,0,1,.17.27.53.53,0,0,1,0,.35.57.57,0,0,1-.23.31,4.37,4.37,0,0,1-1.48.83A5.85,5.85,0,0,1,70.12,10.85Zm7.85,0a3.52,3.52,0,0,1-1.84-.47,3.19,3.19,0,0,1-1.22-1.3,4.51,4.51,0,0,1-.42-2,4.73,4.73,0,0,1,.24-1.56,3.27,3.27,0,0,1,.71-1.2,3,3,0,0,1,1.09-.75A3.7,3.7,0,0,1,78,3.29a3.55,3.55,0,0,1,1.85.46A3.08,3.08,0,0,1,81,5.07a4.31,4.31,0,0,1,.43,2,4.73,4.73,0,0,1-.24,1.56,3.42,3.42,0,0,1-.7,1.2,3.18,3.18,0,0,1-1.11.76A3.8,3.8,0,0,1,78,10.85Zm0-1a2.15,2.15,0,0,0,1.19-.33,2.08,2.08,0,0,0,.78-1,3.64,3.64,0,0,0,.28-1.51A3.14,3.14,0,0,0,79.61,5,2,2,0,0,0,78,4.26a2.16,2.16,0,0,0-1.2.33,2.13,2.13,0,0,0-.78,1,3.81,3.81,0,0,0-.27,1.53,3.15,3.15,0,0,0,.62,2.08A2,2,0,0,0,78,9.87Zm5.92,1a.62.62,0,0,1-.46-.17.65.65,0,0,1-.15-.46V3.93a.61.61,0,0,1,.15-.45.54.54,0,0,1,.43-.16.57.57,0,0,1,.44.16.58.58,0,0,1,.16.45V5.15h-.15a2.39,2.39,0,0,1,.92-1.37,2.94,2.94,0,0,1,1.66-.51.45.45,0,0,1,.51.48.55.55,0,0,1-.12.41.63.63,0,0,1-.42.18l-.24,0A2.4,2.4,0,0,0,85.05,5a2.1,2.1,0,0,0-.54,1.53v3.63a.62.62,0,0,1-.17.46A.58.58,0,0,1,83.89,10.82Zm8,0a4.15,4.15,0,0,1-2-.45,3.32,3.32,0,0,1-1.29-1.31,4.2,4.2,0,0,1-.45-2,4.13,4.13,0,0,1,.45-2A3.36,3.36,0,0,1,89.8,3.77a3.47,3.47,0,0,1,1.83-.48A3.27,3.27,0,0,1,93,3.54a2.61,2.61,0,0,1,1,.71,3,3,0,0,1,.63,1.12,4.62,4.62,0,0,1,.22,1.49.45.45,0,0,1-.13.36.63.63,0,0,1-.39.1H89.05V6.53H94l-.24.19a3.41,3.41,0,0,0-.24-1.36,1.85,1.85,0,0,0-.7-.87,2,2,0,0,0-1.14-.3,2.32,2.32,0,0,0-1.31.36,2.12,2.12,0,0,0-.79,1A3.56,3.56,0,0,0,89.29,7v.09A3,3,0,0,0,90,9.15a2.47,2.47,0,0,0,1.9.72,3.83,3.83,0,0,0,1-.13,3.37,3.37,0,0,0,1-.45.6.6,0,0,1,.37-.12.39.39,0,0,1,.29.1.49.49,0,0,1,.1.54.57.57,0,0,1-.25.29,3.72,3.72,0,0,1-1.17.55A4.84,4.84,0,0,1,91.85,10.85Z"/></g></g></svg>