<svg xmlns="http://www.w3.org/2000/svg" viewBox="0 0 66.15 75"><defs><style>.cls-1,.cls-2,.cls-5{fill:none;}.cls-2,.cls-5{stroke:#333638;stroke-width:2.5px;}.cls-2,.cls-4{isolation:isolate;}.cls-2{opacity:0.31;}.cls-3{fill:#333638;fill-rule:evenodd;}.cls-4{fill:#f8eded;opacity:0.5;}</style></defs><g id="Layer_2" data-name="Layer 2"><g id="Layer_1-2" data-name="Layer 1"><path class="cls-1" d="M66.15,64.3c0,7-16.6,10.7-33,10.7S.05,71.3.05,64.3V10.7c0-7,16.6-10.7,33-10.7s33,3.7,33,10.7l.1,53.6Z"/><path class="cls-2" d="M64.85,64.2c0,.9-.6,1.9-2.1,3.1a23.42,23.42,0,0,1-6.7,3.1c-5.8,1.9-13.9,3-23,3a81.77,81.77,0,0,1-23-3,23.42,23.42,0,0,1-6.7-3.1c-1.5-1.2-2.1-2.2-2.1-3.1s.6-1.9,2.1-3.1a23.42,23.42,0,0,1,6.7-3.1c5.8-1.9,13.9-3,23-3a81.77,81.77,0,0,1,23,3,23.42,23.42,0,0,1,6.7,3.1C64.25,62.2,64.85,63.3,64.85,64.2Z"/><path class="cls-3" d="M33.05,75c16.4,0,33-3.7,33-10.7V10.7c.1-7-16.5-10.7-33-10.7S.05,3.7.05,10.7V64.3C.05,71.3,16.65,75,33.05,75Zm30.5-64.3c0-2.5-11.1-8.1-30.5-8.1S2.65,8.2,2.65,10.7V64.1c0,2.5,11.1,8.1,30.5,8.1s30.5-5.7,30.5-8.1V14.8l-.1-4.1Z"/><path class="cls-4" d="M33.05,2.6c19.3,0,30.5,5.7,30.5,8.1V64.1c0,2.5-11.1,8.1-30.5,8.1s-30.5-5.7-30.5-8.1V10.7C2.65,8.2,13.75,2.6,33.05,2.6Z"/><path class="cls-5" d="M64.85,10.5c0,.9-.6,1.9-2.1,3.1a23.42,23.42,0,0,1-6.7,3.1c-5.8,1.9-13.9,3-23,3a81.77,81.77,0,0,1-23-3,23.42,23.42,0,0,1-6.7-3.1c-1.5-1.2-2.1-2.2-2.1-3.1s.6-1.9,2.1-3.1a23.42,23.42,0,0,1,6.7-3.1c5.8-1.9,13.9-3,23-3a81.77,81.77,0,0,1,23,3,23.42,23.42,0,0,1,6.7,3.1C64.35,8.6,64.85,9.6,64.85,10.5Z"/></g></g></svg>