<?xml version="1.0" encoding="utf-8"?>
<!-- Generator: Adobe Illustrator 26.1.0, SVG Export Plug-In . SVG Version: 6.00 Build 0)  -->
<svg version="1.1" id="Layer_1" xmlns="http://www.w3.org/2000/svg" xmlns:xlink="http://www.w3.org/1999/xlink" x="0px" y="0px"
	 viewBox="0 0 66.1 93" style="enable-background:new 0 0 66.1 93;" xml:space="preserve">
<style type="text/css">
	.st0{fill-rule:evenodd;clip-rule:evenodd;fill:#333638;}
	.st1{fill:#2396ED;}
	.st2{opacity:0.4;fill:none;stroke:#333638;stroke-width:2.5;enable-background:new    ;}
	.st3{opacity:0.5;fill:#CCDFED;enable-background:new    ;}
	.st4{fill:#333638;}
	.st5{fill:#FFFFFF;}
	.st6{fill:none;stroke:#333638;stroke-width:2.5;}
</style>
<path class="st0" d="M33,75c16.4,0,33-3.7,33-10.7V10.7C66.1,3.7,49.5,0,33,0C16.6,0,0,3.7,0,10.7v53.6C0,71.3,16.6,75,33,75z
	 M63.5,10.7c0-2.5-11.1-8.1-30.5-8.1S2.6,8.2,2.6,10.7v4.1v13.7v4.1v13.7v4.1v13.7c0,2.5,11.1,8.1,30.5,8.1s30.5-5.7,30.5-8.1V50.6
	v-4.1V31.7v-4.1V14.8L63.5,10.7L63.5,10.7z"/>
<path class="st1" d="M52.7,39.2c-0.8-0.5-2.6-0.7-4-0.5c-0.2-1.3-0.9-2.4-2.2-3.4l-0.8-0.5l-0.5,0.7c-0.7,1-1,2.3-0.9,3.6
	c0,0.5,0.2,1.3,0.7,2c-0.5,0.3-1.4,0.6-2.7,0.6H18.6L18.5,42c-0.2,1.3-0.2,5.4,2.5,8.5c2,2.4,5.1,3.6,9,3.6c8.6,0,15-3.9,18-11
	c1.2,0,3.7,0,5-2.4c0-0.1,0.1-0.2,0.3-0.7l0.1-0.3L52.7,39.2z M37.5,30h-3.6v3.2h3.6V30z M37.5,33.9h-3.6v3.2h3.6V33.9z M33.3,33.9
	h-3.6v3.2h3.6V33.9z M29,33.9h-3.6v3.2H29V33.9z M24.7,37.8h-3.6V41h3.6V37.8z M29,37.8h-3.6V41H29V37.8z M33.3,37.8h-3.6V41h3.6
	V37.8z M37.5,37.8h-3.6V41h3.6V37.8z M41.8,37.8h-3.6V41h3.6V37.8z"/>
<path class="st2" d="M64.8,64.1c0,0.9-0.6,1.9-2.1,3.1c-1.5,1.1-3.8,2.2-6.7,3.1c-5.8,1.9-13.9,3-23,3c-9,0-17.1-1.2-23-3
	c-2.9-0.9-5.2-2-6.7-3.1C1.8,66,1.2,65,1.2,64.1s0.6-1.9,2.1-3.1c1.5-1.1,3.8-2.2,6.7-3.1c5.8-1.9,13.9-3,23-3c9,0,17.1,1.2,23,3
	c2.9,0.9,5.2,2,6.7,3.1S64.8,63.2,64.8,64.1z"/>
<path class="st3" d="M33,2.6c19.3,0,30.5,5.7,30.5,8.1v4.1v12.7v4.1v14.7v4.1v13.7c0,2.5-11.1,8.1-30.5,8.1
	c-19.3,0-30.5-5.7-30.5-8.1V50.6v-4.1V32.7v-4.1V14.8v-4.1C2.6,8.2,13.7,2.6,33,2.6z"/>
<path class="st4" d="M30.5,82.9c-1.8,0.5-3.2,1.8-3.7,3.6H8c-0.8,0-1.4,0.6-1.4,1.4s0.6,1.4,1.4,1.4h18.8c0.6,2.2,2.7,3.8,5.1,3.8
	s4.5-1.6,5.1-3.8h18.1c0.8,0,1.4-0.6,1.4-1.4s-0.6-1.4-1.4-1.4H37c-0.5-1.7-1.9-3.1-3.7-3.6"/>
<path class="st5" d="M31.9,90.5c1.5,0,2.7-1.2,2.7-2.6s-1.2-2.6-2.7-2.6s-2.7,1.2-2.7,2.6S30.4,90.5,31.9,90.5z"/>
<path class="st4" d="M33.3,82.9v-8.5c0-0.8-0.6-1.4-1.4-1.4s-1.4,0.6-1.4,1.4v8.5"/>
<path class="st6" d="M64.8,10.5c0,0.9-0.6,1.9-2.1,3.1c-1.5,1.1-3.8,2.2-6.7,3.1c-5.8,1.9-13.9,3-23,3c-9,0-17.1-1.2-23-3
	c-2.9-0.9-5.2-2-6.7-3.1c-1.5-1.2-2.1-2.2-2.1-3.1s0.6-1.9,2.1-3.1C4.8,6.3,7.1,5.2,10,4.3c5.8-1.9,13.9-3,23-3c9,0,17.1,1.2,23,3
	c2.9,0.9,5.2,2,6.7,3.1C64.3,8.6,64.8,9.6,64.8,10.5z"/>
</svg>
