<?xml version="1.0" encoding="utf-8"?>
<!-- Generator: Adobe Illustrator 26.1.0, SVG Export Plug-In . SVG Version: 6.00 Build 0)  -->
<svg version="1.1" id="Layer_1" xmlns="http://www.w3.org/2000/svg" xmlns:xlink="http://www.w3.org/1999/xlink" x="0px" y="0px"
	 viewBox="0 0 64 72.99" style="enable-background:new 0 0 64 72.99;" xml:space="preserve">
<style type="text/css">
	.st0{fill:#F8EDED;}
	.st1{opacity:0.31;fill:none;stroke:#333638;stroke-width:2.5;enable-background:new    ;}
	.st2{fill:#EE6A5D;}
	.st3{fill:#F1A7A2;}
	.st4{fill:#F7F7F7;}
	.st5{fill:#C45B4F;}
	.st6{fill:#ED786D;}
	.st7{fill:#FFFFFF;filter:url(#Adobe_OpacityMaskFilter);}
	.st8{fill-rule:evenodd;clip-rule:evenodd;}
	.st9{mask:url(#path-14-outside-1_3_358_00000116931840950123221410000001605433270864659851_);fill:#333638;}
	.st10{opacity:0.5;fill:#F8EDED;enable-background:new    ;}
	.st11{fill-rule:evenodd;clip-rule:evenodd;fill:#333638;}
	.st12{fill:none;stroke:#333638;stroke-width:2.5;}
</style>
<path class="st0" d="M64,62.57C64,69.42,47.9,73,32,73S0,69.42,0,62.57V10.43C0,3.58,16.1,0,32,0s32,3.58,32,10.43V62.57z"/>
<g id="Layer_2_00000127722548687267890460000003808476212759368369_">
	<g id="Layer_1-2">
		<path class="st1" d="M62.55,62.67c0,0.87-0.58,1.83-2.03,2.99c-1.99,1.33-4.17,2.34-6.48,2.99c-5.61,1.83-13.44,2.9-22.24,2.9
			c-7.51,0.09-15-0.88-22.24-2.9c-2.3-0.65-4.49-1.66-6.48-2.99c-1.45-1.16-2.03-2.12-2.03-2.99s0.58-1.83,2.03-2.99
			c1.99-1.33,4.17-2.34,6.48-2.99c5.61-1.83,13.44-2.9,22.24-2.9c7.51-0.09,15,0.88,22.24,2.9c2.3,0.65,4.49,1.66,6.48,2.99
			C61.97,60.74,62.55,61.81,62.55,62.67z"/>
	</g>
</g>
<path class="st2" d="M51.51,49.68c-2.3,1.12-14.22,5.71-16.76,6.95c-2.54,1.24-3.95,1.23-5.95,0.33c-2-0.9-14.69-5.69-16.97-6.72
	c-1.14-0.51-1.74-0.94-1.74-1.35v-4.08c0,0,16.51-3.37,19.18-4.26c2.67-0.9,3.59-0.93,5.86-0.15c2.27,0.78,15.83,3.07,18.08,3.84
	c0,0,0,3.64,0,4.02C53.2,48.66,52.68,49.11,51.51,49.68z"/>
<path class="st3" d="M51.51,45.6c-2.3,1.12-14.22,5.71-16.76,6.95c-2.54,1.24-3.95,1.23-5.95,0.33c-2-0.9-14.69-5.69-16.97-6.72
	c-2.28-1.02-2.33-1.73-0.09-2.55c2.24-0.82,14.86-5.46,17.52-6.35c2.67-0.9,3.59-0.93,5.86-0.15c2.27,0.78,14.12,5.19,16.36,5.96
	C53.72,43.84,53.81,44.47,51.51,45.6z"/>
<path class="st2" d="M51.51,43.02c-2.3,1.12-14.22,5.71-16.76,6.95c-2.54,1.24-3.95,1.23-5.95,0.33c-2-0.9-14.69-5.69-16.97-6.72
	c-1.14-0.51-1.74-0.94-1.74-1.35v-4.08c0,0,16.51-3.37,19.18-4.26c2.67-0.9,3.59-0.93,5.86-0.15c2.27,0.78,15.83,3.07,18.08,3.84
	c0,0,0,3.64,0,4.02C53.2,42.01,52.68,42.45,51.51,43.02z"/>
<path class="st3" d="M51.51,38.94c-2.3,1.12-14.22,5.71-16.76,6.95c-2.54,1.24-3.95,1.23-5.95,0.33c-2-0.9-14.69-5.69-16.97-6.72
	c-2.28-1.02-2.33-1.73-0.09-2.55c2.24-0.82,14.86-5.46,17.52-6.35c2.67-0.9,3.59-0.93,5.86-0.15c2.27,0.78,14.12,5.19,16.36,5.96
	C53.72,37.19,53.81,37.82,51.51,38.94z"/>
<path class="st2" d="M51.51,36.12c-2.3,1.12-14.22,5.71-16.76,6.95c-2.54,1.24-3.95,1.23-5.95,0.33c-2-0.9-14.69-5.69-16.97-6.72
	c-1.14-0.51-1.74-0.94-1.74-1.35v-4.08c0,0,16.51-3.37,19.18-4.26c2.67-0.9,3.59-0.93,5.86-0.15c2.27,0.78,15.83,3.07,18.08,3.84
	c0,0,0,3.64,0,4.02C53.2,35.11,52.68,35.55,51.51,36.12z"/>
<path class="st3" d="M51.51,32.04c-2.3,1.12-14.22,5.71-16.76,6.95c-2.54,1.24-3.95,1.23-5.95,0.33s-14.69-5.69-16.97-6.72
	c-2.28-1.02-2.33-1.73-0.09-2.55c2.24-0.82,14.86-5.46,17.52-6.35c2.67-0.9,3.59-0.93,5.86-0.15c2.27,0.78,14.12,5.19,16.36,5.96
	C53.72,30.29,53.81,30.92,51.51,32.04z"/>
<path class="st4" d="M37.29,28.11l-3.74,0.36l-0.84,1.88l-1.35-2.1l-4.31-0.36l3.22-1.09l-0.97-1.67l3.01,1.1l2.84-0.87l-0.77,1.73
	L37.29,28.11z"/>
<path class="st4" d="M32.49,37.25l-6.97-2.71l9.99-1.44L32.49,37.25z"/>
<path class="st4" d="M22.83,33.04c2.95,0,5.34-0.87,5.34-1.94c0-1.07-2.39-1.94-5.34-1.94s-5.34,0.87-5.34,1.94
	C17.49,32.17,19.88,33.04,22.83,33.04z"/>
<path class="st5" d="M41.7,28.63l5.91,2.19L41.71,33L41.7,28.63z"/>
<path class="st6" d="M35.16,31.05l6.54-2.42L41.71,33l-0.64,0.23L35.16,31.05z"/>
<defs>
	<filter id="Adobe_OpacityMaskFilter" filterUnits="userSpaceOnUse" x="8.08" y="21" width="47.12" height="38.6">
		<feColorMatrix  type="matrix" values="1 0 0 0 0  0 1 0 0 0  0 0 1 0 0  0 0 0 1 0"/>
	</filter>
</defs>
<mask maskUnits="userSpaceOnUse" x="8.08" y="21" width="47.12" height="38.6" id="path-14-outside-1_3_358_00000116931840950123221410000001605433270864659851_">
	<rect x="7.08" y="21" class="st7" width="49" height="39"/>
	<path class="st8" d="M11.74,30.06c-1.13,0.41-1.67,0.8-1.65,1.2v4.08c0,0.41,0.6,0.84,1.74,1.35c0.08,0.04,0.18,0.08,0.3,0.13
		l-0.38,0.14c-1.13,0.41-1.67,0.8-1.65,1.2v4.08c0,0.41,0.6,0.84,1.73,1.34l-0.08,0.03c-1.13,0.41-1.67,0.79-1.65,1.2v4.08
		c0,0.41,0.6,0.84,1.74,1.35c1.18,0.53,5.13,2.06,8.95,3.55c3.58,1.39,7.05,2.74,8.02,3.17c2,0.9,3.41,0.91,5.95-0.33
		c1.3-0.63,5.06-2.15,8.73-3.62h0c3.49-1.41,6.9-2.78,8.03-3.33c1.17-0.57,1.69-1.01,1.69-1.42l0-4.02
		c0.03-0.41-0.56-0.77-1.72-1.17l-0.04-0.01l0.07-0.03c1.17-0.57,1.69-1.01,1.69-1.42l0-4.02c0.03-0.41-0.56-0.77-1.72-1.17
		c-0.1-0.03-0.21-0.07-0.34-0.12c0.14-0.06,0.27-0.12,0.37-0.17c1.17-0.57,1.69-1.01,1.69-1.42l0-4.02
		c0.03-0.41-0.56-0.77-1.72-1.17c-1.12-0.38-4.62-1.67-8.13-2.96v0l0,0l0,0l0,0l0,0c-3.54-1.3-7.09-2.61-8.23-3
		c-2.27-0.78-3.19-0.75-5.86,0.15c-2.49,0.84-13.69,4.94-16.96,6.15L11.74,30.06z"/>
</mask>
<path class="st9" d="M10.08,31.26h2v-0.05l0-0.05L10.08,31.26z M11.74,30.06l0.69,1.88l0,0L11.74,30.06z M11.82,36.69l-0.82,1.83
	l0,0L11.82,36.69z M12.12,36.82l0.69,1.88l4.74-1.74l-4.64-1.98L12.12,36.82z M11.74,36.96l0.69,1.88l0,0L11.74,36.96z M10.08,38.16
	h2v-0.05l0-0.05L10.08,38.16z M11.81,43.58l0.69,1.88l4.61-1.69l-4.48-2.01L11.81,43.58z M11.74,43.61l0.69,1.88l0,0L11.74,43.61z
	 M10.08,44.81h2v-0.05l0-0.05L10.08,44.81z M11.82,50.24l-0.82,1.83v0L11.82,50.24z M20.78,53.79l0.72-1.86L20.78,53.79z
	 M28.8,56.96l0.82-1.83l0,0L28.8,56.96z M34.75,56.63l-0.88-1.8l0,0L34.75,56.63z M43.48,53l0.75,1.86l0.01,0l0.01,0L43.48,53z
	 M43.48,53l-0.75-1.86l-0.01,0l-0.01,0L43.48,53z M51.51,49.68l-0.88-1.8l0,0L51.51,49.68z M53.2,48.26l-2,0v0L53.2,48.26z
	 M53.2,44.24l-2-0.13l0,0.06v0.06L53.2,44.24z M51.48,43.07l-0.65,1.89l0,0L51.48,43.07z M51.44,43.06l-0.87-1.8l-4.37,2.11
	l4.59,1.58L51.44,43.06z M51.51,43.02l0.87,1.8l0.01,0L51.51,43.02z M53.2,41.61l-2,0v0L53.2,41.61z M53.2,37.59l-2-0.13l0,0.06
	v0.06L53.2,37.59z M51.48,36.42l0.65-1.89h0L51.48,36.42z M51.14,36.3l-0.83-1.82l-4.52,2.05l4.69,1.65L51.14,36.3z M51.51,36.12
	l-0.88-1.8l0,0L51.51,36.12z M53.2,34.71l-2,0v0L53.2,34.71z M53.2,30.69l-2-0.13l0,0.06v0.06L53.2,30.69z M51.48,29.52l-0.65,1.89
	l0,0L51.48,29.52z M43.35,26.55l-0.73,1.86l0.02,0.01l0.02,0.01L43.35,26.55z M43.35,26.55l0.73-1.86l-0.02-0.01l-0.02-0.01
	L43.35,26.55z M43.35,26.55l-0.7,1.88l0,0L43.35,26.55z M43.35,26.55l0.7-1.88l0,0L43.35,26.55z M43.35,26.55l0.7-1.88l-0.01,0
	L43.35,26.55z M43.35,26.55l-0.69,1.88l0,0L43.35,26.55z M35.12,23.55l-0.65,1.89l0,0L35.12,23.55z M29.26,23.7l0.64,1.9h0
	L29.26,23.7z M12.3,29.85l0.69,1.88l0,0L12.3,29.85z M12.08,31.16c0.02,0.4-0.11,0.71-0.24,0.9c-0.11,0.17-0.21,0.23-0.19,0.22
	c0.01-0.01,0.07-0.05,0.22-0.12c0.14-0.07,0.32-0.14,0.56-0.23l-1.38-3.76c-0.61,0.23-1.24,0.5-1.74,0.86
	c-0.45,0.32-1.29,1.08-1.23,2.32L12.08,31.16z M12.08,35.34v-4.08h-4v4.08H12.08z M12.64,34.86c-0.25-0.11-0.45-0.21-0.61-0.3
	c-0.16-0.09-0.25-0.15-0.3-0.18c-0.05-0.04,0.01,0,0.1,0.12c0.09,0.13,0.25,0.42,0.25,0.84h-4c0,1.21,0.85,1.94,1.23,2.23
	c0.48,0.36,1.08,0.67,1.69,0.95L12.64,34.86z M12.91,34.98c-0.1-0.04-0.19-0.08-0.26-0.11l-1.63,3.65c0.1,0.04,0.21,0.09,0.33,0.14
	L12.91,34.98z M12.43,38.83l0.38-0.14l-1.38-3.76l-0.38,0.14L12.43,38.83z M12.08,38.06c0.02,0.4-0.11,0.71-0.24,0.9
	c-0.11,0.17-0.21,0.23-0.19,0.22c0.01-0.01,0.08-0.05,0.22-0.12c0.14-0.07,0.32-0.14,0.56-0.23l-1.38-3.76
	c-0.61,0.23-1.24,0.5-1.74,0.86c-0.44,0.32-1.29,1.08-1.23,2.32L12.08,38.06z M12.08,42.24v-4.08h-4v4.08H12.08z M12.63,41.76
	c-0.25-0.11-0.45-0.21-0.61-0.3c-0.16-0.09-0.25-0.15-0.29-0.18c-0.05-0.04,0.01,0,0.1,0.12c0.09,0.13,0.25,0.42,0.25,0.84h-4
	c0,1.21,0.85,1.94,1.23,2.22c0.48,0.36,1.08,0.67,1.68,0.94L12.63,41.76z M12.43,45.49l0.08-0.03l-1.38-3.76l-0.08,0.03L12.43,45.49
	z M12.08,44.72c0.02,0.4-0.11,0.71-0.24,0.9c-0.11,0.17-0.21,0.23-0.19,0.22c0.01-0.01,0.07-0.05,0.22-0.12
	c0.14-0.07,0.32-0.14,0.56-0.23l-1.38-3.76c-0.61,0.23-1.24,0.5-1.74,0.86c-0.45,0.32-1.29,1.08-1.23,2.32L12.08,44.72z
	 M12.08,48.89v-4.08h-4v4.08H12.08z M12.64,48.42c-0.25-0.11-0.45-0.21-0.61-0.3c-0.16-0.09-0.25-0.15-0.3-0.18
	c-0.05-0.04,0.01,0,0.1,0.12c0.09,0.13,0.25,0.42,0.25,0.84h-4c0,1.21,0.85,1.94,1.23,2.23c0.48,0.36,1.08,0.67,1.69,0.95
	L12.64,48.42z M21.5,51.92c-3.86-1.5-7.74-3.01-8.86-3.51l-1.63,3.65c1.24,0.55,5.26,2.12,9.05,3.58L21.5,51.92z M29.62,55.13
	c-1.03-0.46-4.57-1.84-8.11-3.21l-1.45,3.73c3.62,1.41,7.02,2.73,7.93,3.13L29.62,55.13z M33.87,54.83
	c-1.15,0.56-1.85,0.74-2.38,0.76c-0.5,0.02-1.03-0.09-1.87-0.46l-1.63,3.65c1.16,0.52,2.34,0.87,3.68,0.81
	c1.31-0.06,2.58-0.49,3.97-1.17L33.87,54.83z M42.73,51.15c-3.62,1.46-7.48,3.01-8.86,3.68l1.75,3.59c1.22-0.59,4.88-2.07,8.6-3.57
	L42.73,51.15z M42.71,51.16L42.71,51.16l1.54,3.69v0L42.71,51.16z M50.63,47.88c-1.04,0.51-4.35,1.84-7.9,3.27l1.49,3.71
	c3.44-1.38,6.95-2.79,8.16-3.38L50.63,47.88z M51.2,48.26c0-0.35,0.12-0.61,0.2-0.75c0.08-0.13,0.14-0.17,0.1-0.14
	c-0.03,0.03-0.11,0.09-0.27,0.18c-0.15,0.09-0.35,0.2-0.6,0.32l1.75,3.6c0.63-0.31,1.23-0.65,1.7-1.04
	c0.42-0.35,1.12-1.07,1.12-2.18L51.2,48.26z M51.2,44.24l0,4.02l4,0l0-4.02L51.2,44.24z M50.83,44.96c0.25,0.09,0.45,0.16,0.6,0.23
	c0.15,0.07,0.22,0.11,0.24,0.12c0.03,0.02-0.08-0.05-0.21-0.22c-0.15-0.21-0.29-0.55-0.27-0.98l3.99,0.26
	c0.09-1.33-0.86-2.09-1.3-2.38c-0.51-0.34-1.15-0.6-1.76-0.81L50.83,44.96z M50.79,44.95l0.04,0.01l1.3-3.78l-0.04-0.01L50.79,44.95
	z M50.64,41.22l-0.07,0.03l1.74,3.6l0.07-0.03L50.64,41.22z M51.2,41.61c0-0.35,0.12-0.61,0.2-0.75c0.08-0.13,0.14-0.17,0.1-0.14
	c-0.03,0.03-0.11,0.09-0.27,0.18c-0.15,0.09-0.35,0.2-0.6,0.32l1.75,3.59c0.63-0.31,1.23-0.65,1.7-1.04
	c0.42-0.35,1.12-1.07,1.12-2.18L51.2,41.61z M51.2,37.59l0,4.02l4,0l0-4.02L51.2,37.59z M50.83,38.31c0.25,0.09,0.45,0.16,0.6,0.23
	c0.15,0.07,0.22,0.11,0.24,0.12c0.03,0.02-0.08-0.05-0.21-0.22c-0.15-0.21-0.29-0.55-0.27-0.98l3.99,0.26
	c0.09-1.33-0.86-2.09-1.3-2.38c-0.51-0.34-1.15-0.6-1.76-0.81L50.83,38.31z M50.47,38.18c0.13,0.05,0.26,0.09,0.36,0.13l1.3-3.78
	c-0.09-0.03-0.2-0.07-0.33-0.11L50.47,38.18z M50.63,34.33c-0.08,0.04-0.19,0.09-0.32,0.15l1.65,3.64c0.15-0.07,0.29-0.14,0.42-0.2
	L50.63,34.33z M51.2,34.71c0-0.35,0.12-0.61,0.2-0.75c0.08-0.13,0.14-0.17,0.1-0.14c-0.03,0.03-0.11,0.09-0.27,0.18
	c-0.15,0.09-0.35,0.2-0.6,0.32l1.75,3.59c0.63-0.31,1.23-0.65,1.7-1.04c0.42-0.35,1.12-1.07,1.12-2.18L51.2,34.71z M51.2,30.69
	l0,4.02l4,0l0-4.02L51.2,30.69z M50.83,31.41c0.25,0.09,0.45,0.16,0.6,0.23c0.15,0.07,0.22,0.11,0.24,0.12
	c0.03,0.02-0.08-0.05-0.21-0.22c-0.15-0.21-0.29-0.55-0.27-0.98l3.99,0.26c0.09-1.33-0.86-2.09-1.3-2.38
	c-0.51-0.34-1.15-0.6-1.76-0.81L50.83,31.41z M42.66,28.43c3.49,1.29,7.03,2.59,8.17,2.98l1.3-3.78c-1.09-0.37-4.56-1.65-8.09-2.95
	L42.66,28.43z M42.62,28.42L42.62,28.42l1.45-3.73v0L42.62,28.42z M42.66,28.43L42.66,28.43l1.39-3.75l0,0L42.66,28.43z
	 M42.65,28.43L42.65,28.43l1.39-3.75l0,0L42.65,28.43z M42.65,28.43L42.65,28.43l1.39-3.75l0,0L42.65,28.43z M42.66,28.43
	L42.66,28.43l1.38-3.75l0,0L42.66,28.43z M34.47,25.45c1.11,0.38,4.63,1.68,8.19,2.98l1.38-3.75c-3.52-1.3-7.1-2.61-8.27-3.01
	L34.47,25.45z M29.9,25.6c1.31-0.44,1.97-0.58,2.5-0.6c0.49-0.01,1.02,0.08,2.08,0.45l1.3-3.78c-1.21-0.41-2.28-0.69-3.48-0.66
	c-1.17,0.03-2.31,0.35-3.66,0.81L29.9,25.6z M12.99,31.73c3.3-1.21,14.45-5.3,16.91-6.13l-1.27-3.79
	c-2.53,0.85-13.76,4.97-17.02,6.16L12.99,31.73z M12.43,31.93l0.56-0.21l-1.38-3.76l-0.56,0.21L12.43,31.93z"/>
<path class="st10" d="M32,0c20.32,0,32,5.91,32,8.51v4.32v13.3v4.32v15.39v4.32v14.34C64,67.09,52.32,73,32,73S0,67.09,0,64.49
	V50.15v-4.32V31.49v-4.32V12.83V8.51C0,5.91,11.68,0,32,0z"/>
<path class="st11" d="M32,73c15.9,0,32-3.58,32-10.43V10.43C64,3.58,47.9,0,32,0S0,3.58,0,10.43v52.14C0,69.42,16.1,73,32,73z
	 M61.51,10.43C61.51,8,50.74,2.5,32,2.5S2.49,8,2.49,10.43v4.02v13.36v4.02v13.36v4.02v13.36C2.49,65,13.26,70.5,32,70.5
	s29.51-5.5,29.51-7.93V49.21v-4.02V30.86v-4.02V14.45V10.43z"/>
<path class="st12" d="M62.75,10.5c0,0.89-0.55,1.95-2.03,3.1c-1.46,1.13-3.66,2.21-6.48,3.14c-5.63,1.85-13.5,3.01-22.24,3.01
	s-16.6-1.16-22.24-3.01c-2.82-0.93-5.02-2-6.48-3.14c-1.48-1.15-2.03-2.21-2.03-3.1S1.8,8.55,3.28,7.4
	c1.46-1.13,3.66-2.21,6.48-3.14C15.4,2.41,23.26,1.25,32,1.25s16.6,1.16,22.24,3.01c2.82,0.93,5.02,2,6.48,3.14
	C62.2,8.55,62.75,9.61,62.75,10.5z"/>
</svg>
