<?xml version="1.0" encoding="utf-8"?>
<!-- Generator: Adobe Illustrator 26.1.0, SVG Export Plug-In . SVG Version: 6.00 Build 0)  -->
<svg version="1.1" id="Layer_1" xmlns="http://www.w3.org/2000/svg" xmlns:xlink="http://www.w3.org/1999/xlink" x="0px" y="0px"
	 viewBox="0 0 66.071396 93" style="enable-background:new 0 0 66.071396 93;" xml:space="preserve">
<style type="text/css">
	.st0{fill:#FFFFFF;}
	.st1{fill:#333638;}
	.st2{fill:#F2F2F3;}
	.st3{opacity:0.4;fill:none;stroke:#333638;stroke-width:2.5;enable-background:new    ;}
	.st4{fill-rule:evenodd;clip-rule:evenodd;fill:#333638;}
	.st5{fill:#1A1918;}
	.st6{opacity:0.5;fill:#EEEEEE;enable-background:new    ;}
	.st7{fill:none;stroke:#333638;stroke-width:2.5;}
</style>
<path class="st0" d="M31.767933,90.466003c1.487701,0,2.693699-1.167999,2.693699-2.609009s-1.205997-2.609009-2.693699-2.609009
	c-1.487698,0-2.693699,1.167999-2.693699,2.609009S30.280235,90.466003,31.767933,90.466003z"/>
<path class="st1" d="M33.204632,82.912994v-8.522003C33.204632,73.621002,32.563232,73,31.767933,73
	s-1.4366,0.621002-1.4366,1.390991v8.522003"/>
<path class="st2" d="M66.071396,64.286011C66.071396,71.321014,49.455303,75,33.035702,75C16.615999,75,0,71.321014,0,64.286011
	V10.713989C0,3.678986,16.615999,0,33.035702,0c16.419601,0,33.035694,3.678986,33.035694,10.713989V64.286011z"/>
<path class="st3" d="M64.806046,64.50531c0,0.877014-0.559906,1.93399-2.094807,3.088013
	c-1.513596,1.138977-3.783096,2.21698-6.699699,3.144989c-5.818901,1.85199-13.935097,3.016998-22.955498,3.016998
	c-9.0205,0-17.136703-1.165009-22.955502-3.016998c-2.916698-0.928009-5.1862-2.006012-6.6998-3.144989
	c-1.534901-1.154022-2.0947-2.210999-2.0947-3.088013s0.559799-1.93399,2.0947-3.088013
	c1.513599-1.138977,3.783102-2.21698,6.6998-3.144989c5.818798-1.85199,13.935001-3.016998,22.955502-3.016998
	c9.020401,0,17.136597,1.165009,22.955498,3.016998c2.916603,0.928009,5.186104,2.006012,6.699699,3.144989
	C64.24614,62.57132,64.806046,63.628296,64.806046,64.50531z"/>
<path class="st4" d="M33.035702,75c16.419601,0,33.035694-3.678986,33.035694-10.713989V10.713989
	C66.071396,3.678986,49.455303,0,33.035702,0C16.615999,0,0,3.678986,0,10.713989v53.572021C0,71.321014,16.615999,75,33.035702,75z
	 M63.500004,10.713989c0-2.490997-11.116104-8.142975-30.464302-8.142975S2.5714,8.222992,2.5714,10.713989v4.134003v13.723022
	v4.133972v13.723999v4.133026v13.723999c0,2.490997,11.116102,8.142975,30.464302,8.142975s30.464302-5.651978,30.464302-8.142975
	V50.562012v-4.133026V31.704987v-4.133972V14.847992V10.713989z"/>
<path class="st5" d="M48.392902,44c0,8.285004-6.715401,15-15,15C25.108898,59,18.3929,52.285004,18.3929,44
	c0-8.283997,6.716097-15,15.000002-15C41.677601,29,48.392902,35.716003,48.392902,44z"/>
<path class="st0" d="M33.645397,38.162994l3.881706,9.580994L31.663799,43.125L33.645397,38.162994z M40.541103,49.950989
	l-5.970802-14.369995c-0.170502-0.414001-0.511299-0.632996-0.924904-0.632996c-0.414497,0-0.780098,0.218994-0.9505,0.632996
	l-6.553497,15.761993h2.241898l2.5942-6.498993l7.741707,6.255005c0.311401,0.251007,0.535995,0.36499,0.828102,0.36499
	c0.5849,0,1.0961-0.437988,1.0961-1.070984C40.643406,50.290009,40.607006,50.126007,40.541103,49.950989z"/>
<path class="st6" d="M33.035702,2.571014c19.348198,0,30.464203,5.651978,30.464203,8.142975v4.134003v12.723022v4.133972v14.723999
	v4.133026v13.723999c0,2.490997-11.116005,8.142975-30.464203,8.142975c-19.348303,0-30.464302-5.651978-30.464302-8.142975
	V50.562012v-4.133026V32.704987v-4.133972V14.847992v-4.134003C2.5714,8.222992,13.687399,2.571014,33.035702,2.571014z"/>
<path class="st1" d="M30.458202,82.912994c-1.7957,0.485016-3.155403,1.813995-3.668503,3.553009H7.972399
	c-0.7953,0-1.436699,0.621002-1.436699,1.390991c0,0.77002,0.641399,1.390991,1.436699,1.390991H26.7897
	C27.431103,91.410004,29.444897,93,31.894901,93c2.437096,0,4.450996-1.60199,5.105202-3.752014h18.098999
	c0.795303,0,1.4366-0.620972,1.4366-1.390991c0-0.769989-0.641296-1.390991-1.4366-1.390991h-18.1119
	c-0.500198-1.739014-1.872704-3.056-3.668503-3.553009"/>
<path class="st0" d="M31.869198,90.466003c1.487701,0,2.693703-1.167999,2.693703-2.609009s-1.206001-2.609009-2.693703-2.609009
	c-1.487694,0-2.693695,1.167999-2.693695,2.609009S30.381504,90.466003,31.869198,90.466003z"/>
<path class="st1" d="M33.305897,82.912994v-8.522003C33.305897,73.621002,32.664501,73,31.869198,73
	c-0.795296,0-1.4366,0.621002-1.4366,1.390991v8.522003"/>
<path class="st7" d="M64.8311,10.5c0,0.877014-0.559891,1.93399-2.094799,3.088013
	c-1.513596,1.138977-3.783096,2.21698-6.699699,3.144989C50.217701,18.584991,42.101505,19.75,33.081104,19.75
	c-9.0205,0-17.136705-1.165009-22.955503-3.016998C7.208902,15.804993,4.9394,14.72699,3.4258,13.588013
	C1.8909,12.43399,1.3311,11.377014,1.3311,10.5S1.8909,8.56601,3.4258,7.411987c1.513599-1.138977,3.783102-2.21698,6.6998-3.144989
	C15.944399,2.415009,24.060604,1.25,33.081104,1.25c9.020401,0,17.136597,1.165009,22.955498,3.016998
	c2.916603,0.928009,5.186104,2.006012,6.699699,3.144989C64.27121,8.56601,64.8311,9.622986,64.8311,10.5z"/>
</svg>
