<?xml version="1.0" encoding="utf-8"?>
<!-- Generator: Adobe Illustrator 26.1.0, SVG Export Plug-In . SVG Version: 6.00 Build 0)  -->
<svg version="1.1" id="Layer_1" xmlns="http://www.w3.org/2000/svg" xmlns:xlink="http://www.w3.org/1999/xlink" x="0px" y="0px"
	 viewBox="0 0 66.1 93" style="enable-background:new 0 0 66.1 93;" xml:space="preserve">
<style type="text/css">
	.st0{fill:#FFFFFF;}
	.st1{fill:#333638;}
	.st2{opacity:0.4;fill:none;stroke:#333638;stroke-width:2.5;enable-background:new    ;}
	.st3{opacity:0.32;fill:#EEEEEE;enable-background:new    ;}
	.st4{fill-rule:evenodd;clip-rule:evenodd;fill:#333638;}
	.st5{fill:none;stroke:#333638;stroke-width:2.5;}
</style>
<path class="st0" d="M31.8,90.5c1.5,0,2.7-1.2,2.7-2.6s-1.2-2.6-2.7-2.6c-1.5,0-2.7,1.2-2.7,2.6S30.3,90.5,31.8,90.5z"/>
<path class="st1" d="M33.2,82.9v-8.5c0-0.8-0.6-1.4-1.4-1.4s-1.4,0.6-1.4,1.4v8.5"/>
<path class="st2" d="M64.7,64.5c0,0.9-0.6,1.9-2.1,3.1c-1.5,1.1-3.8,2.2-6.7,3.1c-5.8,1.9-13.9,3-23,3c-9,0-17.1-1.2-23-3
	c-2.9-0.9-5.2-2-6.7-3.1c-1.5-1.2-2.1-2.2-2.1-3.1c0-0.9,0.6-1.9,2.1-3.1c1.5-1.1,3.8-2.2,6.7-3.1c5.8-1.9,13.9-3,23-3
	c9,0,17.1,1.2,23,3c2.9,0.9,5.2,2,6.7,3.1C64.2,62.5,64.7,63.6,64.7,64.5z"/>
<path class="st1" d="M17,44.4c0,0.4,0.2,0.7,0.5,0.9l6.9,5.7c0.2,0.2,0.5,0.3,0.8,0.3c0.4,0,0.7-0.2,1-0.4c0.4-0.5,0.4-1.2-0.1-1.7
	c0,0,0,0-0.1-0.1l-5.8-4.8l5.8-4.8c0.5-0.4,0.6-1.1,0.2-1.6c0,0,0-0.1-0.1-0.1c-0.4-0.5-1.2-0.6-1.7-0.2c0,0,0,0,0,0l-6.9,5.7
	C17.2,43.7,17,44.1,17,44.4z"/>
<path class="st1" d="M46.4,44.4l-5.8,4.8c-0.5,0.4-0.6,1.1-0.2,1.6c0,0,0,0.1,0.1,0.1c0.2,0.3,0.6,0.4,1,0.4c0.3,0,0.6-0.1,0.8-0.3
	l6.9-5.7c0.5-0.4,0.6-1.1,0.2-1.7c-0.1-0.1-0.1-0.1-0.2-0.2l-6.9-5.7c-0.5-0.4-1.3-0.4-1.7,0.1c0,0,0,0,0,0
	c-0.4,0.5-0.4,1.2,0.1,1.6c0,0,0,0,0.1,0.1L46.4,44.4z"/>
<path class="st1" d="M35.1,35.7l-5.8,16.5c-0.2,0.6,0.1,1.4,0.7,1.6c0.1,0.1,0.3,0.1,0.5,0.1c0.5,0,1-0.3,1.2-0.8l5.9-16.5
	c0.3-0.6,0-1.3-0.7-1.6c0,0,0,0,0,0C36.1,34.8,35.3,35.1,35.1,35.7z"/>
<path class="st3" d="M33,2.6c19.3,0,30.5,5.7,30.5,8.1v4.1v12.7v4.1v14.7v4.1v13.7c0,2.5-11.1,8.1-30.5,8.1
	c-19.3,0-30.5-5.7-30.5-8.1V50.6v-4.1V32.7v-4.1V14.8v-4.1C2.6,8.2,13.7,2.6,33,2.6z"/>
<path class="st4" d="M33,75c16.4,0,33-3.7,33-10.7V10.7C66.1,3.7,49.5,0,33,0C16.6,0,0,3.7,0,10.7v53.6C0,71.3,16.6,75,33,75z
	 M63.5,10.7c0-2.5-11.1-8.1-30.5-8.1S2.6,8.2,2.6,10.7v4.1v13.7v4.1v13.7v4.1v13.7c0,2.5,11.1,8.1,30.5,8.1s30.5-5.7,30.5-8.1V50.6
	v-4.1V31.7v-4.1V14.8V10.7z"/>
<path class="st1" d="M30.5,82.9c-1.8,0.5-3.2,1.8-3.7,3.6H8c-0.8,0-1.4,0.6-1.4,1.4c0,0.8,0.6,1.4,1.4,1.4h18.8
	c0.6,2.2,2.7,3.8,5.1,3.8c2.4,0,4.5-1.6,5.1-3.8h18.1c0.8,0,1.4-0.6,1.4-1.4c0-0.8-0.6-1.4-1.4-1.4H37c-0.5-1.7-1.9-3.1-3.7-3.6"/>
<path class="st0" d="M31.9,90.5c1.5,0,2.7-1.2,2.7-2.6s-1.2-2.6-2.7-2.6c-1.5,0-2.7,1.2-2.7,2.6S30.4,90.5,31.9,90.5z"/>
<path class="st1" d="M33.3,82.9v-8.5c0-0.8-0.6-1.4-1.4-1.4c-0.8,0-1.4,0.6-1.4,1.4v8.5"/>
<path class="st5" d="M64.8,10.5c0,0.9-0.6,1.9-2.1,3.1c-1.5,1.1-3.8,2.2-6.7,3.1c-5.8,1.9-13.9,3-23,3c-9,0-17.1-1.2-23-3
	c-2.9-0.9-5.2-2-6.7-3.1c-1.5-1.2-2.1-2.2-2.1-3.1s0.6-1.9,2.1-3.1c1.5-1.1,3.8-2.2,6.7-3.1c5.8-1.9,13.9-3,23-3c9,0,17.1,1.2,23,3
	c2.9,0.9,5.2,2,6.7,3.1C64.3,8.6,64.8,9.6,64.8,10.5z"/>
</svg>
