<?xml version="1.0" encoding="utf-8"?>
<!-- Generator: Adobe Illustrator 26.1.0, SVG Export Plug-In . SVG Version: 6.00 Build 0)  -->
<svg version="1.1" id="Layer_1" xmlns="http://www.w3.org/2000/svg" xmlns:xlink="http://www.w3.org/1999/xlink" x="0px" y="0px"
	 viewBox="0 0 60 48" style="enable-background:new 0 0 60 48;" xml:space="preserve">
<style type="text/css">
	.st0{fill:#DBD2F7;fill-opacity:0.8;stroke:#333638;stroke-width:2;}
	.st1{fill:#702AF7;}
	.st2{fill:#333638;}
	.st3{opacity:0.25;fill:url(#SVGID_1_);fill-opacity:0.8;stroke:#333638;stroke-width:2;enable-background:new    ;}
</style>
<g id="Layer_2_00000173873056642197765260000012896613268304338841_">
	<g id="Layer_1-2">
		<path class="st0" d="M59,43.4L59,43.4c0,2-1.6,3.6-3.6,3.6h-0.1H4.6c-2,0-3.6-1.6-3.6-3.5c0,0,0,0,0-0.1V12h58V43.4z M59,4.6
			L59,4.6c0-2-1.6-3.6-3.6-3.6h-0.1H4.6C2.7,1,1,2.6,1,4.5c0,0,0,0,0,0.1V12h58V4.6z"/>
		<path class="st1" d="M45.6,24.6c-0.7,4.1-2.7,7.8-5.8,10.4s-7.1,4.2-11.2,4.2c-0.8,0-1.7,0-2.5-0.2c-3.5-0.6-6.2-3.6-6.4-7.2
			c0-2,0.8-3.8,2.2-5.2c2.9-2.9,7.5-2.9,10.4-0.1c1.4,1.4,2.2,3.2,2.2,5.1c0,1.2-0.5,2.3-1.6,2.3c-1.2,0-1.7-0.8-1.7-2v-3.1
			c0-1-0.9-1.9-1.9-1.9h-2.6c-1.5,0-3,0.8-3.8,2.1c-1.4,2.1-0.8,4.9,1.3,6.3c0.5,0.3,1.1,0.6,1.8,0.7c1.5,0.2,3.1-0.3,4.1-1.5
			l0.1-0.1l0.1,0.2c0.6,0.9,1.7,1.4,2.8,1.3c2-0.1,3.5-1.8,3.4-3.8c0-0.8-0.1-1.6-0.3-2.4c-0.5-2.2-1.8-4.2-3.6-5.5
			c-3.8-2.8-9.1-2.2-12.3,1.4c-1.5,1.7-2.4,3.9-2.4,6.2c0,2.4,1,4.7,2.7,6.5c1.7,1.7,4,2.7,6.4,2.8c0,0,0.7,0.1,1.5,0
			c3.8,0,7.4-1.1,10.6-3.2c0,0,0.1,0,0.1,0.1c-3.1,3.3-7.5,5.2-12.1,5c-3,0-5.9-1.1-7.9-3.2s-3.2-5-3.2-8c0-3.6,1.7-6.9,4.5-9
			c1.9-1.4,4.2-2.1,6.5-2.2h3.5c2.8,0,5.4-1.2,7.3-3.2c0,0,0,0,0.1,0c0.1,0,0.1,0,0.2,0.1c0,0,0,0,0,0.1c-0.2,1.6-0.7,3.1-1.5,4.4
			c0,0,0,0.1,0,0.1c0,0,0.1,0.1,0.1,0c3.3-0.7,6-3,7.4-6.1c0,0,0,0,0.1-0.1c0.1,0,0.1,0,0.2,0c0,0,0,0,0.1,0.1
			C45.6,18.7,46.1,21.7,45.6,24.6L45.6,24.6z M26.9,29c-1.5,0-2.7,1.2-2.7,2.7c0,0.2,0,0.4,0,0.5c0.2,1.1,1.1,1.9,2.1,2.2
			c1.5,0.3,2.9-0.7,3.2-2.2c0-0.2,0-0.4,0-0.5v-2.5c0-0.1-0.1-0.2-0.2-0.2L26.9,29z"/>
		<ellipse class="st2" cx="8.1" cy="6.5" rx="1.5" ry="1.5"/>
		<ellipse class="st2" cx="14.2" cy="6.5" rx="1.5" ry="1.5"/>
		<ellipse class="st2" cx="20.3" cy="6.5" rx="1.5" ry="1.5"/>
	</g>
</g>
<linearGradient id="SVGID_1_" gradientUnits="userSpaceOnUse" x1="1" y1="2896.05" x2="59" y2="2896.05" gradientTransform="matrix(1 0 0 1 0 -2872)">
	<stop  offset="0" style="stop-color:#2484C6;stop-opacity:0.1"/>
	<stop  offset="0.18" style="stop-color:#2484C6;stop-opacity:5.000000e-02"/>
	<stop  offset="0.48" style="stop-color:#2484C6;stop-opacity:1.000000e-02"/>
	<stop  offset="1" style="stop-color:#2484C6;stop-opacity:0"/>
</linearGradient>
<path class="st3" d="M59,43.5L59,43.5c0,2-1.6,3.6-3.6,3.6h-0.1H4.6c-2,0-3.6-1.6-3.6-3.5c0,0,0,0,0-0.1V12h58V43.5z M59,4.6L59,4.6
	c0-2-1.6-3.6-3.6-3.6h-0.1H4.6C2.7,1,1,2.6,1,4.6c0,0,0,0,0,0.1v7.4h58V4.6z"/>
</svg>
