<?xml version="1.0" encoding="utf-8"?>
<!-- Generator: Adobe Illustrator 26.1.0, SVG Export Plug-In . SVG Version: 6.00 Build 0)  -->
<svg version="1.1" id="Layer_1" xmlns="http://www.w3.org/2000/svg" xmlns:xlink="http://www.w3.org/1999/xlink" x="0px" y="0px"
	 viewBox="0 0 35 24.1" style="enable-background:new 0 0 35 24.1;" xml:space="preserve">
<style type="text/css">
	.st0{fill:#2396ED;}
</style>
<path class="st0" d="M34.3,9.2c-0.8-0.5-2.6-0.7-4-0.5c-0.2-1.3-0.9-2.4-2.2-3.4l-0.8-0.5l-0.5,0.7c-0.7,1-1,2.3-0.9,3.6
	c0,0.5,0.2,1.3,0.7,2c-0.5,0.3-1.4,0.6-2.7,0.6H0.2L0.1,12c-0.2,1.3-0.2,5.4,2.5,8.5c2,2.4,5.1,3.6,9,3.6c8.6,0,15-3.9,18-11
	c1.2,0,3.7,0,5-2.4c0-0.1,0.1-0.2,0.3-0.7L35,9.7L34.3,9.2z M19.1,0h-3.6v3.2h3.6V0z M19.1,3.9h-3.6v3.2h3.6V3.9z M14.9,3.9h-3.6
	v3.2h3.6V3.9z M10.6,3.9H7v3.2h3.6V3.9z M6.3,7.8H2.7V11h3.6V7.8z M10.6,7.8H7V11h3.6V7.8z M14.9,7.8h-3.6V11h3.6V7.8z M19.1,7.8
	h-3.6V11h3.6V7.8z M23.4,7.8h-3.6V11h3.6V7.8z"/>
</svg>
