<?xml version="1.0" encoding="utf-8"?>
<!-- Generator: Adobe Illustrator 26.1.0, SVG Export Plug-In . SVG Version: 6.00 Build 0)  -->
<svg version="1.1" id="Layer_1" xmlns="http://www.w3.org/2000/svg" xmlns:xlink="http://www.w3.org/1999/xlink" x="0px" y="0px"
	 viewBox="0 0 138 50" style="enable-background:new 0 0 138 50;" xml:space="preserve">
<style type="text/css">
	.st0{fill:none;stroke:#333638;stroke-width:2.5;}
	.st1{fill:#F2F2F3;}
	.st2{fill:none;stroke:#333638;stroke-width:2.627;}
	.st3{fill:none;stroke:#333638;stroke-width:2.6592;}
	.st4{fill:#F2F2F3;stroke:#333638;stroke-width:2.4868;}
	.st5{fill:#333638;}
	.st6{opacity:0.5;fill:#F2F2F3;enable-background:new    ;}
	.st7{opacity:0.36;}
	.st8{fill:#F2F2F3;stroke:#333638;stroke-width:2.4784;}
</style>
<path class="st0" d="M2.3,25L2.3,25"/>
<path class="st1" d="M26.1,1.2h86c13.1,0,23.8,10.6,23.8,23.8l0,0c0,13.1-10.6,23.8-23.8,23.8h-86C12.9,48.8,2.3,38.1,2.3,25l0,0
	C2.3,11.9,12.9,1.2,26.1,1.2z"/>
<path class="st2" d="M24.3,1.2h90.4"/>
<path class="st3" d="M116.2,48.8H24.7"/>
<path class="st0" d="M26.1,1.2H12.7C6.5,1.2,2.1,11.7,2.1,25s4.5,23.8,10.6,23.8h13.4"/>
<g>
	<path class="st1" d="M125.3,47.4c5.7,0,9.4-12.4,9.4-22.4S131,2.6,125.3,2.6h-14.4v44.8C110.9,47.4,125.3,47.4,125.3,47.4z"/>
	<path class="st4" d="M136.1,25c0,6.7-1.3,12.8-3.2,17.1c-2,4.4-4.6,6.6-7,6.6c-2.4,0-4.9-2.2-7-6.6c-2-4.3-3.2-10.3-3.2-17.1
		s1.3-12.8,3.2-17.1c2-4.4,4.6-6.6,7-6.6c2.4,0,4.9,2.2,7,6.6C134.8,12.2,136.1,18.3,136.1,25z"/>
</g>
<path class="st5" d="M56.9,24.3c0,1.4-0.3,2.5-0.8,3.5c-0.5,1-1.3,1.6-2.3,2c0.2,0.1,0.3,0.2,0.5,0.3c0.2,0.2,0.3,0.4,0.5,0.6l0.5,1
	c0.1,0.1,0.1,0.3,0.1,0.4c0,0.2-0.1,0.4-0.2,0.5c-0.2,0.1-0.3,0.2-0.5,0.2c-0.3,0-0.5-0.1-0.7-0.4l-0.8-1.5
	c-0.3-0.5-0.8-0.8-1.5-0.8c-0.9,0-1.7-0.2-2.4-0.6c-0.7-0.4-1.2-1-1.6-1.7s-0.6-1.6-0.6-2.6c0-1.2,0.2-2.2,0.6-3.1
	c0.4-0.9,1-1.6,1.8-2c0.8-0.5,1.6-0.7,2.6-0.7s1.9,0.2,2.6,0.6c0.7,0.4,1.3,1,1.7,1.7C56.7,22.4,56.9,23.3,56.9,24.3z M51.9,28.8
	c1.1,0,1.9-0.4,2.5-1.2c0.6-0.8,0.9-1.9,0.9-3.4c0-1.2-0.3-2.1-0.8-2.8s-1.4-1-2.4-1c-1.1,0-1.9,0.4-2.5,1.2
	c-0.6,0.8-0.9,1.9-0.9,3.3c0,1.2,0.3,2.1,0.8,2.8C50.1,28.5,50.9,28.8,51.9,28.8z M63,30.1c-1.4,0-2.4-0.3-3.1-1
	c-0.7-0.6-1-1.6-1-2.8c0-0.1,0-0.3,0-0.6l0.5-5.6c0-0.2,0.1-0.4,0.2-0.5c0.2-0.1,0.3-0.2,0.6-0.2s0.4,0.1,0.5,0.2
	c0.1,0.1,0.2,0.3,0.2,0.5l-0.5,5.6c0,0.1,0,0.3,0,0.5c0,1.8,0.9,2.6,2.6,2.6c0.9,0,1.6-0.2,2.1-0.7c0.5-0.5,0.8-1.2,0.8-2.2l0.5-5.9
	c0-0.2,0.1-0.4,0.2-0.5c0.2-0.1,0.3-0.2,0.6-0.2c0.2,0,0.4,0.1,0.5,0.2c0.1,0.1,0.2,0.3,0.2,0.6l-0.4,5.7c-0.1,1.4-0.5,2.5-1.3,3.2
	C65.4,29.8,64.3,30.1,63,30.1z M71.8,20.7L71.5,24H76c0.2,0,0.4,0.1,0.5,0.2s0.2,0.2,0.2,0.4c0,0.2-0.1,0.4-0.2,0.5
	c-0.1,0.1-0.3,0.2-0.6,0.2h-4.5l-0.3,3.5h4.8c0.2,0,0.4,0.1,0.5,0.2s0.2,0.2,0.2,0.4c0,0.2-0.1,0.4-0.2,0.5
	c-0.1,0.1-0.3,0.2-0.6,0.2h-5.5c-0.2,0-0.4-0.1-0.6-0.2c-0.1-0.1-0.2-0.3-0.2-0.6l0.7-9.1c0-0.2,0.1-0.4,0.2-0.5
	c0.1-0.1,0.3-0.2,0.6-0.2h5.5c0.2,0,0.4,0.1,0.5,0.2s0.2,0.2,0.2,0.4c0,0.4-0.2,0.6-0.8,0.6C76.6,20.7,71.8,20.7,71.8,20.7z
	 M82.7,30.1c-1.4,0-2.4-0.3-3.1-1c-0.7-0.6-1-1.6-1-2.8c0-0.1,0-0.3,0-0.6l0.4-5.6c0-0.2,0.1-0.4,0.2-0.5c0.2-0.1,0.3-0.2,0.6-0.2
	s0.4,0.1,0.5,0.2c0.1,0.1,0.2,0.3,0.2,0.5l-0.4,5.6c0,0.1,0,0.3,0,0.5c0,1.8,0.9,2.6,2.6,2.6c0.9,0,1.6-0.2,2.1-0.7
	c0.5-0.5,0.8-1.2,0.8-2.2l0.5-5.9c0-0.2,0.1-0.4,0.2-0.5c0.2-0.1,0.3-0.2,0.6-0.2c0.2,0,0.4,0.1,0.5,0.2c0.1,0.1,0.2,0.3,0.2,0.6
	l-0.4,5.7c-0.1,1.4-0.5,2.5-1.3,3.2C85.1,29.8,84,30.1,82.7,30.1z M91.5,20.7L91.2,24h4.4c0.2,0,0.4,0.1,0.5,0.2s0.2,0.2,0.2,0.4
	c0,0.2-0.1,0.4-0.2,0.5c-0.1,0.1-0.3,0.2-0.6,0.2h-4.5l-0.3,3.5h4.8c0.2,0,0.4,0.1,0.5,0.2s0.2,0.2,0.2,0.4c0,0.2-0.1,0.4-0.2,0.5
	c-0.1,0.1-0.3,0.2-0.6,0.2H90c-0.2,0-0.4-0.1-0.6-0.2c-0.1-0.1-0.2-0.3-0.2-0.6l0.7-9.1c0-0.2,0.1-0.4,0.2-0.5
	c0.1-0.1,0.3-0.2,0.6-0.2h5.5c0.2,0,0.4,0.1,0.5,0.2c0.1,0.1,0.2,0.3,0.2,0.4c0,0.4-0.2,0.6-0.8,0.6H91.5z"/>
<path class="st0" d="M112.1,1.2h13.4c6.1,0,10.6,10.5,10.6,23.8s-4.5,23.8-10.6,23.8h-13.4"/>
<g>
	<path class="st1" d="M12.8,47.3c-5.7,0-9.4-12.4-9.4-22.3S7.1,2.7,12.8,2.7h14.4v44.6H12.8z"/>
	<path class="st6" d="M12.8,47.3c-5.7,0-9.4-12.4-9.4-22.3S7.1,2.7,12.8,2.7h14.4v44.6H12.8z"/>
</g>
<g class="st7">
	<path class="st1" d="M12.8,47.3c-5.7,0-9.4-12.4-9.4-22.3S7.1,2.7,12.8,2.7h14.4v44.6H12.8z"/>
	<path class="st8" d="M2.1,25c0,6.7,1.2,12.7,3.2,17c2,4.4,4.6,6.5,6.9,6.5c2.4,0,4.9-2.1,6.9-6.5c2-4.3,3.2-10.3,3.2-17
		s-1.2-12.7-3.2-17c-2-4.4-4.6-6.5-6.9-6.5C9.9,1.5,7.3,3.6,5.3,8C3.3,12.3,2.1,18.3,2.1,25z"/>
</g>
</svg>
