<?xml version="1.0" encoding="utf-8"?>
<!-- Generator: Adobe Illustrator 26.1.0, SVG Export Plug-In . SVG Version: 6.00 Build 0)  -->
<svg version="1.1" id="Layer_1" xmlns="http://www.w3.org/2000/svg" xmlns:xlink="http://www.w3.org/1999/xlink" x="0px" y="0px"
	 viewBox="0 0 138 50" style="enable-background:new 0 0 138 50;" xml:space="preserve">
<style type="text/css">
	.st0{fill:none;stroke:#333638;stroke-width:2.5;}
	.st1{fill:#F2F2F3;}
	.st2{fill:none;stroke:#333638;stroke-width:2.627;}
	.st3{fill:none;stroke:#333638;stroke-width:2.6592;}
	.st4{fill:#F2F2F3;filter:url(#Adobe_OpacityMaskFilter);}
	.st5{mask:url(#mask0_3_246_00000135664440687642500910000010331329171892988843_);}
	.st6{fill:#F2F2F3;stroke:#333638;stroke-width:2.5;}
	.st7{fill:#333638;}
	.st8{fill:#F2F2F3;filter:url(#Adobe_OpacityMaskFilter_00000022531831296305365520000016188521646940952710_);}
	.st9{mask:url(#mask1_3_246_00000098918888383353590930000006989667012653083832_);}
	.st10{opacity:0.5;fill:#F2F2F3;enable-background:new    ;}
	.st11{fill:#F2F2F3;filter:url(#Adobe_OpacityMaskFilter_00000041995132736172514560000011096248312488912007_);}
	.st12{opacity:0.36;mask:url(#mask0_3_246_00000135675949489965941480000005095657795962938035_);}
</style>
<path class="st0" d="M2.32,25L2.32,25"/>
<path class="st1" d="M26.07,1.25h86c13.12,0,23.75,10.63,23.75,23.75l0,0c0,13.12-10.63,23.75-23.75,23.75h-86
	C12.95,48.75,2.32,38.12,2.32,25l0,0C2.32,11.88,12.95,1.25,26.07,1.25z"/>
<path class="st2" d="M24.28,1.25h90.37"/>
<path class="st3" d="M116.16,48.75H24.68"/>
<path class="st0" d="M26.07,1.25h-13.4C6.54,1.25,2.07,11.74,2.07,25c0,13.26,4.47,23.75,10.6,23.75h13.4"/>
<defs>
	<filter id="Adobe_OpacityMaskFilter" filterUnits="userSpaceOnUse" x="0.53" y="0" width="26.54" height="50">
		<feColorMatrix  type="matrix" values="1 0 0 0 0  0 1 0 0 0  0 0 1 0 0  0 0 0 1 0"/>
	</filter>
</defs>
<mask maskUnits="userSpaceOnUse" x="0.53" y="0" width="26.54" height="50" id="mask0_3_246_00000135664440687642500910000010331329171892988843_">
	<path class="st4" d="M12.57,47.5c-5.7,0-9.5-12.5-9.5-22.5s3.8-22.5,9.5-22.5h14.5v45H12.57z"/>
</mask>
<g class="st5">
	<path class="st1" d="M12.57,47.5c-5.7,0-9.5-12.5-9.5-22.5s3.8-22.5,9.5-22.5h14.5v45H12.57z"/>
	<path class="st6" d="M1.78,25c0,6.77,1.26,12.83,3.25,17.16c2.04,4.43,4.6,6.59,7,6.59c2.39,0,4.96-2.16,7-6.59
		c1.99-4.33,3.25-10.39,3.25-17.16c0-6.77-1.26-12.83-3.25-17.16c-2.04-4.43-4.6-6.59-7-6.59c-2.39,0-4.96,2.16-7,6.59
		C3.04,12.17,1.78,18.23,1.78,25z"/>
</g>
<path class="st7" d="M56.93,24.3c0,1.35-0.28,2.51-0.83,3.47c-0.54,0.96-1.31,1.64-2.33,2.03c0.18,0.07,0.34,0.18,0.48,0.33
	c0.15,0.16,0.3,0.37,0.45,0.63l0.51,0.96c0.07,0.13,0.1,0.26,0.1,0.39c0,0.2-0.08,0.36-0.24,0.48c-0.15,0.13-0.33,0.19-0.52,0.19
	c-0.32,0-0.55-0.14-0.69-0.42l-0.78-1.45c-0.28-0.5-0.77-0.76-1.47-0.78c-0.91-0.02-1.71-0.24-2.4-0.65
	c-0.68-0.41-1.21-0.99-1.58-1.73s-0.56-1.61-0.56-2.62c0-1.17,0.2-2.19,0.61-3.08c0.42-0.88,1.01-1.56,1.76-2.04
	c0.76-0.48,1.64-0.72,2.64-0.72s1.86,0.2,2.58,0.6c0.73,0.4,1.28,0.98,1.67,1.74C56.73,22.38,56.93,23.27,56.93,24.3z M51.9,28.84
	c1.07,0,1.91-0.4,2.52-1.2c0.62-0.81,0.93-1.93,0.93-3.35c0-1.2-0.28-2.12-0.84-2.76c-0.56-0.64-1.36-0.96-2.4-0.96
	c-1.07,0-1.91,0.41-2.53,1.22c-0.61,0.81-0.91,1.92-0.91,3.34c0,1.19,0.28,2.11,0.84,2.75C50.06,28.52,50.86,28.84,51.9,28.84z
	 M62.96,30.12c-1.36,0-2.39-0.33-3.09-0.98c-0.69-0.65-1.03-1.6-1.03-2.84c0-0.13,0.01-0.32,0.03-0.58l0.45-5.62
	c0.01-0.22,0.09-0.4,0.24-0.54c0.15-0.14,0.34-0.21,0.57-0.21s0.41,0.07,0.54,0.23c0.13,0.14,0.19,0.32,0.18,0.55l-0.45,5.61
	c-0.01,0.11-0.01,0.27-0.01,0.48c0,1.76,0.88,2.64,2.64,2.64c0.89,0,1.58-0.23,2.06-0.69c0.49-0.47,0.77-1.2,0.85-2.2l0.47-5.86
	c0.01-0.22,0.09-0.4,0.24-0.54c0.15-0.14,0.33-0.21,0.56-0.21c0.23,0,0.41,0.07,0.54,0.21c0.14,0.14,0.2,0.33,0.18,0.57l-0.45,5.7
	c-0.11,1.43-0.54,2.5-1.31,3.23C65.41,29.76,64.34,30.12,62.96,30.12z M71.79,20.67L71.52,24h4.45c0.21,0,0.38,0.06,0.5,0.17
	c0.12,0.11,0.18,0.25,0.18,0.43c0,0.21-0.07,0.38-0.19,0.49c-0.13,0.11-0.32,0.17-0.56,0.17h-4.47l-0.28,3.49h4.75
	c0.22,0,0.39,0.06,0.51,0.17c0.12,0.11,0.18,0.25,0.18,0.43c0,0.2-0.07,0.36-0.19,0.48C76.27,29.94,76.08,30,75.83,30h-5.54
	c-0.25,0-0.43-0.07-0.56-0.19c-0.12-0.13-0.17-0.32-0.15-0.57l0.72-9.08c0.01-0.24,0.08-0.42,0.22-0.54c0.14-0.13,0.33-0.2,0.57-0.2
	h5.54c0.21,0,0.38,0.06,0.5,0.17c0.12,0.11,0.18,0.25,0.18,0.43c0,0.43-0.25,0.65-0.75,0.65H71.79z M82.65,30.12
	c-1.36,0-2.39-0.33-3.09-0.98c-0.69-0.65-1.04-1.6-1.04-2.84c0-0.13,0.01-0.32,0.03-0.58l0.45-5.62c0.01-0.22,0.09-0.4,0.24-0.54
	c0.15-0.14,0.34-0.21,0.57-0.21c0.23,0,0.41,0.07,0.54,0.23c0.13,0.14,0.19,0.32,0.18,0.55l-0.45,5.61
	c-0.01,0.11-0.01,0.27-0.01,0.48c0,1.76,0.88,2.64,2.64,2.64c0.89,0,1.57-0.23,2.06-0.69c0.49-0.47,0.77-1.2,0.85-2.2l0.47-5.86
	c0.01-0.22,0.09-0.4,0.24-0.54c0.15-0.14,0.33-0.21,0.56-0.21c0.23,0,0.41,0.07,0.54,0.21c0.14,0.14,0.2,0.33,0.18,0.57l-0.45,5.7
	c-0.11,1.43-0.54,2.5-1.31,3.23C85.1,29.76,84.03,30.12,82.65,30.12z M91.48,20.67L91.21,24h4.45c0.21,0,0.38,0.06,0.5,0.17
	c0.12,0.11,0.18,0.25,0.18,0.43c0,0.21-0.07,0.38-0.19,0.49c-0.13,0.11-0.32,0.17-0.56,0.17h-4.47l-0.28,3.49h4.75
	c0.22,0,0.39,0.06,0.51,0.17c0.12,0.11,0.18,0.25,0.18,0.43c0,0.2-0.07,0.36-0.19,0.48C95.95,29.94,95.76,30,95.51,30h-5.54
	c-0.25,0-0.43-0.07-0.56-0.19c-0.12-0.13-0.17-0.32-0.15-0.57l0.72-9.08c0.01-0.24,0.08-0.42,0.22-0.54c0.14-0.13,0.33-0.2,0.57-0.2
	h5.54c0.21,0,0.38,0.06,0.5,0.17C96.94,19.7,97,19.84,97,20.02c0,0.43-0.25,0.65-0.75,0.65H91.48z"/>
<path class="st0" d="M112.07,1.25h13.4c6.14,0,10.6,10.49,10.6,23.75s-4.47,23.75-10.6,23.75h-13.4"/>
<defs>
	
		<filter id="Adobe_OpacityMaskFilter_00000103975497134583957170000007364192271720485508_" filterUnits="userSpaceOnUse" x="111.07" y="2.5" width="24" height="45">
		<feColorMatrix  type="matrix" values="1 0 0 0 0  0 1 0 0 0  0 0 1 0 0  0 0 0 1 0"/>
	</filter>
</defs>
<mask maskUnits="userSpaceOnUse" x="111.07" y="2.5" width="24" height="45" id="mask1_3_246_00000098918888383353590930000006989667012653083832_">
	<path style="fill:#F2F2F3;filter:url(#Adobe_OpacityMaskFilter_00000103975497134583957170000007364192271720485508_);" d="
		M125.57,47.5c5.7,0,9.5-12.5,9.5-22.5s-3.8-22.5-9.5-22.5h-14.5v45H125.57z"/>
</mask>
<g class="st9">
	<path class="st1" d="M125.57,47.5c5.7,0,9.5-12.5,9.5-22.5s-3.8-22.5-9.5-22.5h-14.5v45H125.57z"/>
	<path class="st10" d="M125.57,47.5c5.7,0,9.5-12.5,9.5-22.5s-3.8-22.5-9.5-22.5h-14.5v45H125.57z"/>
</g>
<defs>
	
		<filter id="Adobe_OpacityMaskFilter_00000097460847450519140530000002117629273042503091_" filterUnits="userSpaceOnUse" x="110.42" y="0" width="26.54" height="50">
		<feColorMatrix  type="matrix" values="1 0 0 0 0  0 1 0 0 0  0 0 1 0 0  0 0 0 1 0"/>
	</filter>
</defs>
<mask maskUnits="userSpaceOnUse" x="110.42" y="0" width="26.54" height="50" id="mask0_3_246_00000135675949489965941480000005095657795962938035_">
	<path style="fill:#F2F2F3;filter:url(#Adobe_OpacityMaskFilter_00000097460847450519140530000002117629273042503091_);" d="
		M124.92,2.5c5.7,0,9.5,12.5,9.5,22.5s-3.8,22.5-9.5,22.5h-14.5v-45H124.92z"/>
</mask>
<g class="st12">
	<path class="st1" d="M124.92,2.5c5.7,0,9.5,12.5,9.5,22.5s-3.8,22.5-9.5,22.5h-14.5v-45H124.92z"/>
	<path class="st6" d="M135.72,25c0-6.77-1.26-12.83-3.25-17.16c-2.04-4.43-4.6-6.59-7-6.59c-2.39,0-4.96,2.16-7,6.59
		c-1.99,4.33-3.25,10.39-3.25,17.16c0,6.77,1.26,12.83,3.25,17.16c2.04,4.43,4.6,6.59,7,6.59c2.39,0,4.96-2.16,7-6.59
		C134.45,37.83,135.72,31.77,135.72,25z"/>
</g>
</svg>
