<?xml version="1.0" encoding="utf-8"?>
<!-- Generator: Adobe Illustrator 26.1.0, SVG Export Plug-In . SVG Version: 6.00 Build 0)  -->
<svg version="1.1" id="Layer_1" xmlns="http://www.w3.org/2000/svg" xmlns:xlink="http://www.w3.org/1999/xlink" x="0px" y="0px"
	 viewBox="0 0 112 133" style="enable-background:new 0 0 112 133;" xml:space="preserve">
<style type="text/css">
	.st0{fill:#F9FBFB;}
	.st1{fill:none;stroke:#333638;stroke-width:2;stroke-linecap:round;}
</style>
<g id="Layer_2_00000161592519979384865800000005604816529062390442_">
	<g id="Layer_1-2">
		<path class="st0" d="M10,0h92c5.5,0,10,4.5,10,10v113c0,5.5-4.5,10-10,10H10c-5.5,0-10-4.5-10-10V10C0,4.5,4.5,0,10,0z"/>
		<path class="st1" d="M10,1h92c5,0,9,4,9,9v113c0,5-4,9-9,9H10c-5,0-9-4-9-9V10C1,5,5,1,10,1z"/>
	</g>
</g>
</svg>
