<?xml version="1.0" encoding="utf-8"?>
<!-- Generator: Adobe Illustrator 26.1.0, SVG Export Plug-In . SVG Version: 6.00 Build 0)  -->
<svg version="1.1" id="Layer_1" xmlns="http://www.w3.org/2000/svg" xmlns:xlink="http://www.w3.org/1999/xlink" x="0px" y="0px"
	 viewBox="0 0 154 93" style="enable-background:new 0 0 154 93;" xml:space="preserve">
<style type="text/css">
	.st0{opacity:0.8;}
	.st1{fill:#F0FFF1;}
	.st2{fill:none;stroke:#259B00;stroke-width:3;stroke-linecap:round;stroke-dasharray:10,15;}
</style>
<g id="Layer_1-2">
	<g class="st0">
		<path class="st1" d="M11.5,1.5h131c5.5,0,10,4.5,10,10v70c0,5.5-4.5,10-10,10h-131c-5.5,0-10-4.5-10-10v-70C1.5,6,6,1.5,11.5,1.5z
			"/>
		<path class="st2" d="M11.5,1.5h131c5.5,0,10,4.5,10,10v70c0,5.5-4.5,10-10,10h-131c-5.5,0-10-4.5-10-10v-70C1.5,6,6,1.5,11.5,1.5z
			"/>
	</g>
</g>
</svg>
