<svg xmlns="http://www.w3.org/2000/svg" viewBox="0 0 115 145"><defs><style>.cls-1{fill:#f9fbfb;}.cls-2,.cls-5{fill:#f2f2f3;}.cls-2,.cls-6{stroke:#333638;stroke-width:2px;}.cls-2{stroke-linejoin:round;}.cls-3,.cls-4{fill:#333638;}.cls-3{fill-rule:evenodd;opacity:0.2;}.cls-3,.cls-5{isolation:isolate;}.cls-5{opacity:0.5;}.cls-6{fill:none;stroke-linecap:round;}</style></defs><g id="Layer_2" data-name="Layer 2"><g id="Layer_1-2" data-name="Layer 1"><rect class="cls-1" width="115" height="145" rx="10"/><path class="cls-2" d="M30.89,75h18.9a4.26,4.26,0,0,1-.65,1.27c-.7,1-2.06,2-4.85,2.37l-.16,0A2.7,2.7,0,0,0,44.61,84H71.07a2.7,2.7,0,0,0,.71-5.32.75.75,0,0,0-.3-.09c-2.78-.35-4.15-1.41-4.85-2.37A4.79,4.79,0,0,1,66,75h18.9a5,5,0,0,0,5-4.62s0-.11,0-.16V31.46A5.49,5.49,0,0,0,84.34,26H31.43a5.49,5.49,0,0,0-5.5,5.46V70.19a.37.37,0,0,0,0,.11A5,5,0,0,0,30.89,75Z"/><path class="cls-3" d="M88.85,31.46V63.57h0v6.68h0a4,4,0,0,1-4,3.78H64.79c0,.88.53,4.89,6.57,5.64h-.29a1.71,1.71,0,1,1,0,3.42H44.61a1.71,1.71,0,1,1,0-3.42h-.19c6-.75,6.53-4.76,6.56-5.64H30.89a4,4,0,0,1-4-3.78h0V31.46A4.49,4.49,0,0,1,31.43,27H84.34A4.49,4.49,0,0,1,88.85,31.46ZM85,69.37a2.44,2.44,0,0,0,1.47-1.46V30.79A2.44,2.44,0,0,0,85,29.33H30.75a2.47,2.47,0,0,0-1.47,1.46V67.91a2.47,2.47,0,0,0,1.47,1.46Zm-25.12,3a.92.92,0,0,0,.82-.5.87.87,0,0,0,.12-.45.9.9,0,0,0-.12-.46.92.92,0,0,0-.82-.5H56.41a.93.93,0,0,0-.66.28,1.09,1.09,0,0,0-.13.17,1,1,0,0,0-.14.51.94.94,0,0,0,.93,1Z"/><path class="cls-4" d="M64.24,43.42v-.2a5.77,5.77,0,0,0-5.9-5.9,6.09,6.09,0,0,0-6.26,5.9c0,.14,0,.3,0,.47a5,5,0,0,0,.14,1.08q0,.15.06.33h-.06c-.48,0-1,.38-.44,2.24.41,1.46.79,1.87,1.08,1.89a7.22,7.22,0,0,0,1.31,3.29,4,4,0,0,1-.45,1.43h0a17.24,17.24,0,0,1-5,2c-.16,0-.32.54-.46,1a2.19,2.19,0,0,1-.33.79C50.26,61.2,53.48,62,58,62s7.71-.78,10-4.22a2.19,2.19,0,0,1-.33-.79c-.14-.46-.3-1-.46-1a18,18,0,0,1-4.92-1.9,3.85,3.85,0,0,1-.54-1.61,7,7,0,0,0,1.22-3,.37.37,0,0,0,.22.08c.29,0,.68-.39,1.11-1.89s.17-2.07-.21-2.2A6.88,6.88,0,0,0,64.24,43.42Z"/><rect class="cls-5" x="30.61" y="30.69" width="54.55" height="37.59"/><path class="cls-4" d="M38.38,115.12a4.39,4.39,0,0,1-3.09-1,3.68,3.68,0,0,1-1-2.83c0-.13,0-.32,0-.59l.45-5.62a.76.76,0,0,1,.24-.54.8.8,0,0,1,.57-.21.71.71,0,0,1,.54.22.75.75,0,0,1,.18.56l-.45,5.61c0,.11,0,.27,0,.48a2.33,2.33,0,0,0,2.64,2.64,2.87,2.87,0,0,0,2.06-.69,3.33,3.33,0,0,0,.85-2.21l.47-5.86a.76.76,0,0,1,.24-.54.77.77,0,0,1,.55-.21.7.7,0,0,1,.54.21.68.68,0,0,1,.18.57l-.45,5.7a4.8,4.8,0,0,1-1.3,3.23A4.52,4.52,0,0,1,38.38,115.12Zm10.21,0A5.9,5.9,0,0,1,44.83,114a.81.81,0,0,1-.38-.68.65.65,0,0,1,.15-.44.51.51,0,0,1,.41-.18.68.68,0,0,1,.4.13,5.24,5.24,0,0,0,3.23,1,3.3,3.3,0,0,0,1.83-.42,1.38,1.38,0,0,0,.64-1.22,1,1,0,0,0-.33-.8,2.18,2.18,0,0,0-.79-.5c-.32-.13-.77-.28-1.34-.45a17.35,17.35,0,0,1-1.81-.63,3.38,3.38,0,0,1-1.19-.9,2.42,2.42,0,0,1-.48-1.56,2.71,2.71,0,0,1,.5-1.62,3.19,3.19,0,0,1,1.42-1.08,5.66,5.66,0,0,1,2.15-.37,6.41,6.41,0,0,1,2,.31,4.43,4.43,0,0,1,1.57.85.7.7,0,0,1,.08,1,.53.53,0,0,1-.42.2,1,1,0,0,1-.48-.18,4,4,0,0,0-1.26-.68,4.72,4.72,0,0,0-1.56-.25,3.17,3.17,0,0,0-1.83.44,1.48,1.48,0,0,0-.65,1.27,1.27,1.27,0,0,0,.35.9,2.71,2.71,0,0,0,.85.55c.34.13.81.28,1.4.45a15.19,15.19,0,0,1,1.74.61,3,3,0,0,1,1.12.85,2.11,2.11,0,0,1,.48,1.45,2.61,2.61,0,0,1-1.09,2.22A4.89,4.89,0,0,1,48.59,115.12Zm8-9.45L56.35,109H60.8a.72.72,0,0,1,.5.17.55.55,0,0,1,.18.43.67.67,0,0,1-.2.5.82.82,0,0,1-.55.16H56.26L56,113.75h4.76a.73.73,0,0,1,.51.17.57.57,0,0,1,.18.44.6.6,0,0,1-.2.47.86.86,0,0,1-.57.17H55.12a.77.77,0,0,1-.56-.19.72.72,0,0,1-.15-.57l.72-9.08a.72.72,0,0,1,.23-.54.8.8,0,0,1,.57-.19h5.53a.72.72,0,0,1,.5.16.57.57,0,0,1,.18.44c0,.43-.25.64-.75.64Zm14.71,8.41a.82.82,0,0,1,.09.34.62.62,0,0,1-.24.49.84.84,0,0,1-.54.2.87.87,0,0,1-.41-.11.77.77,0,0,1-.28-.35l-1.57-3a1.8,1.8,0,0,0-.68-.75,2,2,0,0,0-1-.22H65l-.29,3.68a.77.77,0,0,1-.24.56.84.84,0,0,1-.57.19.71.71,0,0,1-.55-.21.73.73,0,0,1-.17-.58l.72-9.1a.76.76,0,0,1,.23-.56.84.84,0,0,1,.57-.19h3.75a3.75,3.75,0,0,1,2.5.75,2.64,2.64,0,0,1,.89,2.13,3.11,3.11,0,0,1-.74,2.19,3.37,3.37,0,0,1-2.17,1,1.27,1.27,0,0,1,.58.39,2.87,2.87,0,0,1,.51.73ZM68,109.39a2.68,2.68,0,0,0,1.76-.5,1.83,1.83,0,0,0,.58-1.5,1.62,1.62,0,0,0-.5-1.3,2.41,2.41,0,0,0-1.55-.42H65.39l-.29,3.72Zm9.09,5.73A5.93,5.93,0,0,1,73.33,114a.8.8,0,0,1-.37-.68.65.65,0,0,1,.15-.44.49.49,0,0,1,.4-.18.71.71,0,0,1,.41.13,5.21,5.21,0,0,0,3.22,1,3.3,3.3,0,0,0,1.83-.42,1.39,1.39,0,0,0,.65-1.22,1,1,0,0,0-.33-.8,2.23,2.23,0,0,0-.8-.5c-.32-.13-.76-.28-1.33-.45a17.64,17.64,0,0,1-1.82-.63,3.35,3.35,0,0,1-1.18-.9,2.42,2.42,0,0,1-.48-1.56,2.7,2.7,0,0,1,.49-1.62,3.22,3.22,0,0,1,1.43-1.08,5.61,5.61,0,0,1,2.14-.37,6.41,6.41,0,0,1,2,.31,4.48,4.48,0,0,1,1.58.85.66.66,0,0,1,.25.54.67.67,0,0,1-.18.47.53.53,0,0,1-.42.2,1,1,0,0,1-.48-.18,4,4,0,0,0-1.26-.68,4.72,4.72,0,0,0-1.56-.25,3.17,3.17,0,0,0-1.83.44,1.47,1.47,0,0,0-.64,1.27,1.26,1.26,0,0,0,.34.9,2.76,2.76,0,0,0,.86.55c.34.13.8.28,1.39.45a15.19,15.19,0,0,1,1.74.61,3,3,0,0,1,1.13.85,2.11,2.11,0,0,1,.48,1.45,2.62,2.62,0,0,1-1.1,2.22A4.86,4.86,0,0,1,77.1,115.12Z"/><rect class="cls-6" x="1" y="1" width="113" height="143" rx="9"/></g></g></svg>